<mxfile host="app.diagrams.net" agent="Mozilla/5.0 (Macintosh; Intel Mac OS X 10_15_7) AppleWebKit/537.36 (KHTML, like Gecko) Chrome/136.0.0.0 Safari/537.36" version="27.0.9" pages="3">
  <diagram id="_2VZFNCcOJQzNFAEvKQ4" name="digital-engineering-extensions">
    <mxGraphModel grid="0" page="1" gridSize="10" guides="1" tooltips="1" connect="1" arrows="1" fold="1" pageScale="1" pageWidth="1100" pageHeight="850" math="0" shadow="0">
      <root>
        <mxCell id="_pjIIJH85xlCxuzhTB0n-0" />
        <mxCell id="_pjIIJH85xlCxuzhTB0n-1" parent="_pjIIJH85xlCxuzhTB0n-0" />
        <mxCell id="9z7arq_Zo_v2sK_c610E-0" value="" style="group" vertex="1" connectable="0" parent="_pjIIJH85xlCxuzhTB0n-1">
          <mxGeometry x="275" y="17.5" width="295" height="160" as="geometry" />
        </mxCell>
        <mxCell id="sVRfmSmPUyeZR23dinmU-1" value="DE - SCRE" style="rounded=0;whiteSpace=wrap;html=1;fontFamily=Oswald;fontSource=https%3A%2F%2Ffonts.googleapis.com%2Fcss%3Ffamily%3DOswald;align=center;verticalAlign=top;sketch=0;shadow=1;perimeterSpacing=0;" vertex="1" parent="9z7arq_Zo_v2sK_c610E-0">
          <mxGeometry x="-6" width="160" height="140" as="geometry" />
        </mxCell>
        <mxCell id="DI1yJqahRTEEsYsmecy3-0" value="Loss" style="rounded=1;whiteSpace=wrap;html=1;fillColor=#ffe6cc;fontFamily=Oswald;fontStyle=0;strokeColor=#000000;strokeWidth=1;fontSource=https%3A%2F%2Ffonts.googleapis.com%2Fcss%3Ffamily%3DOswald;fontSize=10;" vertex="1" parent="9z7arq_Zo_v2sK_c610E-0">
          <mxGeometry x="4" y="20" width="45" height="20" as="geometry" />
        </mxCell>
        <mxCell id="DI1yJqahRTEEsYsmecy3-1" value="Hazard" style="rounded=1;whiteSpace=wrap;html=1;fillColor=#ffe6cc;fontFamily=Oswald;fontStyle=0;strokeColor=#000000;strokeWidth=1;fontSource=https%3A%2F%2Ffonts.googleapis.com%2Fcss%3Ffamily%3DOswald;fontSize=10;" vertex="1" parent="9z7arq_Zo_v2sK_c610E-0">
          <mxGeometry x="24" y="50" width="45" height="20" as="geometry" />
        </mxCell>
        <mxCell id="DI1yJqahRTEEsYsmecy3-2" value="Loss Scenario" style="rounded=1;whiteSpace=wrap;html=1;fillColor=#ffe6cc;fontFamily=Oswald;fontStyle=0;strokeColor=#000000;strokeWidth=1;fontSource=https%3A%2F%2Ffonts.googleapis.com%2Fcss%3Ffamily%3DOswald;fontSize=10;" vertex="1" parent="9z7arq_Zo_v2sK_c610E-0">
          <mxGeometry x="44" y="80" width="60" height="20" as="geometry" />
        </mxCell>
        <mxCell id="DI1yJqahRTEEsYsmecy3-3" value="Resilient Mode" style="rounded=1;whiteSpace=wrap;html=1;fillColor=#ffe6cc;fontFamily=Oswald;fontStyle=0;strokeColor=#000000;strokeWidth=1;fontSource=https%3A%2F%2Ffonts.googleapis.com%2Fcss%3Ffamily%3DOswald;fontSize=10;" vertex="1" parent="9z7arq_Zo_v2sK_c610E-0">
          <mxGeometry x="64" y="110" width="70" height="20" as="geometry" />
        </mxCell>
        <mxCell id="9z7arq_Zo_v2sK_c610E-1" value="" style="group" vertex="1" connectable="0" parent="9z7arq_Zo_v2sK_c610E-0">
          <mxGeometry x="150" y="50" width="145" height="110" as="geometry" />
        </mxCell>
        <mxCell id="sVRfmSmPUyeZR23dinmU-2" value="DE - DTE" style="rounded=0;whiteSpace=wrap;html=1;fontFamily=Oswald;fontSource=https%3A%2F%2Ffonts.googleapis.com%2Fcss%3Ffamily%3DOswald;align=center;verticalAlign=top;sketch=0;shadow=1;perimeterSpacing=0;" vertex="1" parent="9z7arq_Zo_v2sK_c610E-1">
          <mxGeometry width="145" height="110" as="geometry" />
        </mxCell>
        <mxCell id="DI1yJqahRTEEsYsmecy3-4" value="Test Activity" style="rounded=1;whiteSpace=wrap;html=1;fillColor=#F0F0F0;fontFamily=Oswald;fontStyle=0;strokeColor=#000000;strokeWidth=1;fontSource=https%3A%2F%2Ffonts.googleapis.com%2Fcss%3Ffamily%3DOswald;fontSize=10;" vertex="1" parent="9z7arq_Zo_v2sK_c610E-1">
          <mxGeometry x="9" y="30" width="60" height="20" as="geometry" />
        </mxCell>
        <mxCell id="DI1yJqahRTEEsYsmecy3-5" value="Test Configuration" style="rounded=1;whiteSpace=wrap;html=1;fillColor=#F0F0F0;fontFamily=Oswald;fontStyle=0;strokeColor=#000000;strokeWidth=1;fontSource=https%3A%2F%2Ffonts.googleapis.com%2Fcss%3Ffamily%3DOswald;fontSize=10;" vertex="1" parent="9z7arq_Zo_v2sK_c610E-1">
          <mxGeometry x="31.5" y="70" width="70" height="20" as="geometry" />
        </mxCell>
        <mxCell id="9z7arq_Zo_v2sK_c610E-2" value="" style="group" vertex="1" connectable="0" parent="_pjIIJH85xlCxuzhTB0n-1">
          <mxGeometry x="260" y="207.5" width="630" height="450" as="geometry" />
        </mxCell>
        <mxCell id="sVRfmSmPUyeZR23dinmU-0" value="DE (Meta-Model) - Essential" style="rounded=0;whiteSpace=wrap;html=1;fontFamily=Oswald;fontSource=https%3A%2F%2Ffonts.googleapis.com%2Fcss%3Ffamily%3DOswald;align=center;verticalAlign=top;sketch=0;shadow=1;perimeterSpacing=0;" vertex="1" parent="9z7arq_Zo_v2sK_c610E-2">
          <mxGeometry width="630" height="450" as="geometry" />
        </mxCell>
        <mxCell id="VzOmmyaMniMT2UUNmXtP-4" value="performs" style="edgeStyle=orthogonalEdgeStyle;rounded=0;orthogonalLoop=1;jettySize=auto;html=1;strokeWidth=2;exitX=1;exitY=0.25;exitDx=0;exitDy=0;fontFamily=Oswald;fontSource=https%3A%2F%2Ffonts.googleapis.com%2Fcss%3Ffamily%3DOswald;" edge="1" parent="9z7arq_Zo_v2sK_c610E-2" source="RDXq0Bt6mLIDYJ0r4gJ_-0">
          <mxGeometry relative="1" as="geometry">
            <mxPoint x="395" y="90" as="targetPoint" />
          </mxGeometry>
        </mxCell>
        <mxCell id="RDXq0Bt6mLIDYJ0r4gJ_-0" value="Component" style="rounded=1;whiteSpace=wrap;html=1;fillColor=#56C0fB;strokeColor=#000000;fontFamily=Oswald;fontStyle=0;fontSize=12;fontSource=https%3A%2F%2Ffonts.googleapis.com%2Fcss%3Ffamily%3DOswald;" vertex="1" parent="9z7arq_Zo_v2sK_c610E-2">
          <mxGeometry x="45" y="80" width="100" height="40" as="geometry" />
        </mxCell>
        <mxCell id="rslfmyF8nNrouWFgpYV8-0" value="Function" style="rounded=1;whiteSpace=wrap;html=1;fillColor=#c2ffbf;strokeColor=#000000;fontFamily=Oswald;fontStyle=0;fontSize=12;fontSource=https%3A%2F%2Ffonts.googleapis.com%2Fcss%3Ffamily%3DOswald;" vertex="1" parent="9z7arq_Zo_v2sK_c610E-2">
          <mxGeometry x="395" y="80" width="100" height="40" as="geometry" />
        </mxCell>
        <mxCell id="OgQ9ipF2MUXCswvXJNdJ-0" value="Item" style="rounded=1;whiteSpace=wrap;html=1;fillColor=#ffff09;strokeColor=#36393d;fontFamily=Oswald;fontStyle=0;fontSource=https%3A%2F%2Ffonts.googleapis.com%2Fcss%3Ffamily%3DOswald;" vertex="1" parent="9z7arq_Zo_v2sK_c610E-2">
          <mxGeometry x="395.0000000000002" y="340" width="100" height="40" as="geometry" />
        </mxCell>
        <mxCell id="VzOmmyaMniMT2UUNmXtP-7" value="connects to" style="edgeStyle=orthogonalEdgeStyle;rounded=0;orthogonalLoop=1;jettySize=auto;html=1;entryX=0.25;entryY=1;entryDx=0;entryDy=0;strokeWidth=2;exitX=0.25;exitY=0;exitDx=0;exitDy=0;fontFamily=Oswald;fontSource=https%3A%2F%2Ffonts.googleapis.com%2Fcss%3Ffamily%3DOswald;" edge="1" parent="9z7arq_Zo_v2sK_c610E-2" source="OgQ9ipF2MUXCswvXJNdJ-1" target="RDXq0Bt6mLIDYJ0r4gJ_-0">
          <mxGeometry x="-0.2727" relative="1" as="geometry">
            <mxPoint as="offset" />
          </mxGeometry>
        </mxCell>
        <mxCell id="OgQ9ipF2MUXCswvXJNdJ-1" value="Link" style="rounded=1;whiteSpace=wrap;html=1;fillColor=#ffff09;strokeColor=#36393d;fontFamily=Oswald;fontStyle=0;fontSource=https%3A%2F%2Ffonts.googleapis.com%2Fcss%3Ffamily%3DOswald;" vertex="1" parent="9z7arq_Zo_v2sK_c610E-2">
          <mxGeometry x="45.00000000000023" y="340" width="100" height="40" as="geometry" />
        </mxCell>
        <mxCell id="jE54HezMXeVUT4ueSiKO-2" value="specifies" style="edgeStyle=orthogonalEdgeStyle;rounded=0;orthogonalLoop=1;jettySize=auto;html=1;entryX=1;entryY=0.75;entryDx=0;entryDy=0;strokeWidth=2;fontFamily=Oswald;fontSource=https%3A%2F%2Ffonts.googleapis.com%2Fcss%3Ffamily%3DOswald;" edge="1" parent="9z7arq_Zo_v2sK_c610E-2" source="Q5y08pIQn_w_zqm31512-0" target="RDXq0Bt6mLIDYJ0r4gJ_-0">
          <mxGeometry x="-0.0968" relative="1" as="geometry">
            <mxPoint as="offset" />
          </mxGeometry>
        </mxCell>
        <mxCell id="jE54HezMXeVUT4ueSiKO-3" value="basis of/&lt;br&gt;specifies" style="edgeStyle=orthogonalEdgeStyle;rounded=0;orthogonalLoop=1;jettySize=auto;html=1;entryX=0;entryY=0.75;entryDx=0;entryDy=0;strokeWidth=2;fontFamily=Oswald;fontSource=https%3A%2F%2Ffonts.googleapis.com%2Fcss%3Ffamily%3DOswald;" edge="1" parent="9z7arq_Zo_v2sK_c610E-2" source="Q5y08pIQn_w_zqm31512-0" target="rslfmyF8nNrouWFgpYV8-0">
          <mxGeometry x="-0.1724" relative="1" as="geometry">
            <mxPoint as="offset" />
          </mxGeometry>
        </mxCell>
        <mxCell id="Q5y08pIQn_w_zqm31512-0" value="Requirement&lt;br&gt;" style="rounded=1;whiteSpace=wrap;html=1;fillColor=#FC9494;strokeColor=#000000;fontFamily=Oswald;fontStyle=0;fontSource=https%3A%2F%2Ffonts.googleapis.com%2Fcss%3Ffamily%3DOswald;" vertex="1" parent="9z7arq_Zo_v2sK_c610E-2">
          <mxGeometry x="225" y="150" width="100" height="40" as="geometry" />
        </mxCell>
        <mxCell id="VzOmmyaMniMT2UUNmXtP-5" value="inputs /&lt;br&gt;outputs /&lt;br&gt;triggered by" style="edgeStyle=orthogonalEdgeStyle;rounded=0;orthogonalLoop=1;jettySize=auto;html=1;entryX=0.75;entryY=0;entryDx=0;entryDy=0;strokeWidth=2;exitX=0.75;exitY=1;exitDx=0;exitDy=0;fontFamily=Oswald;fontSource=https%3A%2F%2Ffonts.googleapis.com%2Fcss%3Ffamily%3DOswald;" edge="1" parent="9z7arq_Zo_v2sK_c610E-2" source="rslfmyF8nNrouWFgpYV8-0" target="OgQ9ipF2MUXCswvXJNdJ-0">
          <mxGeometry x="0.2727" relative="1" as="geometry">
            <mxPoint as="offset" />
          </mxGeometry>
        </mxCell>
        <mxCell id="jE54HezMXeVUT4ueSiKO-4" value="verifies" style="edgeStyle=orthogonalEdgeStyle;rounded=0;orthogonalLoop=1;jettySize=auto;html=1;strokeWidth=2;entryX=0.75;entryY=1;entryDx=0;entryDy=0;fontFamily=Oswald;fontSource=https%3A%2F%2Ffonts.googleapis.com%2Fcss%3Ffamily%3DOswald;" edge="1" parent="9z7arq_Zo_v2sK_c610E-2" target="RDXq0Bt6mLIDYJ0r4gJ_-0">
          <mxGeometry x="0.2308" relative="1" as="geometry">
            <mxPoint x="175" y="220" as="targetPoint" />
            <mxPoint x="225" y="250" as="sourcePoint" />
            <mxPoint as="offset" />
          </mxGeometry>
        </mxCell>
        <mxCell id="jE54HezMXeVUT4ueSiKO-5" value="verifies" style="edgeStyle=orthogonalEdgeStyle;rounded=0;orthogonalLoop=1;jettySize=auto;html=1;entryX=0.25;entryY=1;entryDx=0;entryDy=0;strokeWidth=2;exitX=1;exitY=0.25;exitDx=0;exitDy=0;fontFamily=Oswald;fontSource=https%3A%2F%2Ffonts.googleapis.com%2Fcss%3Ffamily%3DOswald;" edge="1" parent="9z7arq_Zo_v2sK_c610E-2" source="jE54HezMXeVUT4ueSiKO-0" target="rslfmyF8nNrouWFgpYV8-0">
          <mxGeometry x="0.2" relative="1" as="geometry">
            <mxPoint as="offset" />
          </mxGeometry>
        </mxCell>
        <mxCell id="jE54HezMXeVUT4ueSiKO-6" value="verifies" style="edgeStyle=orthogonalEdgeStyle;rounded=0;orthogonalLoop=1;jettySize=auto;html=1;entryX=0.75;entryY=0;entryDx=0;entryDy=0;strokeWidth=2;exitX=0;exitY=0.75;exitDx=0;exitDy=0;fontFamily=Oswald;fontSource=https%3A%2F%2Ffonts.googleapis.com%2Fcss%3Ffamily%3DOswald;" edge="1" parent="9z7arq_Zo_v2sK_c610E-2" source="jE54HezMXeVUT4ueSiKO-0" target="OgQ9ipF2MUXCswvXJNdJ-1">
          <mxGeometry x="0.5429" relative="1" as="geometry">
            <mxPoint as="offset" />
          </mxGeometry>
        </mxCell>
        <mxCell id="jE54HezMXeVUT4ueSiKO-7" value="verifies" style="edgeStyle=orthogonalEdgeStyle;rounded=0;orthogonalLoop=1;jettySize=auto;html=1;exitX=1;exitY=0.75;exitDx=0;exitDy=0;entryX=0.25;entryY=0;entryDx=0;entryDy=0;strokeWidth=2;fontFamily=Oswald;fontSource=https%3A%2F%2Ffonts.googleapis.com%2Fcss%3Ffamily%3DOswald;" edge="1" parent="9z7arq_Zo_v2sK_c610E-2" source="jE54HezMXeVUT4ueSiKO-0" target="OgQ9ipF2MUXCswvXJNdJ-0">
          <mxGeometry x="0.5152" y="-5" relative="1" as="geometry">
            <mxPoint as="offset" />
          </mxGeometry>
        </mxCell>
        <mxCell id="jE54HezMXeVUT4ueSiKO-0" value="Verification Requirement" style="rounded=1;whiteSpace=wrap;html=1;fillColor=#F0F0F0;strokeColor=#000000;fontFamily=Oswald;fontStyle=0;fontSource=https%3A%2F%2Ffonts.googleapis.com%2Fcss%3Ffamily%3DOswald;" vertex="1" parent="9z7arq_Zo_v2sK_c610E-2">
          <mxGeometry x="225" y="240" width="100" height="40" as="geometry" />
        </mxCell>
        <mxCell id="VzOmmyaMniMT2UUNmXtP-6" value="transferred by" style="edgeStyle=orthogonalEdgeStyle;rounded=0;orthogonalLoop=1;jettySize=auto;html=1;entryX=1;entryY=0.5;entryDx=0;entryDy=0;strokeWidth=2;fontFamily=Oswald;fontSource=https%3A%2F%2Ffonts.googleapis.com%2Fcss%3Ffamily%3DOswald;" edge="1" parent="9z7arq_Zo_v2sK_c610E-2" source="OgQ9ipF2MUXCswvXJNdJ-0" target="OgQ9ipF2MUXCswvXJNdJ-1">
          <mxGeometry relative="1" as="geometry" />
        </mxCell>
        <mxCell id="jE54HezMXeVUT4ueSiKO-8" value="built from" style="edgeStyle=orthogonalEdgeStyle;rounded=0;orthogonalLoop=1;jettySize=auto;html=1;entryX=0.75;entryY=0;entryDx=0;entryDy=0;strokeWidth=2;fontFamily=Oswald;fontSource=https%3A%2F%2Ffonts.googleapis.com%2Fcss%3Ffamily%3DOswald;" edge="1" parent="9z7arq_Zo_v2sK_c610E-2" source="RDXq0Bt6mLIDYJ0r4gJ_-0" target="RDXq0Bt6mLIDYJ0r4gJ_-0">
          <mxGeometry x="-0.0769" y="10" relative="1" as="geometry">
            <Array as="points">
              <mxPoint x="95" y="60" />
              <mxPoint x="120" y="60" />
            </Array>
            <mxPoint as="offset" />
          </mxGeometry>
        </mxCell>
        <mxCell id="jE54HezMXeVUT4ueSiKO-1" value="verified by" style="edgeStyle=orthogonalEdgeStyle;rounded=0;orthogonalLoop=1;jettySize=auto;html=1;entryX=0.5;entryY=0;entryDx=0;entryDy=0;strokeWidth=2;fontFamily=Oswald;fontSource=https%3A%2F%2Ffonts.googleapis.com%2Fcss%3Ffamily%3DOswald;" edge="1" parent="9z7arq_Zo_v2sK_c610E-2" source="Q5y08pIQn_w_zqm31512-0" target="jE54HezMXeVUT4ueSiKO-0">
          <mxGeometry relative="1" as="geometry" />
        </mxCell>
        <mxCell id="blHGYiy0DxJ2p5ouEmBb-1" value="decompossed by" style="edgeStyle=orthogonalEdgeStyle;rounded=0;orthogonalLoop=1;jettySize=auto;html=1;exitX=0.5;exitY=0;exitDx=0;exitDy=0;entryX=0.75;entryY=0;entryDx=0;entryDy=0;strokeWidth=2;startArrow=classic;startFill=1;endArrow=none;endFill=0;fontFamily=Oswald;fontSource=https%3A%2F%2Ffonts.googleapis.com%2Fcss%3Ffamily%3DOswald;" edge="1" parent="9z7arq_Zo_v2sK_c610E-2" source="rslfmyF8nNrouWFgpYV8-0" target="rslfmyF8nNrouWFgpYV8-0">
          <mxGeometry x="-0.0769" y="10" relative="1" as="geometry">
            <Array as="points">
              <mxPoint x="445" y="60" />
              <mxPoint x="470" y="60" />
            </Array>
            <mxPoint as="offset" />
          </mxGeometry>
        </mxCell>
        <mxCell id="blHGYiy0DxJ2p5ouEmBb-2" value="includes" style="edgeStyle=orthogonalEdgeStyle;rounded=0;orthogonalLoop=1;jettySize=auto;html=1;exitX=0.5;exitY=1;exitDx=0;exitDy=0;strokeWidth=2;fontFamily=Oswald;fontSource=https%3A%2F%2Ffonts.googleapis.com%2Fcss%3Ffamily%3DOswald;" edge="1" parent="9z7arq_Zo_v2sK_c610E-2" source="OgQ9ipF2MUXCswvXJNdJ-1">
          <mxGeometry x="-0.1429" y="-10" relative="1" as="geometry">
            <mxPoint x="125" y="380" as="targetPoint" />
            <Array as="points">
              <mxPoint x="95" y="400" />
              <mxPoint x="125" y="400" />
            </Array>
            <mxPoint as="offset" />
          </mxGeometry>
        </mxCell>
        <mxCell id="blHGYiy0DxJ2p5ouEmBb-3" value="decomposed by" style="edgeStyle=orthogonalEdgeStyle;rounded=0;orthogonalLoop=1;jettySize=auto;html=1;exitX=0.5;exitY=1;exitDx=0;exitDy=0;strokeWidth=2;entryX=0.25;entryY=1;entryDx=0;entryDy=0;fontFamily=Oswald;fontSource=https%3A%2F%2Ffonts.googleapis.com%2Fcss%3Ffamily%3DOswald;" edge="1" parent="9z7arq_Zo_v2sK_c610E-2" source="OgQ9ipF2MUXCswvXJNdJ-0" target="OgQ9ipF2MUXCswvXJNdJ-0">
          <mxGeometry x="0.2308" y="10" relative="1" as="geometry">
            <mxPoint x="413" y="390" as="targetPoint" />
            <Array as="points">
              <mxPoint x="445" y="400" />
              <mxPoint x="420" y="400" />
            </Array>
            <mxPoint as="offset" />
          </mxGeometry>
        </mxCell>
        <mxCell id="4SKh-F4ybPkzE-1H9r1R-0" value="decomposed by" style="edgeStyle=orthogonalEdgeStyle;rounded=0;orthogonalLoop=1;jettySize=auto;html=1;exitX=0.75;exitY=1;exitDx=0;exitDy=0;startArrow=none;startFill=0;endArrow=classic;endFill=1;strokeWidth=2;entryX=0.5;entryY=1;entryDx=0;entryDy=0;fontFamily=Oswald;fontSource=https%3A%2F%2Ffonts.googleapis.com%2Fcss%3Ffamily%3DOswald;" edge="1" parent="9z7arq_Zo_v2sK_c610E-2" source="blHGYiy0DxJ2p5ouEmBb-4" target="blHGYiy0DxJ2p5ouEmBb-4">
          <mxGeometry x="-0.2308" y="10" relative="1" as="geometry">
            <mxPoint x="570" y="220" as="targetPoint" />
            <Array as="points">
              <mxPoint x="570" y="210" />
              <mxPoint x="545" y="210" />
            </Array>
            <mxPoint as="offset" />
          </mxGeometry>
        </mxCell>
        <mxCell id="blHGYiy0DxJ2p5ouEmBb-4" value="Structure" style="rounded=1;whiteSpace=wrap;html=1;fillColor=#c2ffbf;strokeColor=#000000;fontFamily=Oswald;fontStyle=0;fontSize=12;fontSource=https%3A%2F%2Ffonts.googleapis.com%2Fcss%3Ffamily%3DOswald;" vertex="1" parent="9z7arq_Zo_v2sK_c610E-2">
          <mxGeometry x="495" y="150" width="100" height="40" as="geometry" />
        </mxCell>
        <mxCell id="2fVkqJyz-IAKUVucN_Ry-0" value="defined by" style="edgeStyle=orthogonalEdgeStyle;rounded=0;orthogonalLoop=1;jettySize=auto;html=1;entryX=0.75;entryY=0;entryDx=0;entryDy=0;startArrow=none;startFill=0;endArrow=classic;endFill=1;strokeWidth=2;exitX=1;exitY=0.75;exitDx=0;exitDy=0;fontFamily=Oswald;fontSource=https%3A%2F%2Ffonts.googleapis.com%2Fcss%3Ffamily%3DOswald;" edge="1" parent="9z7arq_Zo_v2sK_c610E-2" source="rslfmyF8nNrouWFgpYV8-0" target="blHGYiy0DxJ2p5ouEmBb-4">
          <mxGeometry x="0.52" relative="1" as="geometry">
            <Array as="points">
              <mxPoint x="570" y="110" />
            </Array>
            <mxPoint as="offset" />
          </mxGeometry>
        </mxCell>
        <mxCell id="-BV6g6oLC1zdcpLevwT0-6" value="" style="group" vertex="1" connectable="0" parent="_pjIIJH85xlCxuzhTB0n-1">
          <mxGeometry x="559" y="27.5" width="180" height="110" as="geometry" />
        </mxCell>
        <mxCell id="9z7arq_Zo_v2sK_c610E-4" value="DE - Project Mgmt" style="rounded=0;whiteSpace=wrap;html=1;fontFamily=Oswald;fontSource=https%3A%2F%2Ffonts.googleapis.com%2Fcss%3Ffamily%3DOswald;align=center;verticalAlign=top;sketch=0;shadow=1;perimeterSpacing=0;" vertex="1" parent="-BV6g6oLC1zdcpLevwT0-6">
          <mxGeometry width="180" height="110" as="geometry" />
        </mxCell>
        <mxCell id="9z7arq_Zo_v2sK_c610E-5" value="Concern" style="rounded=1;whiteSpace=wrap;html=1;fillColor=#FFFFCC;fontFamily=Oswald;fontStyle=0;strokeColor=#36393d;strokeWidth=1;fontSource=https%3A%2F%2Ffonts.googleapis.com%2Fcss%3Ffamily%3DOswald;fontSize=10;" vertex="1" parent="-BV6g6oLC1zdcpLevwT0-6">
          <mxGeometry x="15" y="30" width="60" height="20" as="geometry" />
        </mxCell>
        <mxCell id="9z7arq_Zo_v2sK_c610E-6" value="Risk" style="rounded=1;whiteSpace=wrap;html=1;fillColor=#FFFFCC;fontFamily=Oswald;fontStyle=0;strokeColor=#36393d;strokeWidth=1;fontSource=https%3A%2F%2Ffonts.googleapis.com%2Fcss%3Ffamily%3DOswald;fontSize=10;" vertex="1" parent="-BV6g6oLC1zdcpLevwT0-6">
          <mxGeometry x="10" y="70" width="70" height="20" as="geometry" />
        </mxCell>
        <mxCell id="-BV6g6oLC1zdcpLevwT0-4" value="Change Request" style="rounded=1;whiteSpace=wrap;html=1;fillColor=#FFFFCC;fontFamily=Oswald;fontStyle=0;strokeColor=#36393d;strokeWidth=1;fontSource=https%3A%2F%2Ffonts.googleapis.com%2Fcss%3Ffamily%3DOswald;fontSize=10;" vertex="1" parent="-BV6g6oLC1zdcpLevwT0-6">
          <mxGeometry x="90" y="45" width="70" height="20" as="geometry" />
        </mxCell>
        <mxCell id="-BV6g6oLC1zdcpLevwT0-5" value="SignOff" style="rounded=1;whiteSpace=wrap;html=1;fillColor=#FFFFCC;fontFamily=Oswald;fontStyle=0;strokeColor=#36393d;strokeWidth=1;fontSource=https%3A%2F%2Ffonts.googleapis.com%2Fcss%3Ffamily%3DOswald;fontSize=10;" vertex="1" parent="-BV6g6oLC1zdcpLevwT0-6">
          <mxGeometry x="90" y="80" width="70" height="20" as="geometry" />
        </mxCell>
        <mxCell id="-BV6g6oLC1zdcpLevwT0-9" value="" style="shape=curlyBracket;whiteSpace=wrap;html=1;rounded=1;shadow=1;sketch=0;fontFamily=Oswald;fontSource=https%3A%2F%2Ffonts.googleapis.com%2Fcss%3Ffamily%3DOswald;fontSize=10;strokeColor=default;strokeWidth=2;rotation=-90;direction=east;" vertex="1" parent="_pjIIJH85xlCxuzhTB0n-1">
          <mxGeometry x="565" y="-122.5" width="20" height="620" as="geometry" />
        </mxCell>
        <mxCell id="-BV6g6oLC1zdcpLevwT0-10" value="" style="shape=curlyBracket;whiteSpace=wrap;html=1;rounded=1;shadow=1;sketch=0;fontFamily=Oswald;fontSource=https%3A%2F%2Ffonts.googleapis.com%2Fcss%3Ffamily%3DOswald;fontSize=10;strokeColor=default;strokeWidth=2;rotation=-180;direction=east;" vertex="1" parent="_pjIIJH85xlCxuzhTB0n-1">
          <mxGeometry x="230" y="270" width="20" height="310" as="geometry" />
        </mxCell>
        <mxCell id="-BV6g6oLC1zdcpLevwT0-11" value="" style="shape=curlyBracket;whiteSpace=wrap;html=1;rounded=1;shadow=1;sketch=0;fontFamily=Oswald;fontSource=https%3A%2F%2Ffonts.googleapis.com%2Fcss%3Ffamily%3DOswald;fontSize=10;strokeColor=default;strokeWidth=2;rotation=0;direction=east;" vertex="1" parent="_pjIIJH85xlCxuzhTB0n-1">
          <mxGeometry x="900" y="268.75" width="20" height="312.5" as="geometry" />
        </mxCell>
        <mxCell id="-BV6g6oLC1zdcpLevwT0-12" value="Model Extensions" style="text;html=1;strokeColor=none;fillColor=none;align=center;verticalAlign=middle;whiteSpace=wrap;rounded=0;shadow=1;sketch=0;fontFamily=Oswald;fontSource=https%3A%2F%2Ffonts.googleapis.com%2Fcss%3Ffamily%3DOswald;fontSize=12;" vertex="1" parent="_pjIIJH85xlCxuzhTB0n-1">
          <mxGeometry x="787" y="163.5" width="100" height="30" as="geometry" />
        </mxCell>
        <mxCell id="-BV6g6oLC1zdcpLevwT0-13" value="Process Extensions" style="text;html=1;strokeColor=none;fillColor=none;align=center;verticalAlign=middle;whiteSpace=wrap;rounded=0;shadow=1;sketch=0;fontFamily=Oswald;fontSource=https%3A%2F%2Ffonts.googleapis.com%2Fcss%3Ffamily%3DOswald;fontSize=12;rotation=-90;" vertex="1" parent="_pjIIJH85xlCxuzhTB0n-1">
          <mxGeometry x="180" y="302.5" width="100" height="30" as="geometry" />
        </mxCell>
        <mxCell id="-BV6g6oLC1zdcpLevwT0-14" value="Report Extensions" style="text;html=1;strokeColor=none;fillColor=none;align=center;verticalAlign=middle;whiteSpace=wrap;rounded=0;shadow=1;sketch=0;fontFamily=Oswald;fontSource=https%3A%2F%2Ffonts.googleapis.com%2Fcss%3Ffamily%3DOswald;fontSize=12;rotation=90;" vertex="1" parent="_pjIIJH85xlCxuzhTB0n-1">
          <mxGeometry x="871" y="299.5" width="100" height="30" as="geometry" />
        </mxCell>
        <mxCell id="-BV6g6oLC1zdcpLevwT0-15" value="CSRM" style="sketch=0;outlineConnect=0;fontColor=#232F3E;gradientColor=none;fillColor=#232F3D;strokeColor=none;dashed=0;verticalLabelPosition=bottom;verticalAlign=top;align=center;html=1;fontSize=10;fontStyle=0;aspect=fixed;pointerEvents=1;shape=mxgraph.aws4.gear;shadow=1;fontFamily=Oswald;fontSource=https%3A%2F%2Ffonts.googleapis.com%2Fcss%3Ffamily%3DOswald;" vertex="1" parent="_pjIIJH85xlCxuzhTB0n-1">
          <mxGeometry x="150" y="310" width="58" height="58" as="geometry" />
        </mxCell>
        <mxCell id="-BV6g6oLC1zdcpLevwT0-16" value="DE Notebook" style="strokeColor=#dddddd;shadow=1;strokeWidth=1;rounded=1;absoluteArcSize=1;arcSize=2;labelPosition=center;verticalLabelPosition=middle;align=center;verticalAlign=bottom;spacingLeft=0;fontColor=#330000;fontSize=10;whiteSpace=wrap;spacingBottom=2;sketch=0;fontFamily=Oswald;fontSource=https%3A%2F%2Ffonts.googleapis.com%2Fcss%3Ffamily%3DOswald;" vertex="1" parent="_pjIIJH85xlCxuzhTB0n-1">
          <mxGeometry x="940" y="277.5" width="60" height="80" as="geometry" />
        </mxCell>
        <mxCell id="-BV6g6oLC1zdcpLevwT0-17" value="" style="sketch=0;dashed=0;connectable=0;html=1;fillColor=#757575;strokeColor=none;shape=mxgraph.gcp2.report;part=1;shadow=1;fontFamily=Oswald;fontSource=https%3A%2F%2Ffonts.googleapis.com%2Fcss%3Ffamily%3DOswald;fontSize=10;" vertex="1" parent="-BV6g6oLC1zdcpLevwT0-16">
          <mxGeometry x="0.5" width="50" height="50" relative="1" as="geometry">
            <mxPoint x="-25" y="10" as="offset" />
          </mxGeometry>
        </mxCell>
        <mxCell id="-BV6g6oLC1zdcpLevwT0-18" value="NAVSEM" style="sketch=0;outlineConnect=0;fontColor=#232F3E;gradientColor=none;fillColor=#232F3D;strokeColor=none;dashed=0;verticalLabelPosition=bottom;verticalAlign=top;align=center;html=1;fontSize=10;fontStyle=0;aspect=fixed;pointerEvents=1;shape=mxgraph.aws4.gear;shadow=1;fontFamily=Oswald;fontSource=https%3A%2F%2Ffonts.googleapis.com%2Fcss%3Ffamily%3DOswald;" vertex="1" parent="_pjIIJH85xlCxuzhTB0n-1">
          <mxGeometry x="170" y="399.5" width="58" height="58" as="geometry" />
        </mxCell>
        <mxCell id="-BV6g6oLC1zdcpLevwT0-21" value="HTML Teamview" style="strokeColor=#dddddd;shadow=1;strokeWidth=1;rounded=1;absoluteArcSize=1;arcSize=2;labelPosition=center;verticalLabelPosition=middle;align=center;verticalAlign=bottom;spacingLeft=0;fontColor=#330000;fontSize=10;whiteSpace=wrap;spacingBottom=2;sketch=0;fontFamily=Oswald;fontSource=https%3A%2F%2Ffonts.googleapis.com%2Fcss%3Ffamily%3DOswald;" vertex="1" parent="_pjIIJH85xlCxuzhTB0n-1">
          <mxGeometry x="950" y="377.5" width="80" height="80" as="geometry" />
        </mxCell>
        <mxCell id="-BV6g6oLC1zdcpLevwT0-22" value="" style="sketch=0;dashed=0;connectable=0;html=1;fillColor=#757575;strokeColor=none;shape=mxgraph.gcp2.report;part=1;shadow=1;fontFamily=Oswald;fontSource=https%3A%2F%2Ffonts.googleapis.com%2Fcss%3Ffamily%3DOswald;fontSize=10;" vertex="1" parent="-BV6g6oLC1zdcpLevwT0-21">
          <mxGeometry x="0.5" width="50" height="50" relative="1" as="geometry">
            <mxPoint x="-25" y="10" as="offset" />
          </mxGeometry>
        </mxCell>
        <mxCell id="-BV6g6oLC1zdcpLevwT0-23" value="DoDAF" style="strokeColor=#dddddd;shadow=1;strokeWidth=1;rounded=1;absoluteArcSize=1;arcSize=2;labelPosition=center;verticalLabelPosition=middle;align=center;verticalAlign=bottom;spacingLeft=0;fontColor=#330000;fontSize=10;whiteSpace=wrap;spacingBottom=2;sketch=0;fontFamily=Oswald;fontSource=https%3A%2F%2Ffonts.googleapis.com%2Fcss%3Ffamily%3DOswald;" vertex="1" parent="_pjIIJH85xlCxuzhTB0n-1">
          <mxGeometry x="930" y="477.5" width="70" height="83" as="geometry" />
        </mxCell>
        <mxCell id="-BV6g6oLC1zdcpLevwT0-24" value="" style="sketch=0;dashed=0;connectable=0;html=1;fillColor=#757575;strokeColor=none;shape=mxgraph.gcp2.report;part=1;shadow=1;fontFamily=Oswald;fontSource=https%3A%2F%2Ffonts.googleapis.com%2Fcss%3Ffamily%3DOswald;fontSize=10;" vertex="1" parent="-BV6g6oLC1zdcpLevwT0-23">
          <mxGeometry x="0.5" width="50" height="50" relative="1" as="geometry">
            <mxPoint x="-25" y="10" as="offset" />
          </mxGeometry>
        </mxCell>
        <mxCell id="-BV6g6oLC1zdcpLevwT0-25" value="FOREST" style="sketch=0;outlineConnect=0;fontColor=#232F3E;gradientColor=none;fillColor=#232F3D;strokeColor=none;dashed=0;verticalLabelPosition=bottom;verticalAlign=top;align=center;html=1;fontSize=10;fontStyle=0;aspect=fixed;pointerEvents=1;shape=mxgraph.aws4.gear;shadow=1;fontFamily=Oswald;fontSource=https%3A%2F%2Ffonts.googleapis.com%2Fcss%3Ffamily%3DOswald;" vertex="1" parent="_pjIIJH85xlCxuzhTB0n-1">
          <mxGeometry x="150" y="492.5" width="58" height="58" as="geometry" />
        </mxCell>
        <mxCell id="8FwYc5gDEcMG10lrLWLe-0" value="" style="shape=curlyBracket;whiteSpace=wrap;html=1;rounded=1;shadow=1;sketch=0;fontFamily=Oswald;fontSource=https%3A%2F%2Ffonts.googleapis.com%2Fcss%3Ffamily%3DOswald;fontSize=10;strokeColor=default;strokeWidth=2;rotation=-90;direction=east;flipH=1;" vertex="1" parent="_pjIIJH85xlCxuzhTB0n-1">
          <mxGeometry x="568.75" y="403.75" width="20" height="557.5" as="geometry" />
        </mxCell>
        <mxCell id="8FwYc5gDEcMG10lrLWLe-1" value="Repository Administration" style="text;html=1;strokeColor=none;fillColor=none;align=center;verticalAlign=middle;whiteSpace=wrap;rounded=0;shadow=1;sketch=0;fontFamily=Oswald;fontSource=https%3A%2F%2Ffonts.googleapis.com%2Fcss%3Ffamily%3DOswald;fontSize=12;" vertex="1" parent="_pjIIJH85xlCxuzhTB0n-1">
          <mxGeometry x="300" y="677.5" width="140" height="30" as="geometry" />
        </mxCell>
        <mxCell id="8FwYc5gDEcMG10lrLWLe-2" value="Project Partitioning" style="sketch=0;pointerEvents=1;shadow=0;dashed=0;html=1;strokeColor=none;labelPosition=center;verticalLabelPosition=bottom;verticalAlign=top;align=center;fillColor=#515151;shape=mxgraph.mscae.enterprise.database_server;fontFamily=Oswald;fontSource=https%3A%2F%2Ffonts.googleapis.com%2Fcss%3Ffamily%3DOswald;fontSize=10;fontColor=#330000;" vertex="1" parent="_pjIIJH85xlCxuzhTB0n-1">
          <mxGeometry x="478" y="700" width="38" height="50" as="geometry" />
        </mxCell>
        <mxCell id="8FwYc5gDEcMG10lrLWLe-3" value="Access Control" style="sketch=0;pointerEvents=1;shadow=0;dashed=0;html=1;strokeColor=none;labelPosition=center;verticalLabelPosition=bottom;verticalAlign=top;align=center;fillColor=#515151;shape=mxgraph.mscae.enterprise.database_server;fontFamily=Oswald;fontSource=https%3A%2F%2Ffonts.googleapis.com%2Fcss%3Ffamily%3DOswald;fontSize=10;fontColor=#330000;" vertex="1" parent="_pjIIJH85xlCxuzhTB0n-1">
          <mxGeometry x="398" y="717.5" width="38" height="50" as="geometry" />
        </mxCell>
        <mxCell id="8FwYc5gDEcMG10lrLWLe-4" value="Export / Import" style="sketch=0;pointerEvents=1;shadow=0;dashed=0;html=1;strokeColor=none;labelPosition=center;verticalLabelPosition=bottom;verticalAlign=top;align=center;fillColor=#515151;shape=mxgraph.mscae.enterprise.database_server;fontFamily=Oswald;fontSource=https%3A%2F%2Ffonts.googleapis.com%2Fcss%3Ffamily%3DOswald;fontSize=10;fontColor=#330000;" vertex="1" parent="_pjIIJH85xlCxuzhTB0n-1">
          <mxGeometry x="557" y="717.5" width="38" height="50" as="geometry" />
        </mxCell>
        <mxCell id="8FwYc5gDEcMG10lrLWLe-5" value="Change Logs" style="sketch=0;pointerEvents=1;shadow=0;dashed=0;html=1;strokeColor=none;labelPosition=center;verticalLabelPosition=bottom;verticalAlign=top;align=center;fillColor=#515151;shape=mxgraph.mscae.enterprise.database_server;fontFamily=Oswald;fontSource=https%3A%2F%2Ffonts.googleapis.com%2Fcss%3Ffamily%3DOswald;fontSize=10;fontColor=#330000;" vertex="1" parent="_pjIIJH85xlCxuzhTB0n-1">
          <mxGeometry x="636" y="700" width="38" height="50" as="geometry" />
        </mxCell>
        <mxCell id="8FwYc5gDEcMG10lrLWLe-8" value="Schema Management" style="sketch=0;pointerEvents=1;shadow=0;dashed=0;html=1;strokeColor=none;labelPosition=center;verticalLabelPosition=bottom;verticalAlign=top;align=center;fillColor=#515151;shape=mxgraph.mscae.enterprise.database_server;fontFamily=Oswald;fontSource=https%3A%2F%2Ffonts.googleapis.com%2Fcss%3Ffamily%3DOswald;fontSize=10;fontColor=#330000;" vertex="1" parent="_pjIIJH85xlCxuzhTB0n-1">
          <mxGeometry x="716" y="720" width="38" height="50" as="geometry" />
        </mxCell>
        <mxCell id="8FwYc5gDEcMG10lrLWLe-11" value="" style="group" vertex="1" connectable="0" parent="_pjIIJH85xlCxuzhTB0n-1">
          <mxGeometry x="730" y="53.5" width="140" height="110" as="geometry" />
        </mxCell>
        <mxCell id="8FwYc5gDEcMG10lrLWLe-12" value="DE - Design Parameters&lt;br&gt;(objective, design, observered)" style="rounded=0;whiteSpace=wrap;html=1;fontFamily=Oswald;fontSource=https%3A%2F%2Ffonts.googleapis.com%2Fcss%3Ffamily%3DOswald;align=center;verticalAlign=top;sketch=0;shadow=1;perimeterSpacing=0;" vertex="1" parent="8FwYc5gDEcMG10lrLWLe-11">
          <mxGeometry width="140" height="110" as="geometry" />
        </mxCell>
        <mxCell id="8FwYc5gDEcMG10lrLWLe-17" value="Mechanical" style="shape=document;whiteSpace=wrap;html=1;boundedLbl=1;shadow=1;sketch=0;fontFamily=Oswald;fontSource=https%3A%2F%2Ffonts.googleapis.com%2Fcss%3Ffamily%3DOswald;fontSize=10;fontColor=#330000;strokeColor=default;strokeWidth=1;fillColor=#FFFFCC;" vertex="1" parent="8FwYc5gDEcMG10lrLWLe-11">
          <mxGeometry x="19.00153846153846" y="43" width="56.76923076923077" height="24" as="geometry" />
        </mxCell>
        <mxCell id="8FwYc5gDEcMG10lrLWLe-18" value="Electrical" style="shape=document;whiteSpace=wrap;html=1;boundedLbl=1;shadow=1;sketch=0;fontFamily=Oswald;fontSource=https%3A%2F%2Ffonts.googleapis.com%2Fcss%3Ffamily%3DOswald;fontSize=10;fontColor=#330000;strokeColor=default;strokeWidth=1;fillColor=#FFFFCC;" vertex="1" parent="8FwYc5gDEcMG10lrLWLe-11">
          <mxGeometry x="59.004615384615384" y="76.5" width="56.76923076923077" height="24" as="geometry" />
        </mxCell>
        <mxCell id="8FwYc5gDEcMG10lrLWLe-24" value="" style="group" vertex="1" connectable="0" parent="_pjIIJH85xlCxuzhTB0n-1">
          <mxGeometry x="313" y="719.5" width="50" height="78" as="geometry" />
        </mxCell>
        <mxCell id="8FwYc5gDEcMG10lrLWLe-21" value="" style="sketch=0;html=1;dashed=0;whitespace=wrap;fillColor=#2875E2;strokeColor=#ffffff;points=[[0.005,0.63,0],[0.1,0.2,0],[0.9,0.2,0],[0.5,0,0],[0.995,0.63,0],[0.72,0.99,0],[0.5,1,0],[0.28,0.99,0]];shape=mxgraph.kubernetes.icon;prIcon=api;shadow=1;fontFamily=Oswald;fontSource=https%3A%2F%2Ffonts.googleapis.com%2Fcss%3Ffamily%3DOswald;fontSize=10;fontColor=#330000;" vertex="1" parent="8FwYc5gDEcMG10lrLWLe-24">
          <mxGeometry width="50" height="48" as="geometry" />
        </mxCell>
        <mxCell id="8FwYc5gDEcMG10lrLWLe-22" value="&lt;span style=&quot;color: rgb(51 , 0 , 0) ; font-family: &amp;#34;oswald&amp;#34; ; font-size: 10px ; font-style: normal ; font-weight: 400 ; letter-spacing: normal ; text-align: center ; text-indent: 0px ; text-transform: none ; word-spacing: 0px ; background-color: rgb(248 , 249 , 250) ; display: inline ; float: none&quot;&gt;API&lt;/span&gt;" style="text;whiteSpace=wrap;html=1;fontSize=10;fontFamily=Oswald;fontColor=#330000;" vertex="1" parent="8FwYc5gDEcMG10lrLWLe-24">
          <mxGeometry x="15" y="48" width="20" height="30" as="geometry" />
        </mxCell>
        <mxCell id="8FwYc5gDEcMG10lrLWLe-25" value="" style="group" vertex="1" connectable="0" parent="_pjIIJH85xlCxuzhTB0n-1">
          <mxGeometry x="774" y="708.5" width="80" height="61.5" as="geometry" />
        </mxCell>
        <mxCell id="8FwYc5gDEcMG10lrLWLe-10" value="Connectors&lt;br style=&quot;font-size: 10px;&quot;&gt;---" style="shape=offPageConnector;whiteSpace=wrap;html=1;shadow=1;sketch=0;fontFamily=Oswald;fontSource=https%3A%2F%2Ffonts.googleapis.com%2Fcss%3Ffamily%3DOswald;fontSize=10;fontColor=#330000;strokeColor=default;strokeWidth=2;fillColor=#FFFFCC;size=0.4578313253012048;" vertex="1" parent="8FwYc5gDEcMG10lrLWLe-25">
          <mxGeometry width="60" height="41.5" as="geometry" />
        </mxCell>
        <mxCell id="8FwYc5gDEcMG10lrLWLe-19" value="Connectors&lt;br style=&quot;font-size: 10px;&quot;&gt;---" style="shape=offPageConnector;whiteSpace=wrap;html=1;shadow=1;sketch=0;fontFamily=Oswald;fontSource=https%3A%2F%2Ffonts.googleapis.com%2Fcss%3Ffamily%3DOswald;fontSize=10;fontColor=#330000;strokeColor=default;strokeWidth=2;fillColor=#FFFFCC;size=0.4578313253012048;" vertex="1" parent="8FwYc5gDEcMG10lrLWLe-25">
          <mxGeometry x="10" y="10" width="60" height="41.5" as="geometry" />
        </mxCell>
        <mxCell id="8FwYc5gDEcMG10lrLWLe-20" value="Connector&lt;br style=&quot;font-size: 10px&quot;&gt;---" style="shape=offPageConnector;whiteSpace=wrap;html=1;shadow=1;sketch=0;fontFamily=Oswald;fontSource=https%3A%2F%2Ffonts.googleapis.com%2Fcss%3Ffamily%3DOswald;fontSize=10;fontColor=#330000;strokeColor=default;strokeWidth=2;fillColor=#FFFFCC;size=0.4578313253012048;" vertex="1" parent="8FwYc5gDEcMG10lrLWLe-25">
          <mxGeometry x="20" y="20" width="60" height="41.5" as="geometry" />
        </mxCell>
      </root>
    </mxGraphModel>
  </diagram>
  <diagram id="QmNJRo_bhYjgbNl0HmRs" name="ma-system">
    <mxGraphModel grid="1" page="1" gridSize="10" guides="1" tooltips="1" connect="1" arrows="1" fold="1" pageScale="1" pageWidth="1100" pageHeight="850" math="0" shadow="0">
      <root>
        <mxCell id="50n9XzaUPXyIrxFWQxz3-0" />
        <mxCell id="50n9XzaUPXyIrxFWQxz3-1" parent="50n9XzaUPXyIrxFWQxz3-0" />
        <mxCell id="hYMgk62euL2cY3u_tOm_-0" style="edgeStyle=orthogonalEdgeStyle;rounded=0;orthogonalLoop=1;jettySize=auto;html=1;entryX=0.5;entryY=0;entryDx=0;entryDy=0;fontFamily=Oswald;fontSource=https%3A%2F%2Ffonts.googleapis.com%2Fcss%3Ffamily%3DOswald;" edge="1" parent="50n9XzaUPXyIrxFWQxz3-1" source="hYMgk62euL2cY3u_tOm_-1" target="hYMgk62euL2cY3u_tOm_-3">
          <mxGeometry relative="1" as="geometry">
            <Array as="points">
              <mxPoint x="409" y="155" />
              <mxPoint x="655" y="155" />
            </Array>
          </mxGeometry>
        </mxCell>
        <mxCell id="hYMgk62euL2cY3u_tOm_-1" value="Sentinel" style="shape=image;verticalLabelPosition=middle;labelBackgroundColor=#ffffff;verticalAlign=middle;aspect=fixed;imageAspect=0;image=data:image/png,iVBORw0KGgoAAAANSUhEUgAAAgAAAAIACAYAAAD0eNT6AAAABHNCSVQICAgIfAhkiAAAAAlwSFlzAAALEwAACxMBAJqcGAAAIABJREFUeJzt3Xu03WV95/H3SU5CgBAiEOQqAeSSBMJFQAYClUtREF21gtqKFJ3Rzsg446Jop7rsqHScTpUl6gx0FZ1qWx2hIM7UglQQK4RQwIJcAnhJQrgFSCL3mNs588ezj2wO57bP2b/f99m/5/1a67sSkhN+3/3sy/PZz+8GkiRJkiRJkiRJkiRJkiRJkiRJkiRJkiRJkiRJkiRJkiRJkiRJkiRJkiRJkiRJkiRJkiRJkiRJkiRJkiRJkiRJkiRJkiRJkiRJkiRJkiRJkiRJkiRJkiRJkiRJkiRJkiSNry+6AWAwugFJkgKEzsHTIjcuSZJiGAAkSSqQAUCSpAIZACRJKpABQJKkAhkAJEkqkAFAkqQCGQAkSSqQAUCSpAIZACRJKpABQJKkAhkAJEkqkAFAkqQCGQAkSSqQAUCSpAIZACRJKpABQJKkAhkAJEkqkAFAkqQCGQAkSSqQAUCSpAIZACRJKpABQJKkAhkAJEkqkAFAkqQCGQAkSSqQAUCSpAIZACRJKpABQJKkAhkAJEkqkAFAkqQCGQAkSSqQAUCSpAIZACRJKpABQJKkAhkAJEkqkAFAkqQCGQAkSSqQAUCSpAIZACRJKpABQJKkAhkAJEkqkAFAkqQCGQAkSSqQAUCSpAIZACRJKpABQJKkAhkAJEkqkAFAkqQCGQAkSSqQAUCSpAIZACRJKpABQJKkAhkAJEkqkAFAkqQCGQAkSSqQAUCSpAIZACRJKpABQJKkAhkAJEkqkAFAkqQCGQAkSSqQAUCSpAL1RzeQgb7oBoINRjcgSaqfKwCSJBXIACBJUoEMAJIkFcgAIElSgQwAkiQVyAAgSVKBDACSJBXIACBJUoEMAJIkFcgAIElSgQwAkiQVyAAgSVKBDACSJBXIACBJUoEMAJIkFcgAIElSgQwAkiQVyAAgSVKBDACSJBXIACBJUoEMAJIkFcgAIElSgQwAkiQVyAAgSVKBDACSJBXIACBJUoEMAJIkFcgAIElSgQwAkiQVyAAgSVKBDACSJBWoP7qBDAxGNyBJUt1cAZAkqUAGAEmSCmQAkCSpQAYASZIKZACQJKlABgBJkgpkAJAkqUAGAEmSCmQAkCSpQAYASZIKZACQJKlABgBJkgpkAJAkqUAGAEmSCmQAkCSpQAYASZIKZACQJKlABgBJkgpkAJAkqUAGAEmSCmQAkCSpQAYASZIKZACQJKlABgBJkgpkAJAkqUAGAEmSCmQAkCSpQAYASZIKZACQJKlABgBJkgpkAJAkqUB90Q1kYDB4+z4Hkkrl528gVwAkSSqQAUCSpAIZACRJKpABQJKkAhkAJEkqkAFAkqQCGQAkSSqQAUCSpAIZACRJKpABQJKkAhkAJEkqkAFAkqQCGQAkSSqQAUCSpAIZACRJKpABQJKkAhkAJEkqkAFAkqQCGQAkSSqQAUCSpAIZACRJKpABQJKkAhkAJEkqkAFAkqQCGQAkSSqQAUCSpAIZACRJKpABQJKkAhkAJEkqkAFAkqQCGQAkSSpQX3QDwGB0A5IkBQidg10BkCSpQAYASZIKZACQJKlABgBJkgpkAJAkqUAGAEmSCmQAkCSpQAYASZIKZACQJKlABgBJkgpkAJAkqUAGAEmSCmQAkCSpQAYASZIKZACQJKlABgBJkgpkAJAkqUAGAEmSCmQAkCSpQAYASZIKZACQJKlABgBJkgpkAJAkqUAGAEmSCmQAkCSpQAYASZIKZACQJKlABgBJkgpkAJAkqUAGAEmSCmQAkCSpQAYASZIKZACQJKlABgBJkgpkAJAkqUAGAEmSCmQAkCSpQAYASZIKZACQJKlABgBJkgpkAJAkqUAGAEmSCmQAkCSpQAYASZIKZACQJKlABgBJkgpkAJAkqUAGAEmSCmQAkCSpQAYASZIKZACQJKlABgBJkgpkAJAkqUAGAEmSCmQAkCSpQAYASZIKZACQJKlABgBJkgpkAJAkqUAGAEmSCmQAkCSpQAYASZIKZACQJKlA/dENZKAvuoFgg9ENSJLqZwCQpPwNABuH1abW380EthlWru5qXAYASYrza2AVsLL16ypgDbAWWNf6dS3wbIf/3x2BXYbVa4H5wL6tmk8KCypUDsvf0UvQOYxBpOjxl0qwEVgO3NNWy4EniHsP9gF7AAuBxW21kLSqoOqFzj85TH7RE1AOYxApevylJnoYWArc0vp1ObAltKOJ6wcOAY4HlrR+3Tu0o+YyAARvP4cxiBQ9/lITrAG+D1wP3Aw8FttO1+0NnAi8uVW7xrbTGAaA4O3nMAaRosdf6kUDwDLgWuA64G7KeS/1AUcCpwNnAMfi5+hkGQCCt5/DGESKHn+pVwwCtwJXAFeR9t8L9gLOBt4NvDG4l15jAAjefg5jECl6/KXc3Qt8A7gSeCS4l9zNB94FnAcsCO2kNxgAgrefwxhEih5/KUcvkr7pXw7cFtxLr1oCfJC0OrBtcC+5MgAEbz+HMYgUPf5STpYDXwG+BTwX3EtTzAXOAT4CHBjcS24MAMHbz2EMIkWPv5SDHwIXkw7o8z1RjT7g7cAfAScE95ILA0Dw9nMYg0jR4y9F2Upa5v8CcFdwL6U5BrgQOIuyP4MNAMHbz2EMIkWPv1S3QdLE/2ngodhWincI8FngHdGNBDEABG8/hzGIFD3+Up2uAf4UuC+6Eb3CkaQg8NboRmpmAAjefg5jECl6/KU6LAU+CtwZ3YjGdBxwCXB0dCM1CZ1/vGWkpCZbDbyHdEqak3/+biVdTOg8vNBS5XL49hv9DTSHMYgUPf5SFTYAfw58vvV79Z7ZwCeAC2jubYvdBRC8/RzGIFL0+EvddiPwIWBFdCPqigWkCzIdH91IBdwFIEld8CvgA8CpOPk3yQOk6wacDzwf3Euj5PDtN/obaA5jECl6/KVuuJo0QTwZ3YgqtRfwlzTnbAFXACRpkp4nHTB2Fk7+JXgUOBP4MM04tuM1kRs3AEjqVbcBR5Du1KeyXAa8Abg7upEp+haFz8ODwVW66PG3rE5rK+miMf2odDNJl3IeIP51Odn6s66PSg+JHvzSRY+/ZXVS64DTkF7pHaS7N0a/PidTAwQd05DDAXCDwdvPYQwiRY+/NFF3Ab8LrAruQ3k6iHSp5wXRjUzCetLurNV1brTofQ+SesY3SJeJXRXch/L1EOkug1dFNzIJO5FuUFXcbq3o5ZfSRY+/ZY1VA6T7x0ud+DTxr93J1OcqGIusRQ946aLH37JGq5eAdyJNzrnAJuJfx53UVuCkKgZjJDns/x4M3n4OYxApevylkTwNvJ10qp80WSeTLhI1N7qRDjwKHAo8U/WGPAZAUm5+CRyLk7+m7oekewg8Gt1IB/YCLq1jQzl8+43+BprDGESKHn+p3XLStfy9FezI+kjnvveTjo+A9EVuCy8vd+vV5pNuErVfcB+deBfw91VuIIfJzxesJEin+Z0GrI1uJND2wGLgENJpbfNJ3wh3Ix0pPpvRP7cHgRdI10pYQ/rWu4p0dPx9wL3Ai5V1nr89gBvondMEnwYWUuH7wQAgKQfLgNOBZ6MbqdnOwCmkA7+WkD7wq9o1O0AKArcAN5G+Ef+qom3lah5wPemc+15wBfCeqv7nBgBJ0ZaRvvm/EN1ITfYiLe++k3SsQ9SxWFuBpcB3gCspZ7fLXFIAOjy6kQl6G/C96CaqEn3ahWVZcfWv9NYR2pM1k/RN7gbSxBs97sNrC3AdKZSUcDGaecADxI/7RGo1sEM1wxAvenAty4qp+4FdaLa5wCeBx4kf74nWI8DHaPCk07IH6YyT6PGeSH2xojEIFz2wlmXVX78Adqe55gCfIR3TED3Wk631pPCyfZfHJifzSYEneqzHqy3AYdUMQazogbUsq956it46HasT04EPkx5j9Dh3qx4H3k8ex4xVYRHpojvR4zxeLaWBz0H0oFqWVV+9RDrwrYmOJp3KGD3GVdUy0umJTXQKvXHZ4HOqGoAo0QNqWVY9tZV0O9+mmQH8d9IybfQYV12bSLsFpndl5PLyfuLHd7x6lIbtkokeUMuy6qkm3tVvf+BO4se27vox6XTGprmI+LEdry6q7NEHiB5My7Kqr6/TPGfSG/uOq6ongTdNdRAz0wdcQ/zYjlUvks5gaITowbQsq9r6V2AWzXIBeZ7PX3dtAj4wxbHMzRzgQeLHdqz6WmWPvmbRA2lZVnW1jnSqVZN8nvhxza0+OaURzc9C4Hnix3W02kLv3NNgTNEDaVlWNbWVdInfpugDLiN+XHOtP5v80GbpbOLHdKy6urqHXp/oQbQsq5r6LM3yJeLHNPf61KRHN09fIX5Mx6qjqnvo9YgeQMuyul/LaNY15T9J/Jj2Sv3hJMc4R7NId1CMHtPRako3CcrhqkKD0Q1I6qrnSXdaWxHdSJecTbotaw6fl71gC3AG8IPoRrrkUOAOYJvoRkZxNOlU1I5F3YZSUnP9J5oz+S8C/hon/070A98G9olupEvuBf5LdBNjmPRulxxe1K4ASM1xNXBWdBNdsi3pm9+i6EZ61G3ACaQVgV7XB/wTcGp0IyMYBBaTdlV0xBUASd3yK+D86Ca66HM4+U/FseT9zbkTg8CHSBfhyU0fkxxnVwAkdcu/Bf53dBNdcgzpQEa/JE3NJtJtbB+MbqRLLgAujm5iBFtIl6Ve3ck/8sUtqRtupDmT/zTgUvx87IaZwP+KbqKLvkTaLZSbftKxNx1xBUDSVG0g3Sa2KQf+/XvSBX/UPWcDV0U30SWLSUfdz4huZJjnSDdoen6i/8CEK2mq/pzmTP5zaN4FjHLwF6TVgCa4hzxXNeYA53XyDwwAkqZiNena+E1xITAvuokG2pd0EF1TfAZYG93ECM6ng5V9A4Ckqfg4aRdAE+wEfDS6iQb7BM25K+QzwJ9GNzGCg4BTJvrDBgBJk3UL6Qp5TfFRYIfoJhpsd5p16+C/Il0kKDcTvhSzBwFKmoxB0qlyk7oEaYa2Ax4hrQKoOiuAA4CB6Ea65FTyu+TxZtLBgE+N94OuAEiajGtozuQPcA5O/nXYD3hbdBNddAPwo+gmhpkB/MFEftAVAEmdGiBd3KXjS49m7G7SY1L1rgfeEt1EFy0Bbo5uYpj7SafmjskVAEmduoJmTf5H4eRfp9+mOTcKgnQszPXRTQyziPS6HpMBQFIntgKfjm6iy86LbmCSBujNfenTSLtcmmTSd+Sr0Lnj/UAOuwCiRe+C8DnQWO4HFkY30eabNOvDezrwOLBrdCOjWAfcCvyEdD39h0n9ruPlG9PMBnYmHWX/OmABcCRpaTrX4xomtETdY64FTo9uos2TwJ6k0K5RDAaXNJrDiH99Dq/DK33E9TuZ+DEdXltJQetEprZKOw14E2mXzUAGj2t4HTyFx5ajk4gf0+GV4+2LsxL9BEmj+W/Evz7b68ZqH26ILxE/ru31U9K15rvtGOBnGTy+9vrjCh5ntDuJH9f2urzah9v7op8gaTQPEv/6bK+clje75efEj+tQ/QDYvsLH+hrg9gwe51D9c4WPNcrvET+u7fU0aTeXRhH9BEkjOYT412Z7Nemo/yH7ET+uQ3Un6WJEVdsZ+EXA4xupNtO8Ky/2A6uIH9v2Omm0Zj0LQMrT70Q3MMxXohuowKgfjDVbB7wDeKnGbeVw/4Z+0oGKTbIFuDS6iWHeEd1AzqLTmTSSnJZqX6B539QAvk782A4SE/Y+PIV+u1mfq/qBBtgV2ET82A7Vymofbm+LfnKk4XYjr6O2v1rtww2TwzEWUdeRn0a6kU304/9RxY8zylXEj217Ne2Uy66JfmKk4T5A/OuyvY6p9uGG2JE8QtZvVf1Ax/D7Y/RVVz1HM6+FchrxY9teH6/24fau6CdGGu5K4l+XQ3V3xY81yonEj+3yyh/l2GaQ7hgXPQ6vr/qBBugjLb1Hj+1QjXgKrwcBSnmZTl4X7/hGdAMVOTS6AeDvgre/mXSRoGg5PBfdNgj8bXQTbZYwwimmBgApL0eRztfOwSBpNaKJFkQ3AHwnugHgu9ENkMdzUYUcwtWQmcAJw//QACDl5ZToBtrcAjwW3URFDgje/mrSQYjRbqae0w/HcmDw9qtyf6ty8arTXg0AUl5yOTcd8voG0237B2//R8HbH7KJdLOhSNHPRZVyeg+dPPwPDABSPmYAx0U30bKVdCpTE/UBewf3cFvw9tstC97+PsHbr1JOAeAI0p0jf8MAIOXjCOq5HOxE3Eq6nWgT7UraJxrpJ8Hbb3dX8PZ3p7lz0c/I5zLa04Fj2/+gqYMu9aKcLot6bXQDFdotePuD5LVvOLqXfmBecA9Vui66gTav+IwxAEj5yGX5H/L60Oq2XYO3/xjwYnAP7X5JuoZ9pOjnpEo5hWlXAKRMHTv+j9TicdJ96Ztqp+Dtrwze/nBbgUeCe4h+Tqq0FHg+uomWo9r/wwAg5WF3YM/oJlq+H91AxeYGbz/HUysfDd5+Lte+qMJm4IboJlp2pu2sCwOAlIejxv+R2lwf3UDFou9suCZ4+yN5Knj7c4K3X7Wc3lNHDv3GACDl4cjxf6Q2N0c3ULFXXRK1ZuuCtz+S9cHbnz3+j/S0nN5TRwz9xgAg5eGw6AZaVgJPRDdRsW2Dt5/L/uB2zwVvP/o5qdoDxIesIQYAKTO53BBlaXQDNYi+BsCG4O2P5NfB258VvP2qDRJ/xcUhhwz9xgAgxdsW2C+6iZZbohuoQX/w9qNPuRtJdE/Rz0kdcgnXe9E65sIAIMU7mHzei7l8SFUpeqz7grefo+nRDdQgp3C9EOLfCJLgoOgGWjaQ9lU23WDw9nP83I2egAeCt1+Hu4h/7Q05CPJ8IUqlyeV2qMtJF4Vpus3B298mePsjie4pehdEHV4EVkQ30fJ6MABIOXh9dAMtTb76X7uNwdvP5YZP7aKPwo9+TupyT3QDLQeAAUDKQS4HAOby4VS1l4K3n+NFb6IvjpTTvRGqlMt7bH8wAEg5mB/dQEsuH05Vi55soi9FPJLonqKfk7rk8h7bBwwAUrR+0n0AcrA8uoGaPBu8/Ryve79z8PajL0RUl+hbLw+ZB2yXw+kouRwVKZXsRXrzcqx+fpQthzmsE9uQzrbJoe+DXAGQBLAqugGpABvJ51LbexgAJEF+96iXmiqX95oBQBLgCoBUl1wCwG4GAElgAJDqkksA2MUAIAlgTXQDUiGejG6gxQAgCYC10Q1IhcjlvbazAUAS5POhJDVdLu+1HQ0AkiCfDyWp6Z6ObqBljgFAEhgApLrk8l7bwQAgaTPlXItdirY+uoGW7QwAkn4d3YBUkFxufTzLACAplw8kqQSDwKboJoBtDQCSDABSvXJ4z80wAEjK4cNIKkkO77npBgBJOSxHSiXJIQD0GwAkSSrPgAFA0szoBqTCbBPdALDRACAphw8jqSQ5vOcMAJKy+DCSSpLDe84AICmLDyOpFH3ksdttkwFA0qzoBqSC5BK4XQGQxAxg++gmpELsFN1AiwFAEgC7RDcgFWJedAMtGwwAksAAINUll/faegOAJMjnQ0lqulzea2sNAJIgn2VJqekMAJKy8troBqRC5PJeW2cAkAQwP7oBqRD7RjfQ4gqAJCCfDyWp6faLbqDFACAJMABIdcnlvba2L7oDYDC6AUm8RG9eDMjPj7LlMId1YhbpvZZD3we4AiAJYDtgt+gmpIabTx6T/wCw2gAgacjC6AakhlsU3UDLY3gzIEltFkc3IDVcLu+xVQAGAElDDotuQGq4XALASjAASHpZLh9OUlPl8h5bBQYASS9bCEyPbkJqqB3I5xRAVwAkvcIs8jlISWqaI8jjDACAB8EAIOmVjo9uQGqoXN5bg8B9YACQ9Eq5fEhJTbMkuoGWlcALYACQ9Eq5fEhJTdIHHBfdRMs9Q78xAEhqtw+wZ3QTUsMsAuZGN9FiAJA0qhOjG5Aa5oToBtrcO/QbA4Ck4d4c3YDUMG+JbqDNb1YAcjglwbt5SXlZA+xBb7w3e6FHVSeHOWw8M4F1wOzoRoBngJ1JNwNyBUDSq+wGHB7dhNQQJ5DH5A+wjNbkDwYASSM7PboBqSFyei8tbf8PA4CkkZwR3YDUENkGgBz2n7gPT8rPALAX8ER0I+Pw86NsOcxhY1kALI9uomUzsCOwYegPXAGQNJJpwLuim5B63LujG2hzF22TPxgAJI0upw8vqRfl9B5aOvwPDACSRnMs8LroJqQetRg4OLqJNjcO/wMDgKTR9OFuAGmycvr2vxG4afgfGgAkjeW86AakHjQNeF90E21+DLw0/A8NAJLGsoh87mIm9Yq3AHtHN9HmupH+0AAgaTwfim5A6jEfjG5gmBEDQA7nUHoer5S3l0j3Bng2upER+PlRthzmsOF2Ax4B+qMbaVkF7DvSX7gCIGk82wHnRDch9Yj3k8/kD/D90f4ih/Rkgpfy9xDpqma5vV9z60f1ymEOazcDWEG6imYuTgN+MNJfuAIgaSIOAs6MbkLK3HvIa/J/GvjhaH9pAJA0URdGNyBlLrf3yNXA1tH+0gAgaaJOBI6ObkLK1Gmkq//l5Iqx/tIAIKkTuX3DkXLxsegGhllDugDQqHI6UjFKbgeR1M2DqNSJs0gXB7o/uhEpI8cDp0Y3McxVpNt6j8oVAEmdmAZ8JroJKTMXRTcwgm+P9wM5fPuN/gaawxhEih5/9Z5B4A2k+4tH8/Vbthw+v09mhDvtBXsAWDjeD7kCIKlTfcBno5uQMpHjt/+vTeSHckhP0Qk+hzGIFD3+6l3HAcuCe/D1W7boz+8zgH8M7mG4TcCewNrxftAVAEmTdQnxH8BSlBnAxdFNjOC7TGDyBwOApMk7Bjg3ugkpyPnAwdFNjOCrE/3BHNJ79BJeDmMQKXr81dueAA4EXgjavq/fskV9fu8C/ByYG7T90awE9meC7wtXACRNxe7AJ6KbkGp2EflN/gCX0kEozuHbb3SCz2EMIkWPv3rfRuBw4MGAbfv6LVvE5/fRpINfpwdseyzPAXu3fp0QVwAkTdU2wOUYptV8/aR97LlN/pDegxOe/MEAIKk7lgD/IboJqWIfJ78b/gBsJp2V05EcEnv0El4OYxApevzVHM+R7hPwaI3b9PVbtjo/vw8EfgrMqnGbE/VN4JxO/5ErAJK6ZQ7wl9FNSBWYRlr6z3HyB/jCZP6RAUBSN70VdwWoef4YOCG6iVH8E3D3ZP5hDsvf0Ut4OYxBpOjxV/NsAI6knrMCfP2WrY7P76OAW0lX/svRscC/TOYf5jD5Rb+BcxiDSNHjr2a6G3gj6brkUq/annTXywOiGxnFPwJnTvYfuwtAUhUOBz4X3YQ0RV8m38l/EPhUdBNTNRhcpYsef6u5NQD8DlJvOo/499BYdfVUH2AOy9+DwdvPYQwiRY+/mu050k2DHopuROrAkcBS8j3qfwA4DLhvKv8TdwFIqtIc4DvA7OhGpAnaifTtOtfJH+AKpjj5gwFAUvUWAn8d3YQ0AdOA/wPMD+5jLBuAP+nG/8gAIKkOZwGfjm5CGsfFwGnRTYzjC8DD0U10S/SBFKWLHn+rrDoXKU8fIf79MV49Sjo1sTGiB7R00eNvlVWbgJOR8vJ2YCvx74/xquPr/Y8lhyPgB4O3n8MYRIoef5XnGeB4YHl0IxLwBuCfyf+b9W3AcXTxM9tjACTVbS5wPXkfaKUyHAxcS/6T/wDwn+nyFzYDgKQIewE3AHtEN6Ji7Ut6De4a3cgEXAbc3u3/aQ7L39FL0DmMQaTo8VfZHgBOBNZGN6Ki7AHcDOwX3cgEPAIsAp7v9v/YFQBJkRaQbmc6N7oRFWMe6Zt/L0z+kG6v3fXJHwwAkuIdAdxE+mCWqrQH6YC/BdGNTNAVpDv+VSKH5e/oJegcxiBS9PhLQx4ATgUej25EjbQvcGPr116wnhRUnqpqAzlMfk5AkoasAE4BVgX3oWY5mLTsv2d0Ix34A+BvqtyAuwAk5WQ/0sFZi6IbUWMMneffS5P/lVQ8+YMrAJLy9CzwTtKSrTRZbyPd3Cf38/zbPQIsJl0wq1KuAEjK0Y7AdcB5wX2od30E+C69NfkPAO+jhskfDACS8jWDdBvhi8hjtVK9YRpwCfBlem+O+wvS7opa5PCmcheApPF8l3RQ1HPRjShrOwPfIv9b+o7kTtK1/jfXtUEDgKRe8RDwu3gTIY3sCOA79OY9Jp4BjgJ+WedGe215RFK5DgL+BTg7uhFl5zzgVnpz8h+6zW+tkz8YACT1ltmkU6S+DMwK7kXxtge+RjpWpFdfDxdR4dX+xuIuAEm96j7g94F7oxtRiKOBbwIHRDcyBdcBZ5KO/q+dKwCSetUhwB2k+6Tn8GVG9ZgG/AmwlN6e/FcA7yVo8oc83jSuAEiaqhuADwEroxtRpQ4EvgqcEN3IFL0ILAHujmzCFQBJTXAqaVfABcD04F7Uff3AJ4Cf0vuT/1bgPQRP/uAKgKTmuQP4d8A90Y2oK44mfetfHN1Il3wE+J/RTYArAJKa52jSRVW+CMwN7kWTtwtwGbCM5kz+l5DJ5A+uAEhqtrXAp4DLSUuvyt8M4Hzgv9KsAHcNcBaBB/0NZwCQVIKh4wNuiG5EY3orcDHpok9NcjvwJmBDcB+v4C4ASSU4FPgB8EPg+OBe9Gonk07r+x7Nm/zvBU4ns8kfXAGQVKbrSbsG7ohupHDHk66Ed1J0IxX5OemshSejGxmJAUBSya4DPg/cFN1IYU4DPkY6fbOpHiZN/o9ENzIaA4AkwU9I+57/HtgS3EtTzQB+D/gjmnNU/2jWkCb/X0Q3MhYDgCS97GHgUuDrwFOxrTTGbsD7gQ8DewX3Uoe1pAP+7g/uY1wGAEl6tc3A/wP+inTwoJ9TnZlGOvDtg6Qj+/tj26nNE8Bv0wOTPxgAJGk8q4C/Aa4Alse2kr3FwLuB9wF7B/dSt9XAKWS+7N/OACBJE3c/KQhcAfwsuJdcLCBN+u8GDg7uJcpCOZUUAAAEFUlEQVTPSZN/tgf8jcQAIEmTcx/pLIJrSeewb45tpzYzSQe4nd6qhbHthLuPtOy/JrqRThkAJGnqniddZfB64GbgAZrz2dYHLCJN+m8hXbRndmhH+bidFILWRzcyGQYASeq+9cCtpJWBW4C7SPeA7wWzgSNJF+lZAvwb4DWhHeXpGuC9ZHiFv4kyAEhS9QaBFaRbFA/V/aQDDDcG9TQLmE/6dr+4rfYlj7khZ18ELiSjG/tMRg5PsgFAUqkGSaeOrWyrJ0nnkq8Fnm79up4UFMb7vOwDtgF2AuaRbqk7VK8F9iNN8PuSzs/PYQ7oJVuBj5LRLX2nIocn3wAgSROziRQEhgrShD9UM4P6KsGLpCsZ/kN0I91iAJAkaWwrgHcCd0c3Ikk5ew3wfVK4t6xer2tp6EGQ06MbkNQ4vwa+Rbr5yxLyWGmUOjVIulXxH9LDR/pLUpS3AuuI/xZnWZ3Ur4AzkSRNyeuAZcR/qFvWROoOYH8K4C4ASVV7FvgGaZfA8bhLQHkaAP4HcA7p1EtJUhedRLphSvS3PMtqr9XAbyFJqtRc0kGC0R/6ljVIurPjXCRJtTkbeIr4CcAqs9YB5yJJCjEP+Dbxk4FVVn0b2BVJUri34bEBVvW1Gk/vk6Ts7ABcAmwhfqKwmlVbga+QXmOSpEwdBiwlftKwmlHLgGOQJPWEPtL52I8SP4FYvVmPAu/F605IUk/annQ99heJn1Cs3qiXgM+SXjuSpB63J/A1PD7AGr22kq4vsQ+SpMZZCFxN/GRj5VMDpNfEIUiSGu8NwPeIn3ys2PoH4AgkScU5Cvi/pG+B0ZORVV9dD7wRSVLxDgH+FthM/ORkVVObgb8DDkeSpGFeB3yBdAvi6AnL6k4923pO90KSpHHsAPxH4EHiJzBrcrUCuBCYgyRJHeoDTgWuBDYRP6lZY9dG0u15T8UL+EiSumRX0jfK+4if6KxX1gPABcAuoz57kiR1wVHAl4A1xE9+pdYTpBv0HD/OcyVJUtdNJy03Xw48Tfyk2PR6CrgMeBMwbfynR5Kk6k0HTiKtDKwgfrJsSq0iTfqntsZYmfAgC0ka2SHAGcCbgSXAzNh2esZG4MfAda16MLYdjcYAIEnj2x44gbRCcBJwJH6bHbIZuAtYCtwI3ES6I58yZwCQpM7NBo4lHcB2LHA0sHNoR/V5BlhGmvBvAW4HNoR2pEkxAEhSd+xPWhk4gnS52kPp7avXDQIrgXtadW/r11+Q7r2gHmcAkKTqzAEWAAcBB7RqP2A+MC+urd8YAB4jHai3su3XB0nXS3ghqjFVzwAgSTG2I60Q7NGq3UgXwtmFtDthDrAj6bLG2wGzgG2BGaTjD/pJE/jGttrU9vsNwHpgbavWtf1+LfAIsLr1b1Sg/w82KFs+fluRkAAAAABJRU5ErkJggg==;labelPosition=left;align=right;fontFamily=Oswald;fontSource=https%3A%2F%2Ffonts.googleapis.com%2Fcss%3Ffamily%3DOswald;" vertex="1" parent="50n9XzaUPXyIrxFWQxz3-1">
          <mxGeometry x="378" y="204" width="62" height="62" as="geometry" />
        </mxCell>
        <mxCell id="hYMgk62euL2cY3u_tOm_-2" value="" style="group;align=center;fontFamily=Oswald;labelPosition=center;verticalLabelPosition=bottom;verticalAlign=top;fontSource=https%3A%2F%2Ffonts.googleapis.com%2Fcss%3Ffamily%3DOswald;" vertex="1" connectable="0" parent="50n9XzaUPXyIrxFWQxz3-1">
          <mxGeometry x="550" y="180" width="210" height="110.25" as="geometry" />
        </mxCell>
        <mxCell id="hYMgk62euL2cY3u_tOm_-3" value="CPS" style="rounded=1;whiteSpace=wrap;html=1;fontFamily=Oswald;fontSize=12;shadow=1;verticalAlign=top;align=center;fontStyle=1;fontSource=https%3A%2F%2Ffonts.googleapis.com%2Fcss%3Ffamily%3DOswald;" vertex="1" parent="hYMgk62euL2cY3u_tOm_-2">
          <mxGeometry width="210" height="110.00000000000001" as="geometry" />
        </mxCell>
        <mxCell id="hYMgk62euL2cY3u_tOm_-4" value="" style="shape=image;verticalLabelPosition=bottom;labelBackgroundColor=#ffffff;verticalAlign=top;aspect=fixed;imageAspect=0;image=data:image/png,iVBORw0KGgoAAAANSUhEUgAAAgAAAAIACAYAAAD0eNT6AAAABHNCSVQICAgIfAhkiAAAAAlwSFlzAAALEwAACxMBAJqcGAAAIABJREFUeJzt3Xu03WV95/H3yY0QblGCUkAMUAgkEC6CpRBsgQwCYpcXFB1RqWuqMzrMxVKndS07VtouZ6qrVjva5aUtvTBERZxWQSrIjNwU7OKaBGpNIhcJJETuIcTkzB/PPrpzONd99t7fZ/++79daz8rJyTl7f/Ps/fs9n/38fr/nB5IkSZIkSZIkSZIkSZIkSZIkSZIkSZIkSZIkSZIkSZIkSZIkSZIkSZIkSZIkSZIkSZIkSZIkSZIkSZIkSZIkSZIkSZIkSZIkSZIkSZIkSZIkSZIkSZIkSZIkSZIkSZIkTW4ougBgOLoASZIChI7BsyKfXJIkxTAASJKUkAFAkqSEDACSJCVkAJAkKSEDgCRJCRkAJElKyAAgSVJCBgBJkhIyAEiSlJABQJKkhAwAkiQlZACQJCkhA4AkSQkZACRJSsgAIElSQgYASZISMgBIkpSQAUCSpIQMAJIkJWQAkCQpIQOAJEkJGQAkSUrIACBJUkIGAEmSEjIASJKUkAFAkqSEDACSJCVkAJAkKSEDgCRJCRkAJElKyAAgSVJCBgBJkhIyAEiSlJABQJKkhAwAkiQlZACQJCkhA4AkSQkZACRJSsgAIElSQgYASZISMgBIkpSQAUCSpIQMAJIkJWQAkCQpIQOAJEkJGQAkSUrIACBJUkIGAEmSEjIASJKUkAFAkqSEDACSJCVkAJAkKSEDgCRJCRkAJElKyAAgSVJCBgBJkhIyAEiSlJABQJKkhAwAkiQlZACQJCkhA4AkSQkZACRJSmhOdAEVGIouINhwdAGSpP5zBkCSpIQMAJIkJWQAkCQpIQOAJEkJGQAkSUrIACBJUkIGAEmSEjIASJKUkAFAkqSEDACSJCVkAJAkKSEDgCRJCRkAJElKyAAgSVJCBgBJkhIyAEiSlJABQJKkhAwAkiQlZACQJCkhA4AkSQkZACRJSsgAIElSQgYASZISMgBIkpSQAUCSpIQMAJIkJWQAkCQpIQOAJEkJGQAkSUrIACBJUkIGAEmSEpoTXUAFhqMLkCSp35wBkCQpIQOAJEkJGQAkSUrIACBJUkIGAEmSEjIASJKUkAFAkqSEDACSJCVkAJAkKSEDgCRJCRkAJElKyAAgSVJCBgBJkhIyAEiSlJABQJKkhAwAkiQlZACQJCkhA4AkSQkZACRJSsgAIElSQgYASZISMgBIkpSQAUCSpIQMAJIkJWQAkCQpIQOAJEkJGQAkSUrIACBJUkIGAEmSEjIASJKUkAFAkqSEhqILqMBw8PP7GkjKyv1vIGcAJElKyAAgSVJCBgBJkhIyAEiSlJABQJKkhAwAkiQlZACQJCkhA4AkSQkZACRJSsgAIElSQgYASZISMgBIkpSQAUCSpIQMAJIkJWQAkCQpIQOAJEkJGQAkSUrIACBJUkIGAEmSEjIASJKUkAFAkqSEDACSJCVkAJAkKSEDgCRJCRkAJElKyAAgSVJCBgBJkhIyAEiSlJABQJKkhAwAkiQlZACQJCmhoegCgOHoAiRJChA6BjsDIElSQgYASZISMgBIkpSQAUCSpIQMAJIkJWQAkCQpIQOAJEkJGQAkSUrIACBJUkIGAEmSEjIASJKUkAFAkqSEDACSJCVkAJAkKSEDgCRJCRkAJElKyAAgSVJCBgBJkhIyAEiSlJABQJKkhAwAkiQlZACQJCkhA4AkSQkZACRJSsgAIElSQgYASZISMgBIkpSQAUCSpIQMAJIkJWQAkCQpIQOAJEkJGQAkSUrIACBJUkIGAEmSEjIASJKUkAFAkqSEDACSJCVkAJAkKSEDgCRJCRkAJElKyAAgSVJCBgBJkhIyAEiSlJABQJKkhAwAkiQlZACQJCkhA4AkSQkZACRJSsgAIElSQgYASZISMgBIkpSQAUCSpIQMAJIkJWQAkCQpIQOAJEkJGQAkSUrIACBJUkIGAEmSEjIASJKUkAFAkqSEDACSJCVkAJAkKSEDgCRJCc2JLqACQ9EFBBuOLkCS1H8GAEmq33bgeWBbW3uh9W/zgN3a2nxgbkCNGjAGAEmK8xywvtU2tNpGYPOo9uw0H3cPYFFb2w94ObAYOKTVFgMLZlS9BloN09/RU9A19EGk6P6XMngeWA3cBdzdamuARyOLAvYHlgLLgWNbfy6lzCKo90LHnxoGv+gBqIY+iBTd/1ITrQduBm5q/bkW2BFa0dTNBpYBp7baCuCVoRU1lwEg+Plr6INI0f0vNcFPgG8B1wI3Ao/EltN1BwKvAV4LnE05nKCZMwAEP38NfRApuv+lQbST8sn+auAaytR+FkPAccA5wLnAr+Il5Z0yAAQ/fw19ECm6/6VBMUyZ0l8FfJX44/e1OAB4C3ABcDLuU6fDABD8/DX0QaTo/pdqdxdwGfBl4OHgWmp3MPBW4CLKeQSamAEg+Plr6INI0f0v1ehZ4Arg88BtwbUMqlOA91ICwe7BtdTKABD8/DX0QaTo/pdqshr4DHA58HRwLU2xD3AhcDGwJLiW2hgAgp+/hj6IFN3/Ug2uBz5JOZPfbaI3hoDXA79NuaJABoDwja2GPogU3f9SlB2Uaf5PAHcG15LNScAlwPnkvoLAABD8/DX0QaTo/pf6bSflTP4/AO4PriW7ZcDHgDeSc19sAAh+/hr6IFJ0/0v9MgxcBfw+5Vi/6nE8JQicF11InxkAgp+/hj6IFN3/Uj/cBPxX4AfRhWhCpwCfohwiyCB0/Ml87EVS8z0AvA04DQf/QXAL8CuUdQSatpxydWr49Bv9CbSGPogU3f9SL2wFPg78SetrDZ49gQ8DHwR2C66lVzwEEPz8NfRBpOj+l7rtesoCNOuiC1FXHAV8gXJnwqbxEIAkdcFPgfcAK3Hwb5K1lEM4H8DFmbqqhk+/0Z9Aa+iDSNH9L3XDlZQBwhv0NNtBwF8Ar4supEucAZCkDj1NOWHsfBz8M3iIcqng+2nGuR0viXxyA4CkQfU9yvXjl0UXor77HPAqBn8Fx8tJPg4PB7fsovvfZptu20FZNGYOym4eZSnnncS/Lzttf9j1Xhkg0Z2fXXT/22zTaY8DZyHt6o3AU8S/PztpOwk6p6GGE+CGg5+/hj6IFN3/0lTdAbwJ2BBch+q0hLLU81HRhXRgC+Vw1gP9fNLUxx4kDYzLKMvEbgiuQ/W6H3g18NXoQjrwUsoNqtId1oqefskuuv9ttonaTsr946Xp+Cjx791O2h/3oC+qFt3h2UX3v802XnsOeDNSZ94FvED8+3g6bQdwei86Yyw1HP8eDn7+GvogUnT/S2PZBPwG5VI/qVNnUBaJWhhdyDQ8BBwDPNHrJ/IcAEm1+RFwMg7+mrnvUO4h8FB0IdNwEPDZfjxRDZ9+oz+B1tAHkaL7X2q3hrKWv7eCVTctptwk6tDgOqbjrcBXevkENQx+DkCSoFzmdxawObqQPore/+0OPB9cQ78cAFzH4FwmuAlYSg+3Bw8BSKrBrZSTnzIN/uqvnwC/Rgmag2A/4M97+QTOAEiKdivlk/8z0YUEiN7/ZZoBGLEQuAE4LrqQKXo98I1ePLABQFKkOyhnavf8jOdKRe//MgYAKJ+uvwscGV3IFDwILKPc+bKrPAQgKcoayif/rIO/4mwCzgTWRRcyBa+g3Pyq65wBkBThR8BpeLZ/9P4v6wzAiMXAjZRL72q2g3L747u6+aDOAEjqt02UT/7ZB3/F2wCcDTwZXMdkZlPWBujqh3YDgKR+2kpZ4W8Qpl6Vw2rKktPbowuZxCnAO7r5gAYASf2yE7gQV/hTfa4H3hddxBR8HNijWw9mAJDULx8CvhZdhDSOvwL+MLqISRwI/G63HsyTACX1w2XARdFFVCh6/5f9JMDRhigh9Q3RhUzgOeBwysJGM+IMgKReuwP499FFSFMwDLwbuD+6kAksAC7txgM5AyCpl7ZQLl/aEFxHraL3f84AjG0p8H1gz+hCxrGDcsvgtTN5EGcAJPXKTuDtOPhr8KwB3hNdxARm04XzFQwAknrlj4B/ii5C6tBX6PHNeGboTcCJM3kADwFI6oXvUVb6+1l0IZWL3v95CGBi84EfUNbir9E3gfM6/WUDgKRue5pypzUX+5lc9P7PADC5Y4Dbgd2iCxnHSZSQMm0eApDUbf8JB381xz108dr7HvhIp7/oDICkbroSOD+6iAESvf9zBmBqhijns6yMLmQMw8By4N7p/qIzAJK65afAB6KLkHpgGHgv8Gx0IWMYosMZCgOApG65BHg0ugipR9YDvx9dxDguAA6e7i8ZACR1w/XAX0YXIfXYn1FOCKzNHMq5N9PiOQCSZmorcDSe+NeJ6P2f5wBM33LKWfdzowsZ5SngIMpVOFPiDICkmfo4Dv7K427gf0UXMYa9meYNt5wBkDQTDwBHUmYBNH3R+z9nADqzEPghsCi6kFHuB45iiu8rZwAkzcSHcPBXPk9Q5wmBS4Azp/rDBgBJnboJWBVdhBTk85RFgmrzvqn+oIcAJHViGHg1HS5Bqp+L3v95CGBmVgLfji5ilO2UkwEfm+wHnQGQ1ImrcPCXrgP+b3QRo8wF3j2VH3QGQNJ07QSOpYOlR/Ui0fs/ZwBmbgVwY3QRo6ymXJo7IWcAJE3XKhz8pRE3AddGFzHKMuDEyX7IACBpOnYAH40uQqpMx3fk66F3RRcwCIaDmzSR1cS/R9vb3/X2v5tO9Os5v/f/xTSuJv71bG8bgdk9/R83QPSLJI3nWOLfn6PbcT39H+cT/XoaALrndOJfz9FtwtsXewhAqtdbowsY5TvAndFFSJW6Afjn6CJGuSC6gNpFJzRpPPcR//5sb+f09r+bUvRr6gxAd72d+Ne0vW3CwwATin6BpLEcTfx7s7151n9vRL+uBoDumgNsIP51bW+nj1eshwCkOr0huoBRPhNdgDQAfgZ8NrqIUd4YXUDNotOZNJbbiH9vjrRngL16+99NK/q1dQag+14GvED8azvS1o9XqDMAUn32ZwqLePTRFcDT0UVIA+Ix4B+ii2izmHFWBTQASPU5lzqW6R7x+egCpAFT2zZz7ljfNABI9Tk7uoA2d1EOR0iaum9TTgasxWvH+qYBQKrLbCZZvKPPLosuQBpAw8DfRhfRZgWwx+hvGgCkupwIvCS6iJZh4MvRRUgDalV0AW3mAaeN/qYBQKrLmdEFtLkJeDi6CGlArW61WrxoPQADgFSXcRftCFDTJxhpENW0DZ0x+hs1nWkcJfpafF8DjZgLPAEsiC6EctvfA4FHowtpuOj9z+7A88E1NNkRwP3RRbTsABZS1vUAnAGQanI8dQz+ALfg4C/N1L9QzzLas4GT279hAJDqsSK6gDZXRxcgNcQ10QW02WUfYwCQ6nFKdAFtatppSYOspjC9ywyAx5/jj8H5GmjEQ5Tj7tF+Qh11ZBC9//EcgN6bCzxOHffTeBxYNPIXZwCkOvwS9Qy634ouQGqQ7cB10UW07AscNvIXA4BUh5pu/nNtdAFSw9S0TZ0w8oUBQKrDCZP/SN/cGF2A1DA1bVPHj3xhAJDqcGx0AS3rgUeii5AaZi2wJbqIFgOAVJljogtouTm6AKmBhilra9Tg6JEvDABSvN2BQ6OLaLkpugCpoWoJ1wcBe4MBQKrBkdSzLdayk5KapqZwvRTq2elImS2JLqBlK+VYpaTuu4P4dR9GLAEDgFSDI6ILaFlDuWGIpO57FlgXXUTLL4MBQKrBL0cX0HJXdAFSw90dXUDL4WAAkGpQywmAteycpKaqZRs7DAwAUg0WRxfQUsvOSWqqWraxV4IBQIo2h3IfgBqsiS5AarjV0QW07AcsqOFOdLWcFSll9iywZ8Dzuv0rUr/HwN0oV9vUMPYucQZAEsCG6AKkBLZRz1LbBxgAJEG5B4Ck3qtlWzMASAKcAZD6pZYAsL8BQBIYAKR+qSUALDIASALYGF2AlMSj0QW0GAAkAbA5ugApiVq2tX0NAJKgnp2S1HS1bGv7GAAkQT07JanpNkUX0LK3AUASGACkfqllW9vLACBpO2UlQEm9tyW6gJYFBgBJz0cXICWyLbqAlvkGAEm17JCkDIaBF6KLAHY3AEgyAEj9VcM2N9cAIKmGnZGUSQ3b3GwDgKQapiOlTGoIAHMMAJIk5bPTACBpXnQBUjK7RRcAbDMASKphZyRlUsM2ZwCQVMXOSMqkhm3OACCpip2RlMUQdRx2e8EAIGl+dAFSIrUEbmcAJDEX2CO6CCmJl0YX0GIAkATAougCpCT2iy6gZasBQBIYAKR+qWVb22IAkAT17JSkpqtlW9tsAJAE9UxLSk1nAJBUlZdHFyAlUcu29rgBQBLA4ugCpCQOiS6gxRkASUA9OyWp6Q6NLqDFACAJMABI/VLLtrZ5KLoCYDi6AEk8R8xiQG7/itTvMXA+ZVurYew9fE50BZKqsADYH9jY5+etYUcYKToA7Q48H1xDJoup4z2/E3jAQwCSRiyNLkBquGXRBbQ8jDcDktRmeXQBUsPVso1tADAASBpxbHQBUsPVEgDWgwFA0i/UsnOSmqqWbWwDGAAk/cJSYHZ0EVJD7UU9lwA6AyBpF/Op5yQlqWmOp44rAADuAwOApF2dGl2A1FC1bFvDwL1gAJC0q1p2UlLTrIguoGU98AwYACTtqpadlNQkQ8Ap0UW03D3yhQFAUrtXAgdGFyE1zDJgYXQRLQYASeN6TXQBUsOcFl1Am3tGvjAASBrttdEFSA1zdnQBbX4+A1DDJQnRN8OQtKuNwAG4bfZDdB97M6Demwc8DuwZXQjwBLAv5WZAzgBIepH9geOii5Aa4jTqGPwBbqU1+IMBQNLYzokuQGqImralm9v/YgCQNJZzowuQGqLaAOA5AJLGshM4CHgkupCGi97/eQ5Abx0FrIkuomU7sA+wdeQbzgBIGsss4K3RRUgD7oLoAtrcQdvgDwYASeOraeclDaKatqGbR3/DACBpPCcDB0cXIQ2o5cCR0UW0uX70NwwAksYzhIcBpE7V9Ol/G3DD6G8aACRN5KLoAqQBNAt4Z3QRbb4LPDf6mwYASRNZRj13MZMGxdnAK6KLaHPNWN80AEiazHujC5AGzG9FFzDKmAHAdQAkTeY5yr0BnowupIGi93+uA9B9+wMPAnOiC2nZABwy1j84AyBpMguAC6OLkAbEb1LP4A/wrfH+wQAgaSoupo4ZQ6lmc4H3RxcxytfG+wcDgKSpWAKcF12EVLm3UZbQrsUm4Dvj/aMBQNJUXRJdgFS52raRK4Ed4/2jAUDSVL0GOCm6CKlSZ1FW/6vJqon+0QAgaTpq+4Qj1eJ3ogsYZSNlAaBx1XSmYpTsJzZFX4akwXI+ZXGg1dGFSBU5FVgZXcQoX6Xc1ntczgBImo5ZwB9EFyFV5tLoAsZwxWQ/UMOn3+hPoDX0QaTo/tfgGQZeRbm/uGYmevtzIaCZO4Mx7rQXbC2wdLIfcgZA0nQNAR+LLkKqRI2f/r80lR+q4dNvdAKuoQ8iRfe/BtcpwK3RRQy46O3PGYCZORf4ZnQRo7wAHAhsnuwHnQGQ1KlPYYBWXnOBT0YXMYavM4XBHwwAkjr3auBd0UVIQT4AHBldxBi+ONUfrCG9R0+B1dAHkaL7X4PtEeAI4JnoQgZU9PbnIYDOLAJ+CCyMLmSU9cBhTPF95QyApJn4JeDD0UVIfXYp9Q3+AJ9lGqGyhk+/0Qm4hj6IFN3/GnzbgOOA+6ILGUDR258zANN3EuXk19nRhYzyFPCK1p9T4gyApJnaDfgChmk13xzKMfbaBn8o2+CUB38wAEjqjhXAf4guQuqxD1HfDX8AtlOuypmWGhJ79BRYDX0QKbr/1RxPUe4T8FB0IQMkevvzEMDUHQHcBcyPLmQMfw9cON1fcgZAUrfsDfxFdBFSD8yiTP3XOPgDfKKTXzIASOqm1+GhADXPfwNOiy5iHP8E3NnJL9Yw/R09BVZDH0SK7n81z1bgBLwqYCqitz8PAUzuROAWysp/NToZ+H4nv+gMgKRu2x3438C86EKkGdoDuJx6B/9v0uHgDwYASb1xHPDH0UVIM/Rp4PDoIsYxDHxkJg9gAJDUKx8E3hBdhNShi4D3RBcxgauAO2byADUc/44+BlZDH0SK7n8121OUmwbdH11IpaK3P88BGNsJwM3Ue9b/TuBY4N6ZPIgzAJJ6aW/ga8Ce0YVIU/RS4ErqHfwBVjHDwR8MAJJ6bynwV9FFSFMwi3IC6+LgOiayFfi9bjyQAUBSP5wPfDS6CGkSnwTOii5iEp8AftyNB6rh+Hf0MbAa+iBSdP8rl3cDfxNdREWitz/PAfiFiyln/dfsYWAJ8Gw3HswZAEn99EXgjOgipFF+gw5uphPgd+nS4A91fPqNTsA19EGk6P5XPk8ApwJrogupQPT25wwAvAr4f5RFf2r2PeAUuviecQZAUr8tBK6l7hOtlMORwNXUP/jvBP4zXQ6MBgBJEQ4CrgMOiC5EaR1CeQ++LLqQKfgccFu3H7SG6e/oKbAa+iBSdP8rt7XAa4DN0YUEid7+sh4COAC4ETg0upApeBBYBjzd7Qd2BkBSpKMotzNdGF2I0tiP8sl/EAZ/KLfX7vrgDwYASfGOB26g7JilXjqAcsLfUdGFTNEqyh3/eqKG6e/oKbAa+iBSdP9LI9YCK4GfRBfSR9HbX6ZDAIcA17f+HARbKEHlsV49QQ2DX/QGIKke64AzgQ3BdahZjqRM+x8YXcg09HzRLA8BSKrJoZSTs5ZFF6LGGLnOf5AG/y/ThxUznQGQVKMngTdTpmylTr2ecnOf2q/zb/cgsJyyYFZPOQMgqUb7ANcAFwXXocF1MfB1Bmvw3wm8kz4M/mAAkFSvuZTbCF9KHbOVGgyzKOv6f5rBG+P+J+VwRV/UsFF5CEDSZL5OOSnqqehCVLV9gcup/5a+Y/kBZa3/7f16QgOApEFxP/AmvImQxnY88DUG8x4TTwAnAj/q55MO2vSIpLyWAN8H3hJdiKpzEXALgzn4DwMX0ufBHwwAkgbLnpRLpD4NzA+uRfH2AL5EOVdkUN8Pl9LD1f4m4iEASYPqXuDfAvdEF6IQJwF/DxweXcgMXAOcRzn7v++cAZA0qI4GbqfcJ72GDzPqj1nA7wE3M9iD/zrgHQQN/lDHRuMMgKSZug54L7A+uhD11BHAF4HToguZoWeBFcCdkUU4AyCpCVZSDgV8EJgdXIu6bw7wYeAuBn/w3wG8jeDBH5wBkNQ8twP/Drg7uhB1xUmUT/3LowvpkouBP48uApwBkNQ8J1EWVflTYGFwLercIuBzwK00Z/D/FJUM/uAMgKRm2wx8BPgCZepV9ZsLfAD47zQrwF0FnE/gSX+jGQAkZTByfsB10YVoQq8DPklZ9KlJbgN+HdgaXMcuPAQgKYNjgG8D3wFODa5FL3YG5bK+b9C8wf8e4BwqG/zBGQBJOV1LOTRwe3QhyZ1KWQnv9OhCeuSHlKsWHo0uZCwGAEmZXQP8CXBDdCHJnAX8DuXyzab6MWXwfzC6kPEYACQJ/ply7PkrwM+Ca2mqucDbgd+mOWf1j2cjZfD/1+hCJmIAkKRf+DHwWeCvgcdiS2mM/YHfBN4PHBRcSz9sppzwtzq4jkkZACTpxbYD/wB8nnLyoPup6ZlFOfHttyhn9s+JLadvHgH+DQMw+IMBQJImswH4G2AVsCa2lOotBy4A3gm8IriWfnsAOJPKp/3bGQAkaepWU4LAKuBfgmupxVGUQf8C4MjgWqL8kDL4V3vC31gMAJLUmXspVxFcTbmGfXtsOX0zj3KC2zmttjS2nHD3Uqb9N0YXMl0GAEmauacpqwxeC9wIrKU5+7YhYBll0D+bsmjPnqEV1eM2SgjaEl1IJwwAktR9W4BbKDMDNwF3UO4BPwj2BE6gLNKzAvhV4CWhFdXpKuAdVLjC31QZACSp94aBdZRbFI+01ZQTDLcF1TQfWEz5dL+8rR1CHWNDzf4UuISKbuzTiRpeZAOApKyGKZeOrW9rj1KuJd8MbGr9uYUSFCbbXw4BuwEvBfaj3FJ3pL0cOJQywB9CuT6/hjFgkOwA/gsV3dJ3Jmp48Q0AkjQ1L1CCwEiDMuCPtHlBdWXwLGUlw3+MLqRbDACSJE1sHfBm4M7oQiSpZi8BvkUJ9zbboLeraehJkLOjC5DUOM8Dl1Nu/rKCOmYapekaptyq+H0M8Jn+khTldcDjxH+Ks9mm034KnIckaUYOBm4lfqdus02l3Q4cRgIeApDUa08Cl1EOCZyKhwRUp53A/wAupFx6KUnqotMpN0yJ/pRns7W3B4BfQ5LUUwspJwlG7/RttmHKnR0XIknqm7cAjxE/ANhytseBdyFJCrEfcAXxg4EtV7sCeBmSpHCvx3MDbL1vD+DlfZJUnb2ATwE/I36gsDWr7QA+Q3mPSZIqdSxwM/GDhq0Z7Vbg1UiSBsIQ5Xrsh4gfQGyD2R4C3oHrTkjSQNqDsh77s8QPKLbBaM8BH6O8dyRJA+5A4Et4foBt/LaDsr7EK5EkNc5S4EriBxtbPW0n5T1xNJKkxnsV8A3iBx9bbPtH4HgkSemcCPwfyqfA6MHI1r92LfArSJLSOxr4W2A78YOTrTdtO/B3wHFIkjTKwcAnKLcgjh6wbN1pT7Ze04OQJGkSewH/EbiP+AHM1llbB1wC7I0kSdM0BKwEvgy8QPygZpu4baPcnnclLuAjSeqSl1E+Ud5L/EBn27WtBT4ILBr31ZMkqQtOBP4M2Ej84Je1PUK5Qc+pk7xWkiR13WzKdPMXgE3ED4pNb48BnwN+HZg1+csjSVLvzQZOp8wMrCN+sGxK20AZ9Fe2+liV8CQLSRrb0cC5wGuBFcC82HIGxjbgu8A1rXZfbDkajwFAkia3B3AaZYbgdOAE/DQ7YjtwB3AzcD1wA+WOfKqcAUCSpm9P4GTKCWwnAycB+4ZW1D9PALdSBvybgNuAraEVqSMGAEnqjsMoMwPHU5arPYbBXr1uGFgP3N1q97QXZ6z3AAAAeUlEQVT+/FfKvRc04AwAktQ7ewNHAUuAw1vtUGAxsF9cWT+3E3iYcqLe+rY/76Osl/BMVGHqPQOAJMVYQJkhOKDV9qcshLOIcjhhb2AfyrLGC4D5wO7AXMr5B3MoA/i2tvZC29dbgS3A5lZ7vO3rzcCDwAOt31FC/x+k6CDGbviRtQAAAABJRU5ErkJggg==;fontFamily=Oswald;fontSource=https%3A%2F%2Ffonts.googleapis.com%2Fcss%3Ffamily%3DOswald;" vertex="1" parent="hYMgk62euL2cY3u_tOm_-2">
          <mxGeometry x="77" y="27" width="59" height="59" as="geometry" />
        </mxCell>
        <mxCell id="hYMgk62euL2cY3u_tOm_-5" value="" style="shape=image;verticalLabelPosition=bottom;labelBackgroundColor=#ffffff;verticalAlign=top;aspect=fixed;imageAspect=0;image=data:image/png,iVBORw0KGgoAAAANSUhEUgAAAgAAAAIACAYAAAD0eNT6AAAABHNCSVQICAgIfAhkiAAAAAlwSFlzAAALEwAACxMBAJqcGAAAHo9JREFUeJzt3XuspHd93/H3ru8XiIMxxsWXY8c2tgNBaRLUhqoJ4RJuSdO05ILaRFGVtmml/tNKrZK2qpK2iEKBgFpyaRNCEtJGlSgiiUmb/lG1pMGYS8rFtQEbXAKOLxjjcvFt3T9m11k2O7t7zpmZ38w8r5f0ke3dtfw9z2PN5zvPzDxzIADYDgeqK6sbDv/1yuqy6mnVhdVTqnOrs6ozD/87D1cPVV+uPl/dW91T3Vl9qrq9uqW6o3p8NT/GahwYPQAA7NGl1fMO51urZ1fnL+m/9WD1kep91XsO54+W9N8CAI5yVvXS6k3Vbc2ekY/MrdUbq5ccng0AWJAzqu+tfq36YuNLf14eqN5WveLwzADAHlxbvba6u/HlvtvcVb2mumbhRwUAttSLqnc3vsQXkUPVjdULFnqEAGBLHKi+v/pQ40t7WflA9X2LOmAAsOle1qwcRxf0qnJz9d0LOXIAsIG+sfovjS/kUfmd6rp9H0UA2BDnVa+vHml8CY/OI83e6Hjuvo4oAKy5F/cnd9STP8knqxfu47gCwFo6p3pL44t23fPm6uw9HmMAWCvPaXYv/dHluin5SLNbGgPAxvqRZl+yM7pUNy1fql61h+MNAEOd1uxy9ugi3fS84fCxBIC1d36zj7iNLs9tybuafXICANbWJdUHG1+a25b3Vxfv4jwAwMpcXn288WW5rbm1uvSUzwYArMA3VJ9ufElue+6orjrFcwIAS3V5yn/VS4ArAQAMdUku+4/IrXlPAACDPKnt/vredc/N+XQAACt2enVj40tw6nlX7hMAwAq5yc/65PUnOVcAsBA/0vjSk6/ND53wjAHAPj0n9/Zfx3ypetYJzttxHdjtvwDAJJ1TfaC6bvQgHNdHqm+rvnqq/4I3DwBwKt5UvXT0EMz1tOrJ1btHDwLA9nhx4y9zy8lzqPquOefwT/ESAAAncl6zy8s7g+fg1Hyyenb1lZP9QS8BAHAir8ml/03ylGb3afi9k/1BVwAAmOeG6g+bFQqb45Fmnwq47UR/6OBqZgFgA70h5b+JzsgNggDYo5c1/k1tsr+86E+d1aN4CQCAYx2o3l998+hB2Jf3Vc+d95teAgDgWH855b8Nvq36nnm/6QoAAMf6ULPb/rL53l996/F+wxUAAI72opT/NvmW6vnH+w0LAABH+/ujB2Dh/sHxftFLAAAccW116+ghWLjHm53bTxz9i64AAHDEj48egKU4UP2N4/0iAJxR/VF10ehBWIq7qsuqR4/8gisAANTsfv/Kf3s9vdm3Oj7BAgBA1Q+MHoCl+5pz7CUAAM6u7q6eNHoQluoL1cXVw+UKAACzz4kr/+13QfUdR/7BAgDAS0cPwMo8ca4tAAC8ZPQArMwTC4D3AABM26XV/x09BCt1SXWXKwAA0/a80QOwcs8rLwEATJ0FYHosAAAc/6ti2WrPLe8BAJiyA9UXq/NHD8JKPVBd4AoAwHRdmfKfoq+rrrAAAEzXDaMHYJjrLQAA03Xl6AEY5koLAMB0WQCmywIAMGGXjR6AYbwHAGDCnjZ6AIa5yAIAMF0Xjh6AYZ5qAQCYrqeMHoBhLrQAAEzXuaMHYJhzLQAA03XW6AEY5ky3AgaYrsfynTBT9ZgTDzBdOmDCnHyA6Xp09AAM85AFAGC6vjp6AIaxAABM2IOjB2CYr1gAAKbrC6MHYJj7LAAA03XP6AEY5l4LAMB0fXb0AAxzjwUAYLo+M3oAhvm0BQBgum4fPQDD3GEBAJiuj48egGEsAAATdsvoARjmY74LAGDaPl99/eghWKkHqgtcAQCYtg+OHoCV+3D5LgCAKbuhumD0EKzcTWUBAJiiG6r/0OyZ4J8dPAur957RAwCwWkeK/7HqcZlsnh4Ak6D45Ug+2mGnB8C2uqH6p9Ur85IvMzce+RsLAMD2UfzM8+7RAwCweC71y4lyf3Vmh7kCALD5POPnVLyjevjIP1gAADaX4mc3fnP0AADsj0v9stt8tmOe9LsCALA5PONnr95aPTp6CAB2xzN+2U8OVVcFwMZQ/LKIvCsANoLil0XmOwJgrSl+WXRuCoC1pfhlWXl5AKwdxS/LzP8KgLVyfYpflp8XBMBauL76jRS/LD/vDIDhFL+sMg9VV3cS7gQIsDzXN7tz3w/kzn2szuuqT4weAmCKPOOXUbmtOjsAVkrxy8gcqr4zAFZG8cs65PUBsBKKX9YlH6rOCoClUvyyTnmw2f+TACyJ4pd1zF8NgKVQ/LKueW0ALJzinx/HZHzekftLACyU4p+fxw4fm+urf7QG80w1763ODYCFUPzzc3TxH+31azDb1PKx6qIA2DfFPz/ziv+IA9UvrMGcU8nt1TPmnAsATpHin5+TFf/RDlS/uAYzb3tur648hfMBwByKf352U/xHO1C9eQ3m39bckmf+AHum+Odnr8V/rH+6Bj/LtuWmvOYPsCfXVW9P8R8viyr+o/1Y9fAa/GzbkHfk3f4Au6b452cZxX+076zuXYOfc5Pz2nzOH2BXFP/8LLv4j7ZT3bzCn21b8mD1yt0fboDpUvzzs8riP9pZ1b/Z5+xTyofyxT4Ap0zxz8+o4j/W91Z3N/54rGsONbupkq/0BTgFin9+1qX4j3ZR9ZuNPzbrltuavWcCgJNQ/POzjsV/rL9U3dn4YzU6D1X/ojp7f4cTYPsp/vnZhOI/2rnVP6++0vhjNyLvrK7e91EE2HKKf342rfiPdXn11qZzbv+gesEiDhzANlP821v8x7q++vW291zfVL18YUcLYEsp/ukU/7G+odnHBv9f44/1fnOoelf1HQs9QgBbSPFPt/iP9XXV36v+d+OP/W7z2WZv7rtq4UcFYMsofsV/It9c/evW+5MD91e/VL2kOn05hwFgeyh+xb8bB6pvq366em/j/7/5aPW66oXVmUv8uQG2huJX/ItwQfWK6tXVf6s+3/LOyxeq/9HsSsT3V09fwc+3VAdGDwBMynXNvi/+B/MtZ8c61OwueT9d3TJ4lk12WbPl6ZpmX0Z0aXVJ9dTq66vzqnOqM5od84cO5yvVfc2+wfCe6tPVHYfzsWYvPwCwS57xn/gZ/9vzjB+ALfLMtvuz3Yso/uv2fHQBYM0ofsUPwIQofsUPwIQofsUPwIQofsUPwIQofsUPwIQofsUPwIQofsUPwIQofsUPwIQofsUPwIQofsUPwIQofsUPwIQofsUPwIQofsUPwIQofsUPwIQofsUPwIQofsUPwIQ8s/q16tHGF+26RfEDsHUUv+IHYEIUv+IHYEIUv+IHYEIUv+IHYEIU/4mL/9dT/ABsEcWv+AGYEMWv+AGYkGtT/IofgMlQ/IofgAlR/IofgAlR/IofgAlR/IofgAlR/IofgAlR/IofgAlR/IofgAlR/IofgAm5tvrVFP+Jiv+Zez66ALBmFL/iB2BCFL/iB2BCFL/iB2BCFL/iB2BCFL/iB2BCFL/iB2BCFL/iB2BCFL/iB2BCFL/iB2BCFL/iB2BCFP/8PNrsewwUPwBbQ/ErfgAmRPErfgAmRPErfgAmRPErfgAm5JoUv+IHYDKuqd6W4lf8AEyC4lf8AEyI4lf8AEyI4lf8AEyI4lf8AEyI4lf8AEyI4lf8AEyI4lf8AEyI4lf8AEyI4lf8AEyI4lf8AEyI4lf8wBo4MHqAJThQXVndcPivV1aXVU+rLqyeUp1bnVWdefjfeehwvlLdV91T3V19pvpk9YnqturTq/ohttA11T+pXlWdNniWdfNY9R+qn6luHTwLwMa4tPrB6k3V71cPtrxnaPdV/7V6dfU91ZNX8PNtOs/4PeMHWIizqpc2K/zbGv8A/t5mz9y+ZZk/9AZS/IofYN/OqL632YPmFxv/AD4vn67eUH3zcg7DRlD8ih9g366tXtvs9fjRD967zYeqv1d93cKPynpS/IofYN9eVL278Q/ci8gXqzdWVy30CK0PxX/i4v/VZossAHMcqL6/2TPn0Q/cy8hjzZ4FXrOoAzbY1dWvpPgVP8A+vKz6QOMfuFdVDm9t9tHETaT4FT/Avn1j9V8a/8A9Il+q/lmzexJsAsU/P4of4BSdV72+eqTxD96jc2f1iv0dzqVS/POj+AF24cXVHY1/8F63/EZ10T6O66Ip/vlR/AC7cE71lsY/eK9z7q5evtcDvCCKf34UP8AuPae6pfEP4JuSNzW74+EqKf75UfwAe/Aj1Zcb/yC+aXlfq/mkgOKfH8UPsAenVW9u/IP4JuePq7+42wN/ihT//Ch+gD06v/qdxj+Qb0Mern50d4f/hBT//Ch+gH24pPpg4x/Mty0/tZuTcByKf34UP8A+XV59vPEP6NuaN536qXiC4p8fxQ+wAN/Q7OtwRz+ob3ve0ux7E05G8c+P4gdYkMtT/qvMLzR/CVD886P4ARboklz2H5HXHXMeFP/8KH6ABXtS2/v1vZuQf5TiP1EUP8ASnF7d2PgH+alH8R//mCh+gCVxkx9Ztyh+gCX7kcY/2IscieIHWIHn5N7+sh5R/AArck6+1U/GR/EDrNi/bfyDv0w3j1Zvq64JgJV5ceMLQKYZxQ8wyHnVHY0vAplWFD/AYK9vfBnIdKL4AdbADdUjjS8F2f4ofoA18ruNLwbZ7ih+gDXzssaXg2xvFD/AGjpQfaDxJSHbF8UPsMa+v/FFIdsVxQ+wAXzNrywqih9gQ7yo8aUhmx/FD7Bh3t348pDNjeIH2EDXNr5AZDOj+AE2xOnH+bUfX/kUbLrHqrdXP1N9fPAsAOzBGdXdjX8mKZsRz/gBNtSxVwBeWl00YhA2imf8ABvu2AXgB4ZMwaZQ/ABb6Ozqi42/rCzrF5f6AbbM0VcAnl89adQgrCXP+AG21NELwEuHTcG6UfwAE3Jb4y81i0v9AKzQpY0vH1H8AKzIkZcAnjd0CkZxqR9goiwA03VT9ddS/ACTdPDwX7916BSM8IWUP8BkHTicL1bnD56F1bq7unj0EACMcbC6MuU/RU87HAAm6GB1w+ghGOb60QMAMMaRKwBM07WjBwBgDAvAtDn3ABN1sLps9BAMc/noAQAY42DeCDZlf2b0AACMcbC6cPQQDPPU0QMAMMbB6imjh2CYrx89AABjHKzOHT0Ewzxp9AAAjHGwOmv0EAxzzugBABjjQLNvhDt4sj/IVno85x5gkjz4A8AEHaweHj0Ewzj3ABN1sHpo9BAM89XRAwAwxsHqy6OHYJgHRw8AwBgHq8+PHoJh7h89AABjHKzuHT0Ew9wzegAAxjiYEpiyz40eAIAxDlZ3jh6CYZx7gIk6WH1q9BAMc/voAQAY42BKYMpuHT0AAGMcrG4ZPQTD/J/RAwAwxoHDeSDfDDc1f1w9ffQQAIxxsNkXwnxk9CCs3AdHDwDAOEe+DOh9Q6dghAur60YPAcAYRxaA9wydghG+rfpo9fYsAgCT9YxmLwXINPNYFgGAybq18UUkFgEAVuDgUX9/47ApWBcHqx/OSwMAW+/oBeDdw6Zg3VgEACbkrGb3Axh9GVrWL14aANgypx31949VN1TPGTQL6+tA9ezq7zRbAj6ar5EG2CqvaPyzTVn/uCIAsGXOqO5qfMHIZuSx6terZwbARjntmH8+VF1UPW/ALGyeo18aeGazlwbuGzoRAHt2TbNFYPSzS9m8uCIAsOFubHyZyObGIgCwoV7Q+BKRzY9FAGADfaDxBSLbEYsAwAb5vsYXh2xXLAIAG+LmxpeGbF8sAgBr7iWNLwvZ3lgEANaYTwTIsmMRAFhD11WPNL4kZPtjEQBYkWPvBHg891ZPrr59ybOAOwsCrJlzq082/hmiTCuuCACsgRc2vhBkmrEIACzYqbwEcMTt1VOr5y5pFpjHSwMAg53d7MF39DNCmXZcEQAY4NnVlxpfAiIWAYAVe1XjH/xFjsQiALBLu3kPwNE+XF1Q/bkFzgJ7deQ9Aj9RXZv3CAAs1WnVuxr/7G/qcZOmP51Hq1/LFQGApTmven/jH/Cnmn9YXVn9u+rhNZhn3WIRAFiii6tbG/9gP7W87pjzYBGYH4sAwJJcWt3R+Af6qeQtJzgXFoH5sQgALMFVWQJWkZ9r9qa3k7EIzI9FAGDBLs3LAcvMG079VDzBIjA/FgGABbq4urnxD+7blp/czUk4DovA/BxZBK7d89EFoJp9OsBHBBeTh6q/vrvDf0IWgfmxCAAswGnV6xv/oL7Jubv6C7s98KfIIjA/FgGABfjhfHfAXnJTddkejvduWQTmxyIAsE/Panb74NEP6JuSN1Zn7ulI751FYH4sAgD7cHb1s9Whxj+gr2vuql621wO8IBaB+bEIAOzDd1WfaPyD+brl7dWF+ziui2YRmB+LAMAenVO9JuXyePWp6uX7OprLZRGYH4sAwB49s/qtxj+Qj8iXqn/WbBnaBBaB+bEIAOzRi5u96330A/mqyuLfV89YyJFbPYuARQBg4b6n7b2L4KPVr7Y95WARmM65BliZ51e/3XZ8YuDB6k3NCnMb7VS/mEXAIgCwQFdXr64+1/gH893mg9XfrZ688KOynnayCFgEABbs9Gafj39rdX/jH9Dn5VPVa6vnLOMgbIidLAIWAYAlOLN6UbPvGbil8Q/of9Ds3fzfssSfeRPtZBGwCAAs0SXVX2m2EPzP6oGW98B9X/V71b9s9tn9r1vBz7fpdrIIWASAtXNg9ABLckV1fbM33l15+J8vqp7a7G575za7knBWdbB6pPpKs8/m31/d2+x9B5+p7qg+3uxqw2dW+UNsmZ3qp6ofrc4YO8raeaz6jepnqtsGzwIAS7GTKwKuCAAwWTtZBCwCAEzWThYBiwAAk7WTRcAiAMBk7WQRsAgAMFk7WQQsAgBM1k4WAYsAAJO1k0XAIgDAZO1kEbAIADBZO1kETrYIXLPXgwsA624ni8CJFoG3ZREAYIvtZBGwCAAwWTtZBCwCAEzWThYBiwAAk7WTRcAiAMBk7WQRsAgAMFk7WQQsAgBM1k4WAYsAAJO1k0XAIgDAZO1kEbAIADBZO1kELAIATNZOFgGLAACTtZNFwCIAwGTtZBGwCAAwWTtZBCwCAEzWThYBiwAAk7WTRcAiAMBk7WQRONEi8CvV1Xs9uACw7nayCFgEAJisK6pfyCJgEQBgkiwCFgEAJswiYBEAYMIsAhYBACbMImARAGDCLAIWAQAmzCJgEQBgwiwCFgEAJswiYBEAYMIsAhYBACbMImARAGDCLAIWAQAmzCJgEQBgwiwCFgEAJswiYBEAYMIsAideBN6aRQCALWYRsAgAMGEWAYsAABNmEbAIADBhFgGLAAATZhGwCAAwYRYBiwAAE2YROPki8A17PbgAsO4sAvPzSBYBALacRcAiAMCEWQQsAgBMmEXAIgDAhFkELAIATJhFwCIAwIRZBCwCAEyYRcAiAMCEWQQsAgBMmEXgxIvAL2cRAGCLWQQsAgBM2BXVz2cRsAiwNg6MHgCYlCuqn6x+rDpj8Czr5tHq16p/Xn1y8Cyb6kCz/8duaPYtjjvVZdUl1YXVBdX51dnVac0WsIerh6ovV5+v7q3uqe6sPlXdXt1S3XH4zwOwD64IuCKwCBdW31f9q+q/Vw+0vPPyxer3q5+tfqB6xgp+PoCtZRGwCOzGwerbq1dXH6wONfYc3Vq9sXpJddYSf26ArWURsAicyJ+r3lx9tvHnY14eqN5WvSIvbwHsmkXAInDEU6q/3+z199HHfre5q3pNdc3CjwrAlrMITHcRuLbZuf9y44/1fnOourF6wUKPEMAEWASmswg8q/qP1WONP7bLyAeavWERgF2wCGzvInBl9ettb/Efm5ur717IkQOYEIvA9iwC5zd7nfyrjT92I/I71XX7PooAE3NFFoF52YRF4JXVHzX+WI3OI9Vrq3P3dzgBpueKLAInKpdfbr0WgUuqdzb+2KxbPlm9cB/HFWCyrsgiMC/rsgi8srqv8cdjnfPmZrcpBmCXrsgiMC+jFoFzql/c5+xTykeqZ+/pSANgEThBjiwCV+356J66q6s/XPHPtw35UvWqPRxvAA67IovAvDxS/VLLWwReXN2/Bj/nJucNzb61EIA9uiKLwLwsYxH4iWZfbzz6Z9uGvKs6b3eHH4BjXZFFYF4WtQi8eg1+lm3L+6uLd3MSADi+y7MIzMteF4GDh4/p6Pm3NbdWl57y2QDghCwC87ObReBgs6/CHT3ztueOUzwfAJwii8D8nGwROFj9yhrMOZXckSsBAAtnEZifeYvAW9Zgtqnl1rwnAGApLALzc/Qi8NNrMM9Uc3M+HQCwNBaB+XlkDWaYet7VPu4T4AYDAPM9UP1Ws9e4z6u+KY+bRxwcPQBdWz2p+t29/Mv+RwY4OYsA6+rPN3tPwEdGDwIwBV4akHXKl6pnBcDKWARkXfLhdvlVwi5hAeydlwZYF0+rnly9e/QgAFPkioCMzKHquwJgGIuAjMonqnM6BS5VASyelwYY5SnV6dXvjR4EAFcEZLV5uNk9AgBYExYBWVV+KwDWzuXVz1UPNb4oZHvzogBYSxYBWWZu6gS8KQVgnCNvFnxbdW7eLMhiPaP6QHXb6EEAODFXBGTRuTkANoZFQBaZ53ccLjUBrB8vDbBIF1VvHz0EALvnioDsJ4eqqzuGjRJg/bkiwH4cqL5c/bfRgwCwP64IyG7zuWa3CH6CDRJg87giwG6dX723+viRX/A/DMDmsgiwG49W/3n0EAAsnpcG5ES5vzozALaWRUDm5YnvB3CpCGD7eGmAee6tfnf0EACshisCciS3BMDkWATk8erpVQcDYCrurP52dU3189XDY8dhkOeVBQBgio5eBN4zeBZWzwIAMHF3NrtFLNPy3JrdHxiA6bq3unD0EKzUA9UFFgCA6bqk+uzoIRhix0sAANN1w+gBGOZ6CwDAdF07egCGudICADBdV44egGEsAAATdtnoARjmCgsAwHT9mdEDMMxFFgCA6bpo9AAM81QLAMB0ff3oARjmQgsAwHSdP3oAhjnXAgAwXWePHoBhznQnQIDpenz0AAzzmCsAANN1aPQAjGMBAJiuh0cPwDAPWQAApuuh0QMwjAUAYMK+PHoAhvmKBQBguj4/egCGuc8CADBd944egGHutQAATNc9owdgmHssAADTdefoARjm0xYAgOn61OgBGOYOCwDAdN0+egCGsQAATNgtowdgmI/5LgCA6TpQPVA9afQgrNQD1QWuAABM1+PVR0YPwcp9uHwXAMDUvW/0AKzcTWUBAJi694wegJV7T81e/wFgup5RfWb0EKzUJdVdrgAATNsfVbeNHoKV+Vh1V3kJAIC6cfQArMwT59oCAMC7Rw/Ayjxxrr0HAICzqrurJ48ehKX6QnVx9XC5AgBAPVS9c/QQLN07Olz+ZQEAYOY3Rw/A0n3NOfYSAABVZ1T/t9klYrbP56rLq0eP/IIrAABUPVL9yughWJq3dlT5lysAAPyJa6pb0w3b5vHq6o75+mdXAAA44uPV744egoX77Y4p/7IAAPC1Xjd6ABbuuOfUZR4AjvWB6ptHD8FCvK967vF+47QVDwLA+vvj6odGD8FC/K1mL+38Ka4AAHA8N1ffMnoI9uUPqj8/7ze9BwCA4/nHowdg35xDAPbkxmYfIZPNy0lv7ewlAADmua76cHX66EHYlYerb6w+caI/5E2AAMxzb7NvCPz20YOwK6+p/tPJ/pArAACcyLnNrgJcNXoQTsnHq2+qvnqyP+hNgACcyJebfZSM9fd49Tc7hfIvLwEAcHK3V09tzg1lWBtvrH5+9BAAbJezq482/t3tcvx8qDpr7tkDgH14dvWlxpedfG0erK4/wXkDgH17VeMLT742f/WEZwwAFuQNjS89meW1JzlXALAwp1Xvanz5TT3vyKf5AFix86r3N74Ep5r3NrtHAwCs3MXVrY0vw6nlY9VFp3B+AGBpLq3uaHwpTiW3V884pTMDAEt2VZaAVZX/lad4TgBgJS7NywHLzC155g/Amrq4urnxZbltuSmv+QOw5s7LRwQXmXfk3f4AbIjTqtc3vjw3Pa/N5/wB2EA/nO8O2EserF65h+MNAGvjWdWHG1+qm5IP5Yt9ANgSZ1c/Wx1qfMGuaw41e9nEV/oCsHW+q/pE48t23XJb9Z17P6wAsP7OqV5TPdz44h2dh6p/0ewKCQBMwjOr32p8CY/KO6ur930UAWBDvbjZjW5GF/Kq8gfVCxZy5ABgC3xP230XwZuqly/saAHAlnl+9dttxycGDjW7K+J3LPQIAcAWu7p6dfW5xhf5bvPZZm/uu2rhRwUAJuL06mXVW6v7G1/u83J/9UvVSw7PDAAsyJnVi5rdMOeWxpf+R6vXVS88PNtGOTB6AADYo0uqb6+eVz23enb15CX9tx5odkvjm6r3VL9f3bWk/9ZKWAAA2CZXNLuX/pWHc0V1UfXU6sJmX617Zn9yy92HDucr1X3VvdU91aerOw7nY9WdK/sJVuT/A017GyVFs16vAAAAAElFTkSuQmCC;fontFamily=Oswald;fontSource=https%3A%2F%2Ffonts.googleapis.com%2Fcss%3Ffamily%3DOswald;" vertex="1" parent="hYMgk62euL2cY3u_tOm_-2">
          <mxGeometry x="145" y="32.75" width="47.5" height="47.5" as="geometry" />
        </mxCell>
        <mxCell id="hYMgk62euL2cY3u_tOm_-6" value="" style="shape=image;verticalLabelPosition=bottom;labelBackgroundColor=#ffffff;verticalAlign=top;aspect=fixed;imageAspect=0;image=data:image/png,iVBORw0KGgoAAAANSUhEUgAAAgAAAAIACAYAAAD0eNT6AAAABHNCSVQICAgIfAhkiAAAAAlwSFlzAAALEwAACxMBAJqcGAAACDxJREFUeJzt2NEJ3EAUBMGVUf4prxMw+O9G0FUJaEAgNe8cAAAAAAAAAAAAAAAAAAAAAAAAAAAAAAAAAAAAAAAAAAAAAAAAAAAAAAAAAAAAAAAAAAAAAAAAAAAAAAAAAAAA+L9nPeCcc9cDAGBg+g/+s3w4ALAhAAAgSAAAQJAAAIAgAQAAQQIAAIIEAAAECQAACBIAABAkAAAgSAAAQJAAAIAgAQAAQQIAAIIEAAAECQAACBIAABAkAAAgSAAAQJAAAIAgAQAAQQIAAIIEAAAECQAACBIAABAkAAAgSAAAQJAAAIAgAQAAQQIAAIIEAAAECQAACBIAABAkAAAgSAAAQJAAAIAgAQAAQQIAAIIEAAAECQAACBIAABAkAAAgSAAAQJAAAIAgAQAAQQIAAIIEAAAECQAACBIAABAkAAAgSAAAQJAAAIAgAQAAQQIAAIIEAAAECQAACBIAABAkAAAgSAAAQJAAAIAgAQAAQQIAAIIEAAAEvesBH/CsB4zd9QAAfs8FAACCBAAABAkAAAgSAAAQJAAAIEgAAECQAACAIAEAAEECAACCBAAABAkAAAgSAAAQJAAAIEgAAECQAACAIAEAAEECAACCBAAABAkAAAgSAAAQJAAAIEgAAECQAACAIAEAAEECAACCBAAABAkAAAgSAAAQJAAAIEgAAECQAACAoHc94APuegAA/JoLAAAECQAACBIAABAkAAAgSAAAQJAAAIAgAQAAQQIAAIIEAAAECQAACBIAABAkAAAgSAAAQJAAAIAgAQAAQQIAAIIEAAAECQAACBIAABAkAAAgSAAAQJAAAIAgAQAAQQIAAIIEAAAECQAACBIAABAkAAAgSAAAQJAAAIAgAQAAQc96wAfc8fO9A6DK93fIBQAAggQAAAQJAAAIEgAAECQAACBIAABAkAAAgCABAABBAgAAggQAAAQJAAAIEgAAECQAACBIAABAkAAAgCABAABBAgAAggQAAAQJAAAIEgAAECQAACBIAABAkAAAgCABAABBAgAAggQAAAQJAAAIEgAAECQAACBIAABAkAAAgKBnPeCcc9cDAGBg+g92AQCAIAEAAEECAACCBAAABAkAAAgSAAAQJAAAIEgAAECQAACAIAEAAEECAACCBAAABAkAAAgSAAAQJAAAIEgAAECQAACAIAEAAEECAACCBAAABAkAAAgSAAAQJAAAIEgAAECQAACAIAEAAEECAACCBAAABAkAAAgSAAAQJAAAIEgAAECQAACAIAEAAEECAACCBAAABAkAAAgSAAAQJAAAIEgAAECQAACAIAEAAEECAACCBAAABAkAAAgSAAAQJAAAIEgAAECQAACAIAEAAEECAACCBAAABAkAAAgSAAAQJAAAIEgAAECQAACAIAEAAEECAACCBAAABAkAAAgSAAAQJAAAIOhdD/iAZz1g7K4HAPB7LgAAECQAACBIAABAkAAAgCABAABBAgAAggQAAAQJAAAIEgAAECQAACBIAABAkAAAgCABAABBAgAAggQAAAQJAAAIEgAAECQAACBIAABAkAAAgCABAABBAgAAggQAAAQJAAAIEgAAECQAACBIAABAkAAAgCABAABBAgAAggQAAAS96wEfcNcDAODXXAAAIEgAAECQAACAIAEAAEECAACCBAAABAkAAAgSAAAQJAAAIEgAAECQAACAIAEAAEECAACCBAAABAkAAAgSAAAQJAAAIEgAAECQAACAIAEAAEECAACCBAAABAkAAAgSAAAQJAAAIEgAAECQAACAIAEAAEECAACCBAAABAkAAAh61gM+4I6f7x0AVb6/Qy4AABAkAAAgSAAAQJAAAIAgAQAAQQIAAIIEAAAECQAACBIAABAkAAAgSAAAQJAAAIAgAQAAQQIAAIIEAAAECQAACBIAABAkAAAgSAAAQJAAAIAgAQAAQQIAAIIEAAAECQAACBIAABAkAAAgSAAAQJAAAIAgAQAAQQIAAIIEAAAEPesB55y7HgAAA9N/sAsAAAQJAAAIEgAAECQAACBIAABAkAAAgCABAABBAgAAggQAAAQJAAAIEgAAECQAACBIAABAkAAAgCABAABBAgAAggQAAAQJAAAIEgAAECQAACBIAABAkAAAgCABAABBAgAAggQAAAQJAAAIEgAAECQAACBIAABAkAAAgCABAABBAgAAggQAAAQJAAAIEgAAECQAACBIAABAkAAAgCABAABBAgAAggQAAAQJAAAIEgAAECQAACBIAABAkAAAgCABAABBAgAAggQAAAQJAAAIEgAAECQAACBIAABAkAAAgCABAABBAgAAggQAAAQJAAAIEgAAECQAACBIAABAkAAAgCABAABB73rABzzrAWN3PQCA33MBAIAgAQAAQQIAAIIEAAAECQAACBIAABAkAAAgSAAAQJAAAIAgAQAAQQIAAIIEAAAECQAACBIAABAkAAAgSAAAQJAAAIAgAQAAQQIAAIIEAAAECQAACBIAABAkAAAgSAAAQJAAAIAgAQAAQQIAAIIEAAAECQAACBIAABAkAAAg6F0P+IC7HgAAv+YCAABBAgAAggQAAAQJAAAIEgAAECQAACBIAABAkAAAgCABAABBAgAAggQAAAQJAAAIEgAAECQAACBIAABAkAAAgCABAABBAgAAggQAAAQJAAAIEgAAECQAACBIAABAkAAAgCABAABBAgAAggQAAAQJAAAIEgAAECQAACBIAAAAAAAAAAAAAAAAAAAAAAAAAAAAAAAAAAAAAAAAAAAAAAAAAAAAAAAAAAAAAAAAAAAAAAAAAAAAAAAAAAAAAAAA8E9/AWuJEIUUortpAAAAAElFTkSuQmCC;fontFamily=Oswald;fontSource=https%3A%2F%2Ffonts.googleapis.com%2Fcss%3Ffamily%3DOswald;" vertex="1" parent="hYMgk62euL2cY3u_tOm_-2">
          <mxGeometry x="10" y="26.5" width="60" height="60" as="geometry" />
        </mxCell>
        <mxCell id="hYMgk62euL2cY3u_tOm_-7" value="&lt;div style=&quot;&quot;&gt;&lt;font&gt;&lt;span style=&quot;font-size: 11px ; background-color: rgb(255 , 255 , 255)&quot;&gt;Resilient Mode&lt;/span&gt;&lt;/font&gt;&lt;/div&gt;" style="text;whiteSpace=wrap;html=1;align=center;fontFamily=Oswald;fontSource=https%3A%2F%2Ffonts.googleapis.com%2Fcss%3Ffamily%3DOswald;" vertex="1" parent="hYMgk62euL2cY3u_tOm_-2">
          <mxGeometry x="21" y="80.25" width="120" height="30" as="geometry" />
        </mxCell>
        <mxCell id="hYMgk62euL2cY3u_tOm_-8" value="Reconfiguration&#xa;Controls" style="shape=image;verticalLabelPosition=middle;labelBackgroundColor=#ffffff;verticalAlign=middle;aspect=fixed;imageAspect=0;image=data:image/png,iVBORw0KGgoAAAANSUhEUgAAAGoAAABqCAYAAABUIcSXAAAJA0lEQVR4Ae2dbawdRRnHp8wzbYmU9u7MuS1QocZqYoiAxmAJBBJCUF5rglFqoiaioYlIglZiEwkY/UB4Cwk0aT8UktpCcuk9Z2dOuR8AU4hotLHRgjVaXtTUqwFt1ZK2VElr/nvOHo7bfT1nz+6es3OTzZ7dnZ15nv9vZnf22Zm9jNk/q4BVwCpgFbAKWAWsAlYBq4BVwCpgFbAKWAWsAlYBq4BVwCpgFbAKWAWsAlaBMhS4j7Ezdi6cukhzdWuL5N2G5I+w4Df24RjSlGFb7cuE8C5vXK+F87QhddiQOpWwHEZanGOhFVR9DFfrNMnfJ4CJBOedy9W6gsytXzGtxctWaZIvDgooeB7yQp71U3KEHmtyPqtJ/jMo9rDbyBN5j9D0+mTtcvUlTfK/w0KJOh95o4z6KDoCTzVXN4wSkg8PZaCsEbgw+VnqRY3VhtQRX8wC1kdQ5uQrm6OH6EIbUnsKgBPsHe6x3fcMIF2hbi8BkgcNZWcwtb5JZxhbqEn+pSxQKBs21JdASs9dLr9SFqReuVx+OaW59U3mknyhJ1hyaCh4j8llGzbUl0AKz7cytaSI7nhSRYANsCWFyfVMgihBkohFHbcRi5g6qEl9pygQSeXAlhhT631Ic/l4koBFHYct9aYR470r5LaiQCSVA1tiTK33ISPUjiQBCzsu1I5604jx3nBnc2Egkrr+3NkcY2q9D2lS91QFFGypN40Y713ufL4qoGBLjKn1PjTL1DlVAQVb6k0jwfs2yVcqAGtfgpn2cGdsXuLwr1xielEVAjZYEgkKtNkSZUgdjRKxgP1HYUOCmfYwFHDJebAAIKGtEmVbCikV2M6cs9uk/lo0LJSJslOaaZNBgW4k/WSBsE7aiPmAdU+Tc29RoFDWgGba06CA4Y1NI4fFG5us2jkooEn+cFSwkHcOJtosfAUMl2s1yX/kBczLi8u1fv52naMCTbZEGq62tEn9Z1Bg3rlcbUFeOZpmswpTYJYtu8Al5wFDaj4DsHmcg3PD8rT7hldgQXce04JgVhh+vFM0PuEKeWf3XdacJvUyFkNqDvtwDGkYY6edj/wAzg5jDiqbcru5SH3UCHWXJvl830SBPZoaV6bMIjFZU0xfbKjxHFqkJvkOxvK1SX3XXTj18cST65ygyeTHEL7RXL6ecDl7qcWdL+xmqxZn1Ws3Y+TN/SVnlyEV9zA977VQ4azJWsZEpp9hjbOMcG4z1Ph5ApywuNwRl+ROV8hvNsm5LKxzMMOmlmqhPuUK5+tayB8P2Gvcj6FjM2xFYyIhxDnlCUjy+4bUoQEAhUHz9mmS7yJPANEkj+eZNyL6mtTDz7LGijjfJuJYiy1bZkj9QJP8V84iRsIbQTnHNMlHm2z59ERACTixQHP5VUPqrREIVySkXlneRG2h1k9Mj9H7qkqnu9xzclJgwQ9N8hct0bgkUDHHa1MLeUcVZmeMumIg2uFyddN40elaq7m6edQCVSl/dGRmhfrkWMHCM06Z0ztLBLhvhjE+NrDwVa8SxSr1Xtjm8nPjA4oazbqC0iTdsQFlSL2dAOp3iCi4Qn7aLHQuHItFOGu84C+pA3G+aVJ/HwtQiEbHOdLmcitibmPhTIiR3ucVhNwe5+MMmzo/5NRq7cI3haKcaJP8mX+zRYRck/OQy+WT47AgfITAMdRGRTMkfxXlZ4tPXVctKiHWuCS/F+UAItc4pfOKQR2LSlfV/eiCt4S8FD60uHNLjJ0bQqSp1q64WYPb2PIPwFpEvWOcLLXXlmSXJmcXfOgOvQ61FVeIalEJscaQ2hfh7Ak/OcIuEWlCHa9SWk3Ob+AHYnwxdu3xfa3kunPtViciHJgIUKiISaDwxjjq1X8lwHnd7Oi5sbUBhYpa6e/Vutz5YkRrwiWtVqAq/UXNzsfhIyeh1QpUpSfDIXxiW1Snolb6gyKGqzcsqN4VZW8lOg5BI/CMlDAEK7dLnyvkn2IqhNfFx5hAzeVrgXQnjVB/DuzL+kiQ2Ovr5n+0kq/p8cSeIEBeoPbuYEunjGh8K6o8TfK9p5nzQXSR9ftxuZNaOF/DsC9N8rdR56bYnxbUqdai6Q8HK3Tp253xeb1mH1ZL8wDlQYKzM2zph6LG6fmvGrYwJjTJv0F8TPucZc5KnIsRREPASg0Kb7lLBxM0AEOoEmrjsKD+D1LcJaxFzrWwL/i4gEuhD2uIlpUeFMmNQZ1K307xLdhhQKWGZEgd8KMCYf90BbDaTJ4HwQaElR6UkNtLBxM0IMWYvUFB9SDhaT+uJaFFa3K+DdvioiRDwkoPipxfB3UqdRs1M+GyN1BkwiX5KjoOcE4zdW6K3t6xXvrkr2ke8D/8gXsWWmIKH+BHBlDyeKV6fk2SV6dwMnOLQnDT0NQVAIWAryb5TFw5LpdPIK03+YDUv2PTCrnNF9EleY2h1O/HUoNC+TtZ4yOltqL+wlN+vi0zKDgahBX3LgszN2CXFmr9iCBlalGeDVzd2K9Vqb+9QSrRUXO/qz4QqAywfumLEPNO7BSm3wzYknw/MrWoJqmrfLtKX2McRIr/OzgwqDBYhhqz/a0GkxAghKapy/v39//OAVLWFrW/cgN5jHDWdC5TkQ+9Q4EKwsJ9CEOzuiAO+TMQY4YCzM+x1YsAM+M9yW9J/jpVi9Kkfuo/s5XekoIGYP5rzOicoUH5sLpCz/mtBaOZYEu39xb1hvkUWiFGCGXoOPhw+tdJoA63hfqG/ywX1Kgy293e2cbu7L9+B3MB5cPpX2NiHCIjmsvH+veP6HckKC2cpzSbXl4ZGGkMwRi4wCCWkYEaEZD+Stb/+3RQXL3pkvOZNLpUMg06GYbUhu6lZuJAYe6XS/L+R9jKMysJIKtR3ncjSP3EPy/Q0vpr6zj89loUfMFsSt+nSVr3vpwyKaAmCU6oLxZUqCzV22lBVYAJoteYeBy3aFJ/KLinltu9T3P5xzjfcMyP4FcAR7QJcSGccYWT1W5oEK1QRY50ohORYaTcanZW8YpMPy5fKFsw5vegoSoTfK98+Mhv1AijYJiWJnkQo4Bqshz0fB63EJIPza6tAlYBq4BVwCpgFbAKWAUqoMD/AJ6h+eyaos8RAAAAAElFTkSuQmCC;labelPosition=right;align=left;imageBackground=#ffffff;fontFamily=Oswald;fontSource=https%3A%2F%2Ffonts.googleapis.com%2Fcss%3Ffamily%3DOswald;" vertex="1" parent="50n9XzaUPXyIrxFWQxz3-1">
          <mxGeometry x="477" y="90" width="56" height="56" as="geometry" />
        </mxCell>
        <mxCell id="hYMgk62euL2cY3u_tOm_-9" value="System Monitoring" style="edgeStyle=orthogonalEdgeStyle;rounded=0;orthogonalLoop=1;jettySize=auto;html=1;entryX=0.5;entryY=1;entryDx=0;entryDy=0;exitX=0.5;exitY=1;exitDx=0;exitDy=0;fontFamily=Oswald;fontSource=https%3A%2F%2Ffonts.googleapis.com%2Fcss%3Ffamily%3DOswald;" edge="1" parent="50n9XzaUPXyIrxFWQxz3-1" source="hYMgk62euL2cY3u_tOm_-3" target="hYMgk62euL2cY3u_tOm_-1">
          <mxGeometry x="-0.0645" y="10" relative="1" as="geometry">
            <mxPoint as="offset" />
          </mxGeometry>
        </mxCell>
      </root>
    </mxGraphModel>
  </diagram>
  <diagram id="sc6tSfkwCD5w_376hv3S" name="ma-meta-model-foundation">
    <mxGraphModel grid="1" page="1" gridSize="10" guides="1" tooltips="1" connect="1" arrows="1" fold="1" pageScale="1" pageWidth="1100" pageHeight="850" math="0" shadow="0">
      <root>
        <mxCell id="Y-eh493m8s4oRVfJB8fK-0" />
        <mxCell id="c8ava9AWn-4XB1mxjNfW-0" value="FOREST" style="" visible="0" parent="Y-eh493m8s4oRVfJB8fK-0" />
        <mxCell id="1EYFVvB3TqKGPu_myE7c-1" value="FOREST: T.3:&lt;br style=&quot;font-size: 14px&quot;&gt;a Loss Scenario &lt;u&gt;reconfigures using&lt;/u&gt; Resilient Mode &lt;b style=&quot;font-size: 14px&quot;&gt;Options&lt;/b&gt;&amp;nbsp;that provide &lt;i style=&quot;font-size: 14px&quot;&gt;composability, availability,&amp;nbsp;&lt;/i&gt; and &lt;i style=&quot;font-size: 14px&quot;&gt;safety&lt;/i&gt;&amp;nbsp;" style="text;html=1;strokeColor=#9673a6;align=center;verticalAlign=middle;whiteSpace=wrap;rounded=1;fillColor=#e1d5e7;shadow=1;glass=0;sketch=0;fontSize=14;" vertex="1" parent="c8ava9AWn-4XB1mxjNfW-0">
          <mxGeometry x="320" y="550" width="710" height="40" as="geometry" />
        </mxCell>
        <mxCell id="1EYFVvB3TqKGPu_myE7c-2" value="FOREST: T.4:&lt;br style=&quot;font-size: 14px&quot;&gt;A &lt;u&gt;Resilient Mode&lt;/u&gt; is &lt;b style=&quot;font-size: 14px&quot;&gt;Evaluated&lt;/b&gt;&amp;nbsp;for &lt;i style=&quot;font-size: 14px&quot;&gt;availability, failure transparency, timeliness, &lt;/i&gt;and &lt;i style=&quot;font-size: 14px&quot;&gt;usability&lt;/i&gt;&amp;nbsp;&lt;br style=&quot;font-size: 14px&quot;&gt;FOREST: T.5:&lt;br style=&quot;font-size: 14px&quot;&gt;Operational&amp;nbsp;&lt;b style=&quot;font-size: 14px&quot;&gt;Confidence&lt;/b&gt;&amp;nbsp;in the &lt;u&gt;Resilient Mode&lt;/u&gt; is rated for &lt;i style=&quot;font-size: 14px&quot;&gt;learnability, predictability, repeatability&lt;/i&gt;&amp;nbsp;and &lt;i style=&quot;font-size: 14px&quot;&gt;timeliness&lt;br style=&quot;font-size: 14px&quot;&gt;&lt;/i&gt;FOREST: T.6:&lt;br style=&quot;font-size: 14px&quot;&gt;Operational&amp;nbsp;&lt;b style=&quot;font-size: 14px&quot;&gt;Readiness&lt;/b&gt;&amp;nbsp;for the &lt;u&gt;Resilient Mode&lt;/u&gt; is rated by&amp;nbsp;&lt;i style=&quot;font-size: 14px&quot;&gt;adaptability, customizability, &lt;/i&gt;and &lt;i style=&quot;font-size: 14px&quot;&gt;timeliness&amp;nbsp;&lt;/i&gt;&lt;br style=&quot;font-size: 14px&quot;&gt;FOREST: T.7:&lt;br style=&quot;font-size: 14px&quot;&gt;&lt;b style=&quot;font-size: 14px&quot;&gt;Execution&lt;/b&gt;&amp;nbsp;of the &lt;u&gt;Resilient Mode&lt;/u&gt; is verified for &lt;i style=&quot;font-size: 14px&quot;&gt;testability&amp;nbsp;&lt;/i&gt;and &lt;i style=&quot;font-size: 14px&quot;&gt;timeliness&lt;/i&gt;" style="text;html=1;strokeColor=#9673a6;align=center;verticalAlign=middle;whiteSpace=wrap;rounded=1;fillColor=#e1d5e7;shadow=1;glass=0;sketch=0;fontSize=14;" vertex="1" parent="c8ava9AWn-4XB1mxjNfW-0">
          <mxGeometry x="10" y="600" width="700" height="140" as="geometry" />
        </mxCell>
        <mxCell id="1EYFVvB3TqKGPu_myE7c-0" value="FOREST: T.1:&lt;br style=&quot;font-size: 14px&quot;&gt;a &lt;u&gt;Loss Scenario&lt;/u&gt; is &lt;b style=&quot;font-size: 14px&quot;&gt;Sensed&lt;/b&gt; with &lt;i style=&quot;font-size: 14px&quot;&gt;accuracy&lt;/i&gt; and &lt;i style=&quot;font-size: 14px&quot;&gt;timeliness&lt;/i&gt;&lt;br style=&quot;font-size: 14px&quot;&gt;FOREST: T.2:&lt;br style=&quot;font-size: 14px&quot;&gt;a &lt;u&gt;Loss Scenario&lt;/u&gt; is &lt;b style=&quot;font-size: 14px&quot;&gt;Isolated&lt;/b&gt;&amp;nbsp;with &lt;i style=&quot;font-size: 14px&quot;&gt;accuracy&lt;/i&gt; and &lt;i style=&quot;font-size: 14px&quot;&gt;timeliness&lt;/i&gt;" style="text;html=1;strokeColor=#9673a6;align=center;verticalAlign=middle;whiteSpace=wrap;rounded=1;fillColor=#e1d5e7;shadow=1;glass=0;sketch=0;fontSize=14;" vertex="1" parent="c8ava9AWn-4XB1mxjNfW-0">
          <mxGeometry x="720" y="600" width="370" height="70" as="geometry" />
        </mxCell>
        <mxCell id="tOzdehcgxW7_LL5JkeHa-0" value="Resilience" style="" parent="Y-eh493m8s4oRVfJB8fK-0" />
        <mxCell id="tOzdehcgxW7_LL5JkeHa-12" value="&lt;b&gt;&lt;font style=&quot;font-size: 16px&quot;&gt;System to be Protected&lt;/font&gt;&lt;/b&gt;" style="rounded=1;whiteSpace=wrap;html=1;dashed=1;strokeWidth=2;verticalAlign=top;align=center;fillColor=none;fontSize=14;fontFamily=Oswald;fontSource=https%3A%2F%2Ffonts.googleapis.com%2Fcss%3Ffamily%3DOswald;" vertex="1" parent="tOzdehcgxW7_LL5JkeHa-0">
          <mxGeometry x="30" y="30" width="730" height="510" as="geometry" />
        </mxCell>
        <mxCell id="tOzdehcgxW7_LL5JkeHa-13" value="are a type of" style="edgeStyle=orthogonalEdgeStyle;curved=1;rounded=0;orthogonalLoop=1;jettySize=auto;html=1;strokeWidth=2;endArrow=block;endFill=0;fontSize=14;exitX=0.63;exitY=0;exitDx=0;exitDy=0;fontFamily=Oswald;fontSource=https%3A%2F%2Ffonts.googleapis.com%2Fcss%3Ffamily%3DOswald;exitPerimeter=0;" edge="1" parent="tOzdehcgxW7_LL5JkeHa-0" source="tOzdehcgxW7_LL5JkeHa-15" target="waV62aWnwryCNmw-Fwzn-0">
          <mxGeometry x="0.1245" y="10" relative="1" as="geometry">
            <mxPoint x="620" y="350" as="targetPoint" />
            <mxPoint as="offset" />
          </mxGeometry>
        </mxCell>
        <mxCell id="tOzdehcgxW7_LL5JkeHa-14" value="reconfigures using" style="edgeStyle=orthogonalEdgeStyle;curved=1;rounded=0;orthogonalLoop=1;jettySize=auto;html=1;fontSize=14;endArrow=classic;endFill=1;strokeWidth=2;fontFamily=Oswald;fontSource=https%3A%2F%2Ffonts.googleapis.com%2Fcss%3Ffamily%3DOswald;" edge="1" parent="tOzdehcgxW7_LL5JkeHa-0" source="tOzdehcgxW7_LL5JkeHa-15" target="tOzdehcgxW7_LL5JkeHa-17">
          <mxGeometry relative="1" as="geometry" />
        </mxCell>
        <mxCell id="tOzdehcgxW7_LL5JkeHa-15" value="&lt;b style=&quot;font-size: 14px&quot;&gt;Loss Scenarios&lt;/b&gt;&lt;br style=&quot;font-size: 14px&quot;&gt;&lt;i style=&quot;font-size: 14px&quot;&gt;a &lt;u style=&quot;font-size: 14px&quot;&gt;resilient&lt;/u&gt; system &lt;u&gt;minimizes&lt;/u&gt;&lt;/i&gt;" style="rounded=1;whiteSpace=wrap;html=1;strokeColor=#000000;fontFamily=Oswald;fontStyle=0;fontSize=14;fillColor=#FFE6CC;fontSource=https%3A%2F%2Ffonts.googleapis.com%2Fcss%3Ffamily%3DOswald;" vertex="1" parent="tOzdehcgxW7_LL5JkeHa-0">
          <mxGeometry x="490" y="450" width="188.75" height="60" as="geometry" />
        </mxCell>
        <mxCell id="tOzdehcgxW7_LL5JkeHa-16" value="are a type of" style="rounded=0;orthogonalLoop=1;jettySize=auto;html=1;endArrow=block;endFill=0;strokeWidth=2;fontSize=14;exitX=0.25;exitY=0;exitDx=0;exitDy=0;entryX=0.457;entryY=1.011;entryDx=0;entryDy=0;edgeStyle=orthogonalEdgeStyle;curved=1;entryPerimeter=0;fontFamily=Oswald;fontSource=https%3A%2F%2Ffonts.googleapis.com%2Fcss%3Ffamily%3DOswald;" edge="1" parent="tOzdehcgxW7_LL5JkeHa-0" source="tOzdehcgxW7_LL5JkeHa-17" target="As5LlfaY-s4t0mBRkN7G-0">
          <mxGeometry x="0.1008" y="-10" relative="1" as="geometry">
            <mxPoint x="140" y="350" as="targetPoint" />
            <mxPoint as="offset" />
          </mxGeometry>
        </mxCell>
        <mxCell id="tOzdehcgxW7_LL5JkeHa-17" value="&lt;b style=&quot;font-size: 14px&quot;&gt;Resilient Modes&lt;/b&gt;&lt;br style=&quot;font-size: 14px&quot;&gt;&lt;i style=&quot;font-size: 14px&quot;&gt;a &lt;u style=&quot;font-size: 14px&quot;&gt;resilient&lt;/u&gt;&amp;nbsp;system &lt;u&gt;includes&lt;/u&gt;&lt;/i&gt;" style="rounded=1;whiteSpace=wrap;html=1;strokeColor=#000000;fontFamily=Oswald;fontStyle=0;fontSize=14;fillColor=#FFE6CC;fontSource=https%3A%2F%2Ffonts.googleapis.com%2Fcss%3Ffamily%3DOswald;" vertex="1" parent="tOzdehcgxW7_LL5JkeHa-0">
          <mxGeometry x="76" y="450" width="187.19" height="60" as="geometry" />
        </mxCell>
        <mxCell id="tOzdehcgxW7_LL5JkeHa-18" value="protects against" style="edgeStyle=orthogonalEdgeStyle;curved=1;rounded=0;orthogonalLoop=1;jettySize=auto;html=1;entryX=1;entryY=0.75;entryDx=0;entryDy=0;endArrow=classic;endFill=1;strokeWidth=2;fontSize=14;exitX=0.5;exitY=1;exitDx=0;exitDy=0;fontFamily=Oswald;fontSource=https%3A%2F%2Ffonts.googleapis.com%2Fcss%3Ffamily%3DOswald;" edge="1" parent="tOzdehcgxW7_LL5JkeHa-0" source="tOzdehcgxW7_LL5JkeHa-20" target="tOzdehcgxW7_LL5JkeHa-15">
          <mxGeometry x="0.0409" y="-20" relative="1" as="geometry">
            <mxPoint x="520" y="740" as="sourcePoint" />
            <Array as="points" />
            <mxPoint as="offset" />
          </mxGeometry>
        </mxCell>
        <mxCell id="tOzdehcgxW7_LL5JkeHa-19" value="" style="group;fontFamily=Oswald;fontSource=https%3A%2F%2Ffonts.googleapis.com%2Fcss%3Ffamily%3DOswald;" vertex="1" connectable="0" parent="tOzdehcgxW7_LL5JkeHa-0">
          <mxGeometry x="780" y="220" width="240" height="175" as="geometry" />
        </mxCell>
        <mxCell id="tOzdehcgxW7_LL5JkeHa-20" value="&lt;b&gt;&lt;font style=&quot;font-size: 16px&quot;&gt;Sentinel System&lt;/font&gt;&lt;/b&gt;" style="rounded=1;whiteSpace=wrap;html=1;dashed=1;strokeWidth=2;verticalAlign=top;align=center;fontSize=14;fontFamily=Oswald;fontSource=https%3A%2F%2Ffonts.googleapis.com%2Fcss%3Ffamily%3DOswald;" vertex="1" parent="tOzdehcgxW7_LL5JkeHa-19">
          <mxGeometry width="240" height="175" as="geometry" />
        </mxCell>
        <mxCell id="tOzdehcgxW7_LL5JkeHa-21" value="" style="shape=image;verticalLabelPosition=bottom;labelBackgroundColor=#ffffff;verticalAlign=top;aspect=fixed;imageAspect=0;image=data:image/png,iVBORw0KGgoAAAANSUhEUgAAApwAAAGSCAYAAABOqRFIAAABRWlDQ1BJQ0MgUHJvZmlsZQAAKJFjYGASSSwoyGFhYGDIzSspCnJ3UoiIjFJgf8rAwiDOwM4gy2CUmFxc4BgQ4ANUwgCjUcG3awyMIPqyLsgs5u/ZF7f+Sl6WZl2sduyuvyumehTAlZJanAyk/wBxenJBUQkDA2MKkK1cXlIAYncA2SJFQEcB2XNA7HQIewOInQRhHwGrCQlyBrJvANkCyRmJQDMYXwDZOklI4ulIbKi9IMDr4urjoxBqZG5o7OFLwL0kg5LUihIQ7ZxfUFmUmZ5RouAIDKVUBc+8ZD0dBSMDI0MGBlCYQ1R/vgEOS0YxDoRYWRIDg40jUNAKIRYTwsCwcwLQGy4IMRUgzWXAwHBwfUFiUSLcAYzfWIrTjI0gbO7tDAys0/7//xzOwMCuycDw9/r//7+3////dxkDA/MtBoYD3wDzAV8aYuCWLwAAAFZlWElmTU0AKgAAAAgAAYdpAAQAAAABAAAAGgAAAAAAA5KGAAcAAAASAAAARKACAAQAAAABAAACnKADAAQAAAABAAABkgAAAABBU0NJSQAAAFNjcmVlbnNob3TxIKEYAAAB1mlUWHRYTUw6Y29tLmFkb2JlLnhtcAAAAAAAPHg6eG1wbWV0YSB4bWxuczp4PSJhZG9iZTpuczptZXRhLyIgeDp4bXB0az0iWE1QIENvcmUgNS40LjAiPgogICA8cmRmOlJERiB4bWxuczpyZGY9Imh0dHA6Ly93d3cudzMub3JnLzE5OTkvMDIvMjItcmRmLXN5bnRheC1ucyMiPgogICAgICA8cmRmOkRlc2NyaXB0aW9uIHJkZjphYm91dD0iIgogICAgICAgICAgICB4bWxuczpleGlmPSJodHRwOi8vbnMuYWRvYmUuY29tL2V4aWYvMS4wLyI+CiAgICAgICAgIDxleGlmOlBpeGVsWERpbWVuc2lvbj42Njg8L2V4aWY6UGl4ZWxYRGltZW5zaW9uPgogICAgICAgICA8ZXhpZjpVc2VyQ29tbWVudD5TY3JlZW5zaG90PC9leGlmOlVzZXJDb21tZW50PgogICAgICAgICA8ZXhpZjpQaXhlbFlEaW1lbnNpb24+NDAyPC9leGlmOlBpeGVsWURpbWVuc2lvbj4KICAgICAgPC9yZGY6RGVzY3JpcHRpb24+CiAgIDwvcmRmOlJERj4KPC94OnhtcG1ldGE+Cs2hUuMAAEAASURBVHgB7J0HfBRFG8Zfeu+d0JPQi/QiTRAFBRFEVFTwQyz0IkgTEBVEsQuIiEiXIoJY6IKA9I7UEFoILfTe+eaZMPESL8klubJ39ww/sne7s1P+s3v77Dsz7yS7r4IwkAAJkAAJkAAJkAAJkICLCCR3UbpMlgRIgARIgARIgARIgAQ0AQpOXggkQAIkQAIkQAIkQAIuJUDB6VK8TJwESIAESIAESIAESICCk9cACZAACZAACZAACZCASwlQcLoULxMnARIgARIgARIgARKg4OQ1QAIkQAIkQAIkQAIk4FICFJwuxcvESYAESIAESIAESIAEKDh5DZAACZAACZAACZAACbiUAAWnS/EycRIgARIgARIgARIgAQpOXgMkQAIkQAIkQAIkQAIuJUDB6VK8TJwESIAESIAESIAESICCk9cACZAACZAACZAACZCASwlQcLoULxMnARIgARIgARIgARKg4OQ1QAIkQAIkQAIkQAIk4FICFJwuxcvESYAESIAESIAESIAEKDh5DZAACZAACZAACZAACbiUAAWnS/EycRIgARIgARIgARIgAQpOXgMkQAIkQAIkQAIkQAIuJUDB6VK8TJwESIAESIAESIAESICCk9cACZAACZAACZAACZCASwlQcLoULxMnARIgARIgARIgARKg4OQ1QAIkQAIkQAIkQAIk4FICFJwuxcvESYAESIAESIAESIAEKDh5DZAACZAACZAACZAACbiUQEqXps7ESYAEfI5ASEiIjBs3TlavXi3h4eESFhbmc3X0xwoVLFhQVzsgIEDwuX379tK4cWN/RME6kwAJuIBAsvsquCBdJkkCJOBjBPr06SMzZ84UuXZNnilfQR4JDJSi2bNLUI6cPlZT/6zOgbNndMUPnTsny0NDZc3hw5I8T26pXbu2jBw50j+hsNYkQAJOI0DB6TSUTIgEfJMALJpt27aVcLUd1aKlNAou7psVZa3+QwAitMPs2XLizm1ZtmyZBAcH/ycOd5AACZCAIwQ4htMRSoxDAn5KYOHChVK8eHGpkS697Hu7H8Wmn10HsF6veLOjPBMULA0bNpQxY8b4GQFWlwRIwFkEaOF0FkmmQwI+RgBis0mTJvJLh9coNH2sbRNTHVg7X/vjd3lXda9zbGdiCPIcEvBvAhSc/t3+rD0J2CWAbnRYNik27eLx250QnU/+OJ3d6357BbDiJJB4AhSciWfHM0nAZwnUrFlT+pctR8umz7Zw4iv27fp1MvN4uKxduzbxifBMEiABvyPAMZx+1+SsMAnETQDj9O6dOk2xGTcmvz36RvUa+vrgeE6/vQRYcRJIFAFaOBOFjSeRgO8SKFSokIx6vDEFp+82cZJrtiRkv3RZtFCOHj2a5LSYAAmQgH8QoIXTP9qZtSQBhwjAalVVzUym6yOHcPltJFwf+VKmEkwsYyABEiABRwhQcDpCiXFIwE8IrFixwk9qymomlUCtIkX05KGkpsPzSYAE/IMABad/tDNrSQIOE2hXpYrDcRnRfwlgpSksb8pAAiRAAo4QoOB0hBLjkICfEFi3bp1ertJPqstqJoEAljUNDw9PQgo8lQRIwJ8IUHD6U2uzriQQD4GwsDCujR4PIx4mARIgARJIOAEKzoQz4xkkQAIk4PcEsOwlXlAYSIAESMARAhScjlBiHBIgARIgARIgARIggUQToOBMNDqeSAIkQAIkQAIkQAIk4AgBCk5HKDEOCZAACZAACZAACZBAoglQcCYaHU8kARIgARIgARIgARJwhAAFpyOUGIcESIAESIAESIAESCDRBCg4E42OJ5IACZAACZAACZAACThCgILTEUqMQwIkQAIkQAIkQAIkkGgCFJyJRscTSYAESIAESIAESIAEHCFAwekIJcYhARIgARIgARIgARJINAEKzkSj44kkQAIkQAIkQAIkQAKOEKDgdIQS45AACZAACZAACZAACSSaAAVnotHxRBIgARIgARIgARIgAUcIUHA6QolxSIAESIAESIAESIAEEk2AgjPR6HgiCZAACZAACZAACZCAIwQoOB2hxDgkQAIkQAIkQAIkQAKJJkDBmWh0PJEESIAESIAESIAESMARAhScjlBiHBIgARIgARIgARIggUQToOBMNDqeSAIkQAIkQAIkQAIk4AgBCk5HKDEOCZCAXxC4euuWXL992y/qykqSAAmQgDsJpHRnZsyLBEiABBwhUObTkXLo9OloUQvlzCkfNG4ircqVj7bfWV9u37snuQYNlHIFC8r6Lt2clazT0jlw9ozM2blT6hUrJjUKFXZaukyIBEiABNxBgBZOd1BmHiRAAoki0KZqVWlbvYY0Kl1ajp45I22nTpHD588lKq34TkqRLJm0r1lLmpcuE19UjxzfqwT40AV/yJ8HDngkf2ZKAiRAAkkhQAtnUujxXBIgAZcS+Lp5C0mXKpXOo+bor2X70aOy48QJKZItu0zbukU+X7VSIq5ckUoBBeSrp5+Wglmyyr379+XdpUtk+ubNUihbVqkbGCgrDoRK/wYNJHWKFDJo0UJ5pWo16aD+bwk/Jt1+mSetyleQLrUelm3Hw+XyzZs6v6/+Xi2ztm+TlytXkYmbNsoHjzeWrOnSSd8/fpeQiAgpmj2HDGnUSB4JDJJVhw6qdBdJHWV93HwsTI6cPy9vKvGaSuX3jUonVcqUMvrpFlJdWSZv3b0rQ1X55uzYrvNpVLyEfNK0mSRXgrfRuG+lbN68cvPOHZ1m1YKFZLDKI5mK+f6ypTo+6h2QJYu0U+ViIAESIAFvIUDB6S0txXKSgB8SCFHdyBCcxy9elMPKwolQMSBA/joYKq/N+FGypE8vJfLklUW7d0njMxGyvedb8qv6/IkSdAgZUqeSj5dEfj5ztbqkUcJvy5Ej0jC4uD5+8cYN/b1aoUJyX+3BMXStI4RduKC/Yx/ChevX5aVpU+XitWtSKyhI1ihL45NKIG7p3UfOqWMblOjE//xKDB9XVti+Ssgi6O+nTknneXNlU7ce8uHyZfL5n8sEQwTSpU4t36/5W40bvSWjWzwTlQbqlVrVe44SlzkzpJcedepKhgfCO7WqgxHhOgP+IQESIAEvIMAudS9oJBaRBPyVQI3PP5MKH38kTb4dq4Vev8ce01bMiZs3aSTDnmwqU154QeoqAYkxn6sPH5JF+/frY/M7vCbbe/WWJmXLJQnfIyVLyo63+8pFZfmE2Gynuvh/aP2cvNXwUZ3uTGUFNQFDAA706x+V59fPtpY96lwIyN3h4TralE2b9XZ223YyR/3HsekbN8q1B5OV8H1zr7dkmxLPCItVfQpnzSa96tbT359VY1hbK4ssAwmQAAl4EwFaOL2ptVhWEvAzAr0fbSQpkydT3dTHZMnu3TJz2zYZ3LCRHDkXOY6zy+xZ0YgcPndelj4QnPVUVzdCfdWlvuCfndHimS+wasYX0PUelCOnTNmyRUedtH6d4L8JsIQ+lD9Afw1QXfoIAZkz622pXLkkVfLkWlRCrMJ6CusnQvXPPtVb8+f0lcv6Y6A6J3+myPOx4+btOyYKtyRAAiTgtQQoOL226VhwEvB9Av3rP6K7jyHUCr0/VFsxL6hu8BwZMujKf/lMKzUuspDcUNZBuDMqmTuPTN68UYs6uDjKmjatHDp3NgpUWtUdjXBNHUOAWIwvYNwmQs4HeWISU6dateSOGouJ8Z751XjK3arL3JFgKz6Xd+6iu9SRBtLKlzmLTiJl8hSOJMU4JEACJOBVBCg4vaq5WFgS8E8CEGp5s2bVXdqXb96QusUC5XflImiasjreUWL0SzV5CLPY9/YfIE+VKSvrDh6U59WM9gJZs+juakMtSI2bRJiqJgFhYs54NX7S0VCnSBEddcHePXoc6Ww16QfjOCe80EYLR0fTqa0srij7+A0bJFhZM99Vk5CC8+SRdWp8Z1whuWKA8PeRw7Lz1Ekpp8auMpAACZCAtxDgGE5vaSmWkwT8nECuBxbGNYcPS8caNaWbsn7CevnW3J+12Py85TNSSI11fLFiJe1Lc2XIfi02S6tJRiYUz5lLnq7wkBauEJv1S5TQh5LpeeAmVvRtMjV7HAHd5qPUmMzsqhw9f56jxSasnZjhbsKDqGK2Zr/t9vNmT0mrSpVl2sYNWmxiUtE3ylILt0xxhaoFCkqJ/Pll+d69avZ85Az3uOLzGAmQAAlYiUCy+ypYqUAsCwmQgOcIQFxd+2ik5wqQwJxh3cRM9qJKtJnuciSBn7VQJUbzqrGQU7Zs1qL0u+df0GIUx8+rWeWoK7rcExP2n4mQXBkySrYH3e2JSeOK6tY/fumiFFPulVI+sF46kg7KjrpaYaZ6+r59NGtHys04JEAC/k2AXer+3f6svZcQCAkJ0SUNDQ2Vg6q7GOHQoUN6G/PPkQdufMz+sLAw81Fvwx/MljY7Yx43+71hC6FWKlfu/xQVYhITfWILSRGKSBOW0qSGjMolUmLSSWrZk1rumOeDdUG1OlPMEGBjWcYxe3EKFy4c7bSiRYtGfS+mfJoiNG7cOGofP5AACXgvAQpO7207ltzLCcQUkUZAQjAaEQhxaD57eXU9VvzKSvj0bNBQyqhxkgyuIWDvGo25b926f2f2J6YURrBCyJrP9evX10kZcRqoxscGBwcnJnmeQwIk4GIC7FJ3MWAm758EjJgcN26cBmArIhPz4DUPWNuHbUzrkCFtayXCPvMwNsfxULYNtg9ob+tSt60HP7ufgOlSN9e7bQlgjbcNxjJvu8+8ZJl9ttZ5CNbEvnDZu18gTnEv0GJqaHNLAu4lQMHpXt7MzccI4EGLB+uyZct0zVavXi2OCsqYD0UjICEYjUh0t8WGgtNaFyjcQWEyEZa9tGIwgtMdZTOi1nZYyYoVK3TWxprqqEDFvWde3owQdfe95g5mzIMErESAgtNKrcGyWJZAQoWlEZM1atQQCElbEWllC4u/Cc4Jyj3So2qZSsxud0YoPPwDmaBWIWoY5Jxu3SpffSEdaz0sr1ap6oziOT0NdwrOhBQ+NnEKYRrXC6HtfWvbXW/lezYhXBiXBDxJgGM4PUmfeVuSAB5W6Ao33eCOPKCee+45XZeGDRuyy86SrfrfQp28ckWwUhGWrXRGwOzxCLXme63CRZyRnF7qEsthVrMzIccpGfhwImaYiNmiqp06dYqqsXmBRDc/rKRGiBpLKbazZ8+Oim8rRPECyfs8Cg0/kIDDBCg4HUbFiL5IwDx40CUeV3e46YKrXbu2xsAHjvOvhnvKldGQJYsFjtXDz5+XZmoN9HHKP2XMcOLyZRn+5zJZsGeP5MqUUeDXspRaYeix8eNk1NMtBP4qEd5UvjLh+P3VqtX/Ez+7Wq+8xaSJOl73+b/I7/97VVYdOihDFi+S0LNnpUrBQvJdq2clu3J79OXfq+WfEyfkhnIUv1b5AG1SqpTUVKsbjVz5l1y+fkM+btpUWqqy7o84rf16plEui95btkTm79olEUrUvly5inzwePSZ1gv37ZXPlLP6xR1el1tqlaHGquxPqzS6PVxb1h09Iu8sWiiDGz2myzdRrbP++57dkiZFChmnyoTVlGKr6zsNHtXn8E/cBCBEjRiNT4jadtMbQfrJJ59ETVxCL0b79u35ohk3ch4lAaHg5EXgVwQcEZgQl7RYuv+yGPnXClm8f5+8q4QWRNhLUyZLdyXwy8RYUafbL3OV/8x0MrVNG/lm7Vrp+et8Wdu5q+xUVqmQiAgtODceC5PJar3zbX3eFnvx/2jfQSrky699ab7/2OOyV4nFx8d+I283aiQD1Ix2iNB3Fi6QMS1a6jLB2fp7TzaVPBkzyhglFDeEHZV+yvE88sdqRxCc6dOkkV516sq3Kt/F+/bJV82fVuLxqLzz26/yphIlBR6ssw6y99T/nQ/cU/2kVizCykgPPXAj9LlKH6J524PjWBHpfSVY31VifIzKb9Jzz8daV/e3mm/lGJcQRU2XLFkSzSKKfcYaamsFpQAFGQYSiE6AgjM6D37zMQIJEZi0Wnq28Uvlzi1T1TKReTJmknVHDuvCwLG7bcAkGiwL+YYSorD0faasmweUE3YErCh07NIl/RnirH3NWlJUOVW3Fx++LK/eviV11KzlSgEF5KUfp0uPRxrIu49GWhXbqNWK/joYOct6ixKNI55qrq2Pf4Ye0ILzW7WqEVYeWq0snhdUVzoClprE/0GLv5YsadJKgFpjHQK0kipXjvSRa7/riOoPLKcXr13TX8esXaPLfv3WbTl4/pz8umOHhL4zWPqpJS+bKCELqy3CL8pimuWBo3p7dU2MT0+dMP/ES8BYQ7E1FlH8tsQlQJEoRCgsoBgPas6LNzNGIAEfJUDB6aMN66/VMg8BuFuJrYvcWDApMK1zlWBloPXKQtl13lw9DjKXEmsIpWNYN7Gm+lsNH5VPly2Vb5VHgIaqe/vbB93ugTly6JV71iixCovkd+8Mkrjiw4L4iuruhnXz521bdX5fLP9Tb/HnuSpV5MiF81oYtixbVu/fobrWK6judIhNhJ3q+2PFi+vP5s/b9epLD2UhLfXhcKlcpIgMb9zkP6sCZVNd+ggoK8Z+tlOTgnadPCmjVPf9q2qSUL5MmWSTstIOVNZWE3aeOC6dVJc7gr26mnjcuoeAsYYaIWl+e2KOCTUW0M6dO1OAuqdpmItFCVBwWrRhWCzHCeCH3kzysR3ob1KgwDQkrLudrJafnLBurcxq205qqEk3GEu5UlkYIRhtA8Rh99p1pHfdenqsZ89f5qnxjXvktWrVlQjLKftUl/p7qtuzlxJq+dWylrHFb6LWUMcEn8oFCsh6ZcHMogTggf4Do7LaEn5MSimxu0qVAWudm+7wrUqkVnkwRhTW1w1q3Gf/Bg2izjt28YJUVBbNA/0G6DGhg9VYzKFLl8jS196IioMPxuL56cqV0lFZYlOp8Zmn1NjUxWr86uqu3eTCjRty6PRpqarELQKWwQw5dUrlXUB/t1dXfYB/PEbAngA1LtPMyy/EpxGgI0aMoPXTY63FjD1BgILTE9SZp1MILFy4UPu/xAB+20CBaUvDOz7P371bGpcuLXWKFpNfdu8SWBph6YsZICZzq4lCI59sJvWV66HUqVJpax/iFVMWTpwH8TjzpZf1qbHF/0dZExEgJM/lvKatmJisU6NQYfls9UrVbb5Kdr/dTzYrgVkhf34dF3+2KSHaTYldhD1K/CKgS96E8Rs3yErll/Xndv/TdcmYOo1UU7OaYwbTNb5GCVqMyfxl1z+yMmS/tKpUWQLVMIDlquse9QhSnxG2qnwRyubNp7f26qoP8I9lCBgBalwq4cXYngDFSzLFp2WajQVxIQEKThfCZdLOJ2CsmbGJzNdffz1q9qnzc2eKriKAbumealb5QiU8g9RYzkZKfH6/5m89u9uIM+T9WPES0mn2TJmpJupAbL6kusQbBAbpYgVmz663Q1QXtjkntvgQlwgtJk+UeW1fkUdKlpRm30WuCoXxkb+0f1UwznO76sau9sDKePWBlbHSAwG64/hxbf3MleHf8ZnNSpWWj5Uozj9kkGBYACYC9VeTi2IGWG4hKNtWrSZYUz2jmnCE0LtepJiF0C2nzoVfVIRtquu+nBoPiJnqCPbqqg/wj2UJ2BOg6JmxtX7aik9OPLJsU7JgiSRAx++JBMfT3EeAItN9rD3p+D3i6lW5q8Zy5lUzwTGm88SVy7pbPGbt0W2NuOWUtS+lTZc73Az9vHOHrOzYOdrKPLHFx9jJdEq0plVujJDfgXNnBd3kJXPmihJ6MfN25DvSPaTSKpErt2RQYtIVIba6uiKvuNK0quP3uMpsxWPmN86IT1NGM+mI4tMQ4dabCVBwenPr+XDZzQ8wLZnubWRPCs7E1hRd298pV0Q/bt4si9/sqGeKJzYtq59ntbpScDr/ijG/fTNnztTjPU0OFJ+GBLfeSoCC01tbzgfLHdcPLfxicla56xvdGwXnZjW+caHye/n8Qw/p8Y+up+S5HKxWVwpO114L8f0mjhw50rUFYOok4EQCFJxOhMmkEkfA/KjaWjM58SdxLJN6ljcKzqTWmecnngAFZ+LZJeRM/EZiwtGECRP+s+QmXsY5dj0hNBnXUwQoOD1FnvlKXEKTb+6euUAoOD3D3VtzpeB0f8vhdxMO56dMmSLr1q3TBTDd7cOGDeOkSfc3CXN0kAAFp4OgGM15BPCDOXDgwP+8qffr14+rcTgPc6JSouBMFDa/PYmC07NNP2bMGLvCk5OMPNsuzN0+AQpO+1y41wUE7AlNLPs2efJkvpW7gHdikqTgTAw1/z2HgtMabW/vtxVWT7hdMn5ArVFSlsKfCURfxsOfSbDuLiMAB+2FlC/D4srXolkJqHfv3rJ//35Zu3YtxabLyDNhEiABfyAAH5+zZs3Sv6n4bUXAikZNmjTRv72whDKQgKcJ0MLp6Rbw4fz79Okjtq49zEQgjs+0bqPTwmndtrFiyWjhtGKrCMfHW7NZ/L5UFJx+fwk4HwAsmpg1iTdsBApN5zN2VYoUnK4i65vpUnBau13R1Y5udb74W7ud/KV0FJz+0tJuqCd+3Nq2bRtt5iRcdtCi6Qb4TsqCgtNJIP0kGQpO72ho/DZjZjvWbDeGgGeffVY4q9072s9XSskxnL7Skh6uB7rPMUbTuOnAOKKjR49SbHq4XZg9CZAACWCMZ6dOnWTZsmVixnhiPD0W08BvNwMJuIMALZzuoOzDeeDNGT9a5q0Z3ef4UcMPHIP3EaCF0/vazJMlpoXTk/QTn7e93ijOaE88T57pGAFaOB3jxFgxCOAHy1g1ITYhNI1Vk2IzBix+JQESIAELEcBvNDyE4Dcbv934DceMdlo7LdRIPlgUCk4fbFRXVwkuNtB9bpaiNEKTYzVdTZ7pkwAJkIDzCOA327abHb/pcGFH4ek8xkzpXwLsUv+XBT/FQ4DdMPEA8oHD7FL3gUZ0YxXYpe5G2C7OisOjXAyYyQstnLwIHCJgus9jTgriKhYO4WMkEiABErA0AXSz21o70c3OSUWWbjKvKxwtnF7XZCwwCbiOAC2crmPriynTwumLrco6kYBrCNDC6Rqulk/1/v37cu7cOcuXkwUkARIgARJwDYFbt265JuFEpnrz5k25cuVKIs/maVYnQMFp9RZyUvmOHz8usF5BaGIN86CgIOncubO88847euukbJgMCZAACZCAlxDInTu3hB4ITVJpbZ8tSUnop59+kjx58si0adOSkgzPtTCBlBYuG4vmRAK5cuWSVatWadG5YcMGyZQpk/z444/aOfudO3ecmBOTIgESIAES8BcCts+WpNQZSyK3a9dO3njjjaQkw3MtTIAWTgs1zo0bN/TSkHjLa9Gihfz999+6dPXq1dNWyICAAMEkHTNxB/FhpcT+cuXKaQGJE9BV3rx5c8maNavUrFlT/vzzT7lw4YJ06dJFDh48qK2a27dvl169eslvv/0mM2bM0PmsXLlSKlWqpN8yW7duHdXl/vPPP0vVqlWlSJEi8sEHH8i1a9d0fP7xPQLwyXfg7Bnfqxhr5HQCuE5wvTB4N4H+A/rr33w8W1avXq0rc/HiRcEzAM+ihx56SCZNmqT379mzRz+DsB/PniNHjkQ9W9B7Zu94TDpY4SgwMFCn/dZbb8mZM2dk1qxZAgsnnkW0cMYk5jvfKTgt1JaTJ0+W0NBQOXDggDz99NPSo0cPXTqIw2PHjsmWLVvk8ccflzfffFPvnz59unbeu2DBAi0m27RpI/v27ZOxY8fK9evXddc51svt27ev3L59W5BO4UKF5e2335b69evLe++9J+gOMasEYR10vGEuXrxYzp49q5dCw3nt27eXwYMHCwQpZjH+8ccfFqLGojiTAF5eDnFsrzOR+mxay9TvFK4XBu8mgDGTf/31l1SsWFE6duyoK/PZZ5/JpUuXZOfOnXr99e7duwvGe+KZUb58edm7d6+kSJFCEM88W3CiveO2dJDGa6+9Jv369ZOlS5fKpk2bZNSoUdpAAsfzHTp0kFatWtmews8+RIBd6hZqzFKlSsmaNWsENzfeNpcvXx5VOuzDWyVE6NChQ7WlEm+DsDDgxkXInz+//uGYN2+eDBw4UDA+p3u37lKnTh25d++ejpM8RXLJmDGjpEqVSm/1TvUHVlO8rd69e1eLyqJFiwqELOJVrlxZBgwYIC+88IJ8+eWX+gfHnMetbxGoXbu2LN+8RRoFF/etirE2TiewSvWWFAwOcnq6TNC9BNDTVbJkSW1UGDFiRFQvGAwPEyZMkI0bNwosnuhRK126tBaIKCF60erXqy+nTp+KKrC941EH1YclS5bonjKIToQhQ4ZoA8q7774r6dKlkwwZMkiaNGn0Mf7xPQK0cFqoTSEMsdxY3rx55f333xc8/E3Ili2b/og3RNz8p0+f1lZP3JwQifgPMQpxCOGIMZoIEJiZM2fWn+P6AytnlixZotIqUaKEfgvFORCwSHvbtm1SoUIFQRc7g28SgN+9OTu2+2blWCunEtgYdlT3fjg1USbmdgIwZCCkTBlpf0qePLkedtWtWzfB+H70kpkwoP8AwZrrly9fFvSo9ezV0xzS2/iO49mUI0eOqHNgHWXwHwIUnBZq6/79+2ur4vDhw/UWXeARERG6hPPnz9dbjHWBJbR69er6hwDdGhCDL774onz33XcCtxLNmjWTmTNn6q4OjIeBZRI/InGFJ598Uh+GZRVLVULYwnKK8TUYH4q3WeSN7nVby2tcafKY9xHA2CpJn16WhOz3vsKzxG4joK8PdZ3g94LBuwnMmTNHVwBDtPBswVj9RYsWSdeuXbXwtJ1U2qBhA22J/Oabb/TSxjGfBfEdx1AxzCnAqkYY9oVhZE2bNvVugCy9wwTYpe4wKtdHxBsjfsCnTp2qLY0QfpgBiIAbE2+WV69e1d0ccHH06quv6jEvBQoU0BZPdFPUqlVLWzeRDkQnJg5BiMYVIEbTq4cHrKo4z/zAYKxmzpw59Q8CylG2bFldLvMDFVeaPOadBLDaCMZXDfvkU3are2cTuqXUw9RYblwnDN5PAD1YEJDoNTMTSDEhCKvLjRkzRooVK6b/Yy4AnjmYTIShXLByfvTRR9EAxHccw74wC7148eK6Rw3PJ3TdmxCfYcTE49Y7CXClIYu1G7oYduzYod80IQIRcFNibCfGt+TLl09Sp04drdRHjx7VYy1xzIS7d+5K+PFwKVSokNnl0BaWTUw8wpgejN80AXnAegpBwuDbBGB9wBjggDNnZXjjJr5dWdYuwQS+Xb9OZqrfFgz/YfANAvh9h3HBPHNQKzNuE13ueC7AOwmeRfB4cvjwYT2W355AjO840j5x4oSelITnib00EIfB9whQcHpBmxrBiQHZDCTgDgIQnS+3bCkDatSkpdMdwL0kD3SlNx//nR7yw+50L2k0FpMELEIg7oF9FimkvxcDYycTaqn0d2asf9IIwPIwRU0OG75urcCixUACFJu8BkiABJJCgIIzKfTcdO5jjz0WzYVRYrKFA3iM+4RwxYoODCQQHwEjOmfs3ycDFi6ILzqP+zABvHR0WbSQlk0fbmNnVg09JHjWmGeOM9NmWt5LgF3q3tt2DpccYtOsTgTfmuwKcxgdIyoCeHhgUYBwtR3VoiW72P3oqsBqQh3UyjAn7tzW/nk5htuPGj+JVcXvBtysweUeJhlhnCiDfxOg4PTx9qfY9PEGdlP18PCA0+YpU6Zo4flM+QryiHKhVDR7dgnKkdNNpWA2riRgljTFSlPL1Ypna9TEEAjN5557TkaOHOnKrJm2jxLA7wZmpCNQdPpoIyegWhScCYDlbVEpNr2txaxfXjxAEOCiC+suh4eHRy2Nav3Ss4TxEYAowHKVWHQC1in2hsRHjMfjI2ArOuFEHnMSGPyTAAWnj7Y7xaaPNiyr5XYCGIeGcP/+fbfnzQxJwBcIYN4A1kpHoOj0hRZNXB04aShx3Cx9FhzzcsympZuIhSMBEiABvyEAS/no0aN1fWerMcFwKs/gfwQoOH2szXEj44ZG4AQhH2tcVocESIAEvJRAp06dokTnJ598QtHppe2YlGKzSz0p9Cx2rm23Bd4mcYMzkAAJJI0Au9STxo9nk4AtARhFIDgRaBSxJeP7nyk4faSNOTDbRxqS1bAcAQpOyzUJC+TlBIzoxCS1ZcuWcclkL29PR4tPwekoKYvHM5OE6HrC4g3F4nkdAQpOr2syFtjiBGAggW9fzDWoUaOGrF271uIlZvGcQYBjOJ1B0cNp4G3RTBKCuxoGEiABEiABErAqASwgMHnyZF08PLvwDGPwfQIUnF7exhi3acbDYNwm/eZ5eYOy+CRAAiTgBwQgOs3M9ZkzZ3LJZT9oc3ape3kjm650dkt4eUOy+JYlwC51yzYNC+YDBMwzjMPBfKAx46kCLZzxALLyYdsblWNgrNxSLBsJkAAJkIA9Auhah9jEmuvwIc3guwQoOL20bdGVznGbXtp4LDYJkAAJkIAmgK51M/cAPqTHjBlDMj5KgILTCxsWM/zMMmG9e/fmuE0vbEMWmQRIgARIIJIA5h7gWYYwYsQIwTOOwfcIcAynF7ap6UrnuE0vbDwW2esIcAyn1zUZC+yFBOgqyQsbLYFFpoUzgcA8Hd3WBdKQIUM8XRzmTwIkQAIkQAJJJkBXSUlGaPkEKDgt30T/FhBvgMYFEpcE+5cLP5EACZAACXg/AbpK8v42jKsG7FKPi47FjrEr3WINwuL4BQF2qftFM7OSFiLAZ52FGsOJRaGF04kwXZmU7ax0dqW7kjTTJgESIAES8CQB21WI8Oxj8A0CFJxe0o5Dhw7VJX322Wc5K91L2ozFJAESIAESSDgBdK3jWYdgnn0JT4VnWI0Au9St1iJ2yoM3POMGaf/+/YKbkYEESMA9BNil7h7OzIUEbAlgzkLx4sX1Ls5ZsCXjvZ9p4fSCtjNveHjjo9j0ggZjEUmABEiABJJEwNbK+frrrycpLZ5sDQK0cFqjHWItBVZd6Ny5sz5+//79WOPxAAmQgGsI0MLpGq5MlQTiI0ArZ3yEvOs4LZwWby+suoBgVmGweHFZPBIgARIgARJwCgFYOUePHq3TopXTKUg9mggFp0fxx505rJthYWE60siRI+OOzKMkQAIkQAIk4GMEGjVqJAULFtTPQq6z7t2NS8Fp4fYz1k3zhmfhorJoJEACJEACJOB0ArBy9uvXT6drnolOz4QJuoUABadbMCc8EyxhCesm3uw6deqU8AR4BgmQAAmQAAn4AAFYOWvUqKGfiXg2MngnAQpOi7abWcLSvNlZtJgsFgmQAAmQAAm4lACsnC+//LLOY+bMmS7Ni4m7jgAFp+vYJjpl8waHNzpaNxONkSeSAAmQAAn4CAE8C42Vs3Xr1j5SK/+qBt0iWbC9jRsWOru1YOOwSH5HwNyPdEvmd03PCluMgFkEBUPNjh49arHSsTjxEaCFMz5Cbj5uZuHhTa5x48Zuzp3ZkQAJkAAJkIA1CeCZaKyc5llpzZKyVPYIUHDao+LBfVOmTNG5m/EqHiwKsyYBEiABEiABSxEwz0bzrLRU4ViYOAmwSz1OPO4/aLrvuGa6+9kzRxKwR8Dck+xSt0eH+0jAvQS4+pB7eTszN1o4nUkziWmZyUJcMz2JIHk6CZAACZCATxLAjHV0qyMsW7bMJ+voq5Wi4LRQyxp3D/Xr17dQqVgUEiABEiABErAOgSFDhujCmGemdUrGksRFgIIzLjpuPGa7jCVdIbkRPLMiARIgARLwKgKBgYG6vFgcBTPXGbyDAAWnRdppxYoVuiToTmcgARIgARIgARKwTwDd6r1799YHhw4daj8S91qOACcNWaRJzMQEThaySIOwGCTwgIC5NzlpiJcECViHgJk8RJ+c1mmT+EpCC2d8hNxw3PgTw0BovLkxkAAJkAAJkAAJxE7ATB5Ct7p5hsYem0esQICC0wKtYPyJGf9iFigSi0ACJEACJEACliZgnpnmGWrpwrJwQsHp4YsA3QLr1q3TpWjUqJGHS8PsSYAESIAESMA7CJhnJp6hnDxk/Taj4PRwGw0cOFCXgL43PdwQzJ4ESIAESMCrCJhudRR6woQJXlV2fywsBaeHW91YN9u3b+/hkjB7EiABEiABEvAuAsYnp3mWelfp/au0FJwebG9b35uNGzf2YEmYNQmQAAmQAAl4HwH45MSEW/rktH7bUXB6sI0OHTqkc6fvTQ82ArMmARIgARLwWgLoVq9du7YuP5e6tHYzUnB6sH1Wr16tc+dSlh5sBGZNAvEQgP9N+uCMBxIPk4AHCTRs2FDnbp6pHiwKs46DAAVnHHBcfciMOTEz7VydH9MnARKIn8ClS5fk9u3b8UeMEQPnxBSm9+7dS1RaMZLmVxIggTgImKUuw8PD44jFQ54mQMHpoRawdVRLZ+8eagRmSwKKQIcOHWTQoEGaRd++fSVLliyyZ88ewQpDZ86ccZhRmTJlZP369dHif/XVV/LKK69E28cvJEACziVgZqtzHKdzuTo7tZTOTpDpOUaA4zcd48RYJOBqAv379ZdUqVPpbH766Sf5+eefpXz58rJq1SotPl2dP9MnARJwHgGM4+QkXOfxdGZKtHA6k2YC0jpy5IiOzfGbCYDGqCRghwBEohnDhcP43qxZMx1z1KhRgu62IkWKyIABAwRd3IsXL5bnn39emjdvLl27dpVp06fJb7/9JrBuHjx4UHr37q0tnF26dJGrV6/KjRs3pHPnzhIQECDlypWTH3/8Uad9/vx5eeaZZ/T+Fi1ayMWLF/X+mH/2798vlSpV0vEGDx4s169fl6ZNm8qMGTOiotarV0+WLFkS9Z0fSIAEEkbAuEfiOM6EcXNnbApOd9K2yWv27Nn6G8dv2kDhRxJIBAG8tP3555+ybds2ffbEiROlatWqgl6Ed955R8aNGyfffvutTJ8+Xb777jvBGM2ZM2dKyZIltbg8evSonDhxQnerFy5cWEaPHi1BQUGyfft2Pf4S561du1YWLFggEKFt2rSRffv2yUcffSQnT56U+fPnayF6+vRpu6XftGmTLsecOXNk2rRp8vvvv0uFChWiHFVv3LhR5/Xwww/bPZ87SYAE4ifAcZzxM/J0DApOD7QAx296ADqz9FkCOXPmlKeeekpmzZol586d04IO4yYhKgsWLKjF3K5du6Ro0aKyYsUKzaFYsWJaMEJgmpAxY0ZJkSKF7kbH1gRYIpHO0qVLtcUzf/788tdff+l8unfvLpUrVxazYpg5x3Zbq1YtadmypfYVCLE6b948wRrQsGjCSopyw+KZPn1629P4mQRIIAEEOI4zAbA8FJWC00PgkS39b3oQPrP2KQLt2rXTXenoTn/00UelUKFC2hF02rRp5e7du/r/E088Ia1bt9b1zps3r8P1P3bsmKRJkyYqnR49emiRCYsmxC5CqlSpYh3vaZtX6tSpJXny5Nq6WqVKFZk7d66gtwPlZyABEnAOAfrjdA5HZ6dCwelsog6kZ6wsHL/pACxGIQEHCGDMJsZQDh8+XMwysRCX2Pfaa6/pMZhwQxYSEuJAatGj4MUQFk8IzRdffFF3y9+8eVOPE0V3O9whobs9tjGcGFMWERGhra/ofjfjS1966SXdjY/zbcegRs+d30iABBwlwHGcjpLyTDwKTg9w5/hND0Bnlj5NABZGCMwLFy4IJvAg1KlTR+rWrSslSpQQdINjrOYbb7xhlwNcINkL2P/qq6/K2bNnpUCBAnriD14U0U2O8Zy//vqr5MqVSwta5GHbFY/0cD666tHdlyNHDoGFs0mTJjordK8fP35c2rZtq62e9vLnPhIgAccJcByn46w8ETOZclR83xMZ+2ueGL+JGa8IRO+vVwHr7U4CGNcJf5rFixdPUrYQrBC2+fLli0oHM9gxOQmTjHAstoCZ6eiCtx0zCosovmOyUxE1i56BBEgg6QRq1qwp6M1ArwPdIyWdpzNToIXTmTQTkBbHbyYAFqOSQBIIZM+ePcliE9ljXKit2MQ+jBEtVapUnGIT8dKlSxdNbMIyCg8VsHZSbIIQAwk4lwDHcTqXpzNSo+B0BsUEpMHxmwmAxagk4KMESpcqLSNGjNCumny0iqwWCXiEAMdxegS7Q5myS90hTM6LZMaKwRk0l7R0HlemRAKuImDuWQ6BcRVhpksCziOAiYEYPgNXZhgGw2AdAhScbm4LPrzcDJzZkUASCfCeTSJAnk4CbiZg7lkadtwMPp7s2KUeDyBnHl64cKFOrkaNGs5MlmmRAAmQAAmQAAk8IGCesaGhoWRiIQIUnG5sDKzTjABTPwMJkAAJkAAJkIDrCJhnrutyYMoJIUDBmRBaSYwL9ykItq5RkpgkTycBEiABEiABErAhULt2bf3NPHNtDvGjBwlQcLoR/pEjR3RuWNOZgQRIgARIgARIwPkEzDMWq3wxWIcABacb2wLOaBGKFSvmxlyZFQmQAAmQAAn4DwE+Y63Z1hScHmgXs/yWB7JmliRAAiRAAiTg0wTMMzY8PNyn6+ltlaNbJDe2mHHVQH9+boTOrEggiQR43yYRIE8nAQ8Q4H3rAejxZEkLZzyAnHXYuETiDHVnEWU6JEACJEACJGCfgHGNZJ699mNxrzsJUHC6ibZxz2BuAjdly2xIgARIgARIgARIwOMEKDjd1AR0z+Am0MyGBEiABEjA7wkY10jLli3zexZWAUDB6aaWMC6R6tev76YcmQ0JkAAJkAAJ+CcB4xrJPHv9k4K1ak3B6ab2CAsLc1NOzIYESIAESIAE/JuAcY3EZ691rgMKTje1hXHP0KhRIzflyGxIgARIgARIwD8J0DWS9dqdbpHc1CZ00eAm0MyGBJxMgPeuk4EyORJwEwHeu24C7WA2tHA6CCop0UJCQvTpdImUFIo8lwRIgARIgAQcJ2C8wtA1kuPMXBmTgtOVdB+kHRoaqj8FBAS4ITdmQQIkQAIkQAIkQALWIkDB6Yb2MD44aeF0A2xmQQIkQAIkQAIkYDkCFJyWaxIWiARIgARIgARIIKkEjJHHGH2Smh7PTxoBCs6k8ePZJEACJEACJEACJEAC8RCg4IwHEA+TAAmQAAmQAAl4H4HChQvrQnOlP2u0HQWnG9rBXOzm4ndDlsyCBEiABEiABEiABCxDgILTMk3BgpAACZAACZAACZCAbxKg4HRDu5q1XM3arm7IklmQAAmQAAmQAAmQgGUIUHBapilYEBIgARIgARIgAWcRMEYeY/RxVrpMJ3EEKDgTx41nkQAJkAAJkAAJkAAJOEiAgtNBUIxGAiRAAiRAAiTgPQSKFSumCxsWFuY9hfbhklJwuqFxzcVuLn43ZMksSIAESIAESIAESMAyBCg4LdMULAgJkAAJkAAJkAAJ+CYBCk4ntmtISIjgf8wQHh6udwUGBkY7ZC9utAj8QgIk4DYCsd2/sRWA929sZLifBNxPwN79a5655hlsWyrev7Y03POZgtOJnIODg2XgwIHSunVru8LTZIULvU+fPtK2bVuzi1sSIAEPE+D96+EGYPYkkAQCvH+TAM9Np6Z0Uz5+k0379u2lSZMmsm7dOqlRo4YMGzYsqu6hoaEybtw4+eSTT/S+BQsWRB3jBxIgAc8TiOv+xYsi71/PtxFLQAKxEYh5/+K7Cbx/DQnPbZPdV8Fz2ftmzjVr1tSCE7UrWLCgmElDtrWFGF27dq3tLn4mARKwAAHevxZoBBaBBBJJwPb+NUnEfA7z+WvIuHfLLnUX8B4yZEhUqvbEJg7axomKzA8kQAIeJ2B7b/L+9XhzsAAkkCACtvevOTHmfWwvjonLresI0MLpIrb23rJMVny7MiS4JQFrEuD9a812YalIwBECvH8doeT+OLRwuoh5XG9QcR1zUXGYLAmQQAIIxHWPxnUsAVkwKgmQgIsIxHWPxnXMRcVhsg8I0MLpwkvB3lsWrZsuBM6kScCJBHj/OhEmkyIBNxPg/etm4A5kRwunA5ASG8Xem5S9fYlNn+eRAAm4joC9e9XePteVgCmTAAkkloC9e9XevsSmz/MSToAWzoQzS9AZtm9ZtG4mCB0jk4DHCfD+9XgTsAAkkGgCvH8Tjc4lJ9LC6RKs/yZq+0Zl+/nfGPxEAiRgVQK296ztZ6uWl+UiARL4l4DtPWv7+d8Y/OROArRwuoE23rIQ6HfTDbCZBQk4mQDvXycDZXIk4EYCvH/dCDuerLjSUDyAnHGYb1bOoMg0SMAzBHj/eoY7cyUBZxDg/esMis5JwyMWTrPE1OrVqyU8PNzuSjzOqR5TcScBrOaAEBAQoFdYwrJijRs3dmcRmJcbCJw+fVpWrFghe/fulbNnz+r/bsiWWbiYQI4cOXQO2ObMmVPq1asnZcqUcXGuTN7dBPj8dTdx9+TnDc9ftwrOPn36yMyZM+XSrfsSUK+V5Kr4iGTIV0wy5g90T4swF5cSuHI8VKd/9cRBidi6XM7uWiNFMyWX2rVry8iRI12aNxN3PYFZs2bJ33//LVgNt1q1alKyZEktTCBOGLyfwJkzZ3QlsMXLxIEDByR58uS6nVu3bu39FfTzGpjn7225LY+0ricVGzwkAYH5JH9wgJ+T8Y3qHw8J1xUJDz0hW//cJjv+/kcyqX9Wev66RXDijapt27ay59AxeajHaMlTuZFvtDBrES8BiNDNI1+V1JdOyLJlyyQ4ODjecxjBWgRg0Rw7dqxAiOA+htBk8A8CaPOJEyfK+fPnZeDAgZI7d27/qLgP1dI8fw+HH5ZeY7tL1cZVfKh2rEpcBCBCh78yUi6FX7LE8zfFuyrEVeCkHlu4cKHAHVDmWq2k1gfzaM1MKlAvOz91puxSpPErcjHihHw3rJ+kSZNGqlat6mW18N/i7tq1SwYNGqTbrHPnztqi6b80/K/m6dOnl1q1asnly5dlxowZki5dOilSpIj/gfDSGpvnb53nHpYPf/9AAoLye2lNWOzEEMiUI7M88WpjiTgeIR/0Hebx569LLZy42Js0aSL1PvyFVs3EXC0+dg6snaFfdpAvhr/LsZ1e0LYQmx9++KH06NGDVk0vaC9XFxHWzkmTJkmrVq04ttPVsJ2Qvnn+fvz7h7RqOoGntycBa+enr3wpw4YM99jz12WCE2b84sWLU2x6+1Xq5PJDdO4c9IQlzPtOrppPJYdu9F69elFs+lSrJr0yEJ2ff/45u9eTjtKlKZjnL8WmSzF7XeIQnf0aDfLY89dlghO+r9I070/Lptddkq4v8KHfxkmKDTPol9T1qBOdw3vvvSdPPPEELZuJJui7J8K7yIYNG2Tw4MG+W0kvrxmevy0HNadl08vb0RXFnz/mV1k7bYNHnr8uWWlozJgxcujyPYpNV1wtPpBm0aav6+sD1wmD9QjA5dG9e/coNq3XNJYoEWa94vrAdcJgPQL4Xb2s/nFykPXaxgoleqpTM319eOL56xLBOWLECCn50kArsGUZLEoA1weuEwbrEZg7d640bdrUegVjiSxDANcHrhMG6xHA72q7QS9Zr2AskWUI4PrwxPPX6YITqjlFYFVaNy1zaVmzIHCNdStzPsHAdgbrEIDVKjAwkNZN6zSJJUsC11jZsmUTTCxjsA4BPH+DawTSummdJrFkSWD9zhyQ2e3PX6cLTnazWPL6smShcpSppQcvW7Jwflqo3bt3+2nNWe2EEggKCqLgTCg0F8fn89fFgH0o+fIPl3X789fpghPtUfjxdj7ULKyKqwhgpSlMQGCwFgH4XWQggfgIwMqJFYkYrEWg8SuPW6tALI0lCWClKXc/f50uONetW6eXq7QkYRbKUgSwrGl4eORyXJYqmB8XZt++fXTu7sftn5CqY0nTs2fPJuQUxnUxATx/sVwlAwnERwDXibufv04XnGFhYVxNKL6W5nESsCgBCAiujW7RxmGxSCAeAnj+cm30eCDxsMcIOF1weqwmzNjrCGTMHyj4gWQgARLwPgK0cHpfm7HEJGAI4MXE3c9fCk5Dn1sSIAESIAESIAESIAGXEKDgdAlWJkoCJEACJEACJEACJGAIUHAaEtySAAmQAAmQAAmQAAm4hAAFp0uwMlESIAESIAESIAESIAFDgILTkOCWBEiABEiABEiABEjAJQQoOF2ClYmSAAmQAAmQAAmQAAkYAhSchgS3JEACJEACJEACJEACLiFAwekSrEyUBEiABEiABEiABEjAEKDgNCS4JQESIAESIAESIAEScAkBCk6XYGWiJEACJEACJEACJEAChgAFpyHBLQmQAAmQAAmQAAmQgEsIUHC6BCsTJQESIAESIAESIAESMAQoOA0JbkmABEiABEiABEiABFxCgILTJViZKAmQAAmQAAmQAAmQgCFAwWlIcEsCJEACJEACJEACJOASAhScLsHKREmABEiABEiABEiABAwBCk5DglsSIAESIAESIAESIAGXEKDgdAlWJkoCJEACJEACJEACJGAIUHA+IHH7ygW5HLbPcOGWBEjARwlcv35dbt26Fa12+H7jxg25e/eu4Pi9e/eiHU/KF3v5JSU9nksCJOA6Atev3JBb12+6LgM/TtnvBeeZf1bL6r6NZW7L/LLg1Yqy+H9lZO/UYVGXxJHFkyRk9mdR35314d6dW7J/xkg5tmKWs5JkOiTgkwTu378vTZo0kVq1asmRI0ei6vjDDz/ofWPGjInaF98HCMqGDRtKhw4doqL27NlT6tevLyNHjpRp06bp4+vXr486ntAPf/zxh0yfPl2fZi+/hKbH+CTgywTaFHtZHknRKNr/1yt2lG3Lt8db7R8GTdTnbVm2Nd64jkS4e/uuPJGlmXSp1cOR6IyTQAIpExjft6KrB9n2UT3l7MFdUua5XpIqQxbZN2+U7Jg8TDIWLC4F6j0rofPGyJkDOyX42V5Orfu9Wzdl24Qhkr9SfSlQv7VT02ZiJOBLBJIlSyYNGjSQuXPnCoRg4cKFdfXWrFmjt4888ojD1UVaLVq0kFy5culzTpw4EZUmRC0smy1btpS8efM6nGbMiDNmzJADBw5ImzZtJGZ+MePyOwmQQCSBJ15poj+cPHxStqzYKsPbfiSzwiJf3GJjdEcJRIR7d5zTI5EsRXJp1qGp5CqQM7YsuT8JBPxacF4JP6DFZo5iZaTMqx9ojBkLBMnRpdPkzrVLsmfye3Lx5FG9/+/+TaX6oOnKGvqE5Cj7sNy+ekFunDspwa16yK7vB0mRJq9IkSc6yPn9W2T7192UiHxWgp7pLldPHpad37wlEfs2SbYiZSSg9tNStOnrsvHDtjrdiP1bZcfY3pKvxpOxplP0yQ6yqs/j0fKt9cEvqpxTJeSnL+XahdOSM7iSVOj6laTPXTAJlwNPJQFrEoCohOBcu3attG7dWq5cuSK7du2SPHnySKlSpWThwoUydepUOXv2rJQpU0befvttyZ07t8yaNUsfa9asmfzyyy/SsWNH2bNnj1y9elUiIiJk4MCBusKXL1+WnTt3SkBAgISGhsrFixf1/s2bN8s333wj4eHhUqVKFUE61apVk2vXrslXX32lxWry5MmlUqVK8tprr8n8+fPl2LFj+twePXrIJ598EpWfITtnzhyZOXOmjhcUFCSdO3eW6tWr63ifffaZVK1aVX8+fPiw1KlTR7p06SKpU6c2p3NLAj5JoM/3kUYd9Gi0yv+8RByPEHRvp8uYVhZPXiKzPv1Jzp++ICUqB0uPMd0ld6HIl0bAWPf7Ovm6+2i5feu2NGnfRF5+p40gnZkjZ8uiSYvl6qVrUrJqCWnZ9WkJrhQkbz/eX9JmSCufLP1IvxSO7vGN7FqzW3qN7S4Hth6Q65evRTGe9/UvMne0et6GhElw+SB5bXh7qdqkquxYuVPG9h4ndVvVka1/bpNS1UvKK0Mjn+tRJ/NDNAJ+LTjT5y0sqTJm0aJzSYfySvSpN5sK9ZTkCCWnAAA6uUlEQVSwnCHJUqRUXemfR8FKlSmr3L93V07v26L/40CeUlXk1sWz+nvuyo/quHeuXdTfs5eupuOveecpOX/0gOQMKifHt6zQ/9NmzyspM2bW8VOqB0nKdJniSefef/KN2P6XrPv4dV3+7IVLSNj6RXL5WGNp9P0OSZY8hU6bf0jAVwhUrFhRsmTJogUexltu2LBBVw3d41u3bpX33ntP0qZNK4GBgQLLJ4Tl7Nmz5eTJk7J37179HyfAgonvd+7cEQjFjBkz6nTSpEkjGTJk0PG3b98u58+fF1g/u3btqo8XL15cli1bpv//9ttvWlhCXEIwpkuXTn7//Xe5efOmlCxZUsfHn0yZMumHnskP+xYvXiyffvopPkrp0qVl9+7dgi59dOVD9EJEGyF96tQp+emnn6Ry5cpSr149fQ7/kICvEviqyyhdtfADx+Xc6XNS4/FqWmyia/3D/30smbJkksKlCsnaBeslrGEfmbRnQhSKOaPnSYmKxeXo1jCZMOQHqdqoohKfd+Xb/t9Jrvy5JLhikKz6ZbXsWrtb5pyYKcmVJRNW1NCtoVK0XFFZpARtqjSppFCpgrJns/p9uH1Hp7106jL5skdkuUpXLSW7N+6Rt5sOkIk7x8uVC1d0XMRHCHooUG/5J3YCfj2GM3nK1FKz/wTJkq+QFoW7Z30hfw1sIYvbl1Xibb/qRu8pWfIW0vSqDZiqhNy/+rx672+k7md/xk5WHTm7a41OF93mDcasl/oj5ku+CrXl+pnjUrFr5EUMq2fpdkPiTMf2oMn3yKKJenfF14ZJ1f5TJH/FunIh/JCc2bnKNjo/+zGBkJAQn6l9ihQpokTXtm3btPBE5SA4f/31V13PXr16ybBhw7S1EWIR8UyAVRLWTmxNyJEjh7z++uv668MPP6wtp+YYtgsWLNBfEWfixInaEgnhC2snrKft2rWT4cOHS9OmTXU8WDbRjV6gQAH9/f3339eiVn958AfWTYQvvvhCxo8fr62i+A7rqwkVKlTQFtCPPvpI7zJDB8xxbknAFwnM/UZZEtX/DUs26uplzZ1Nd5X/8f1C/f3Nj1+TQT8OlEr1K8qxg+GyfeWOKAwvvv28jN00Wlp0bK73hYee0C+XL/Z9QQb/OEBav9VKC1YI2ZtXb0iD5+rreJuWbpHd6/bI5YuXpc7TD0uKlP8+4xFh/tjfdLyRf4yQ0eu+kv8Naae///rt73qLP/kK55XPl34ir414NWofP9gnEJ2u/Tg+vTdv1SaSd1ITuXhwh0RsXS5HlqhuOTWmM3Tu1/JQ16/t1h1d8IUfi7zwYkaAGd+Ea6ciJzhkU93dCLkrPar/4/Oda5exiTXYpmMi2eZ77WRk2hs+72IO6+011YUvFaLt4hc/JlCoUCEZN26cNG7c2OspYBwnrIroVv/777+jutMhABEg/mwDRKcJGLcJIYhJPI4GWEcR0GWP8OKLL+r/+AwL6ZQpU2TSpEn46nA4ejRyiM5DDz2kz4GARTh+/Lje4k+5cuV0F3rOnDn1vtu3b0cd89YPePlp27atTJ48WYKDg721Giy3Cwn8dm6eTv3s8bPSs0EfWThlkTR780nBmE6EkW9En7xr9uNY2YfLYiM58ufQ27t37kpAYH6ZqCya0z76Ue+z/VO/dV35qudo2bR4c1T3eYMX/jsWPDw08r6sUK+cPr1CvfJ6e+KgKlPDyBRrNa0hDz3Ch64t39g++7XgPLt7nawf9pLkqfiIVO79nWQpVl5yVqwvi9+sKae3xG69TJU+UxTP5KnT6s93b17V2+sRYVHHMhWKfFDdunRG77t0ZLeELZ0uOco/LDnL1I6Khw9xpWMi2uabOnPkw6hq9y8le+macvfGNbl767pkLhyZpzmHW+cTuHTpku5GTZUqVYISh3BIqd6gMZHEBHTxQgQlNC1zflxbPNhr1KihZ3gXLFjQ64UnupbRbY7xjwiwJiJky5ZNb/v27Stly5bV7o3Q7V6kSBE9HhMHTde5jujgH5yPYMZzQuTu2LFDnnjiCfnwww/1GEx05aMbH2LUkYDJSkgP1tBixYpJWFjk74WpA9JAV7+vBCM0161bJ88++6wlxKa33L++cg04Wo8MWTLoqOkzp5ccebPrbvUzx85IlpxZ9P5eo3tImZql5IZyWXTrurq/SxeS2ft/1sdSpvqvlJnywXTZtnK7vPBWa3mm5zPSo24vbRnFCdlU+rCUbl6+RS5EXNDd7uXqlP3P5CNTjmMh4brr/di+Yzq/rLmz6i3+pM8cWe6oHfwQKwHf+WWLtYqxH8hcqITcvH5VQhdPk9X9npB900fIlk8iu9gKN3pZn2jGQx5e8L0ejxUztYwFIt/WDyyaKtu+7irrP+kYFQWWzXTZc0nIgsl6PCjS3jXzMyU4Uqju+Uj0V08clFObl0hc6UQlaPMhV4W6+hsmOJ3duVo2jmgry/s0UaLzhk0sfnQGAbjQGTRokE4KogZjCTHxBMLxzJnIlwlH8sFklpjudjDx5JVXXnHk9ETFQRczAoQNZmHD4okJNt4Y0K3+6KOPRhUd3ekImLCDgLGVGH/5zjvv6O7vWzej+9rUkRLwp2bNmjo2ur7h5uiDDz7QVk1YHo2lFEIW7plsgxGM6OqP2VNRt27kffvuu+/Kd999J99++60+1ey3TcebP0Nogh/GvkJsIphr0d318ub7192sPJnf4JZDBf87V+8mITsO6KI8VL+C4D/C4ilLZMeqf+SDNsOl56O95eaNuC3/Zhxmjnw5ZOEPi6LE5r0HnZCmWz30n4O6i93WEKAzVH9qNquhP37Y9mOBC6ZJ70/V3x9uHvnbYOJx6xgBvxacqTJmk9pDZkihmk30ZJ7tE9+TG2oSUPGm7SWoZVdNMF/Npnq74fOuahLQnUiqNpNyMgYES+G6T8vtKxdl/6/fazdHkZGUFUsJknLtBuuvW78bqCf+IG10radIm0EK1WoqF08c1X4/40wnMkFl+khhPkmx5h2lVKtucunEIdk0qpdOp2q3L9Qs9UJRcfjBOQT69+sfNdYOkzh+/vlnKV++vKxatUqLT+fk4ppUYOWEZckEbxeexgWSmZ2OerVq1UpbO2E1xKxwTLbp06eP5Mmbx1Q7mlU5aqf6EPMhY75DNBYtWlTPSke6o0aN0pZJiFlMLnrppZd0Mhg3itnusLxiVjlmv5sJPrCCxnQgD0sojsNtEoTquXPn5OWXXxaMITXBlCHm1hy38tae0ER5PWnd9Ob718pt7eyyYVIP/mMSTmDZYjJs7nuSOWdmadGluTzX81k5fvCEfNn9azlx5KT0VJ5g8hTOjUesDvbulWavN5HsubPLKDXf4vfxf+gZ5oi8f/N+fQ5ml5vQ4PlHzMdo2+fffk7qNK+tBfDk4dP0zPk2fZ6XWk/9KzhNGaKdyC92CSRTb+D/Djq0GyVhO9HwrRf/61IgYWd7Lva92zeUC6MjkqlAcS0UbUty5/oVuXf7pqTOHDk+xPaY+Xz7ynn1MZmaNf6vqd0cu3vjqlw5HqpdFkHk2gYcu6+6VVM+6KaPKx3b88xnzJy/cixEMuQrIslTRXbvm2PesJ31WPr/WIGcXW6IRLi2wSxjBHzH2DtYoCAkPv/8c22xQhctrFhLly6VCRMm6BVnYBFENyisWnA6/vHHH+uuUFjTXnjhBVmxYoUWG2+99ZbMmzdPsmfPLgMGDNDHMNMZ1hVYeDBZBZM/MDkE3dwmYPIIZijDYgah9Oqrr0r//v31Axqi5vnnn9dRIVIgdho1amROdXgLEQBLk70Qs6sdeY4dO9ZeVMvvg7hDG8G1kTPdCKEL9vTp09o6bJsuXCNBYBqfnraAcAzjPDNnjvRGYXsMn02aKCtmuXtrePPNN7U7Ktuuc3t12b9fTcJM5NhNf79/7fGMbR+ev8vvLontsFfvh6/NsP1hkr9YPkmVNrVDdYEj91NqDGi+oPz/ebl0KIEHkS6dUb8BYRESEKzuV+WmyVcCHO47WQLGiSZlnEf96CDEWqaCJezWOGW6jKKuMrvHzM6YQtLsxxbWTIwPtRdwzDbElY5tPPMZXf6ZCpU0X71ya95OXVV4WKBgYcGsZUzWwIxjCMBDhw5pEYeZwxAHb7zxhnYqjtnLGCcIX46dOnUSzDbG+Et0q2P/6NGjtTscdN9iPyyemMiCWc3YQriimxcWLEw8wUQXCE0IUnth06ZNgjLkz59fjwWE9RQzlSF6ITg3btyou4phBXM2K2PxNMLTXvm8ZZ+xSjq7vBCN9oRj+vTpBf/thdj2m7ixpWmOe8sW/lDRdW66zWMrd2wvPLHFt93P+9eWhv9+Tp4yuRQuXThBAFKkSiH5lUhMaoClFf8ZkkbAr7vUk4aOZ3sLAVgnn3rqKe0WB12Y8JmIcZMQjxBaEI7wfYguVFgsETChA25pzKo22IfxehhHiDGc2JqAlWWQDiyjsHhBOP711186n+7du2s/isbBuDnHdoslG7G6DSyfEKsQpuhmXbJkifYHCXc+cL0Tn4ixTZOfScBXCPD+9ZWWZD38nQAFp79fARaoP0z6rvyPKsJnIrrm8B8TT9BVDusext6hOxv/MfsYq9ggJGRpQ4zxg+Nwkw5WmMGManTD4mGJgFnoEKr2gm1e6LKFpQ4OxLGyDVbXgQNzlB8hMZzQnRlbgFCGZRbuenzBdVJs9eR+1xDASxis+rjGbIeK2OZmrrHEXLs4B8Gf79+EcLPlzs8kYDUCFJxWaxGWxyUEsCQh3NHAV2P79u11HhCX2IclCbG8ILoFMRYtoQHd9bB4QmhiUghmH2PVGeSJ2c3odoeoM+51Yqa/evVqPfEE1ld0v+M8BIynRDc+zjczsmOe68h3e9ZVIwIoNB0h6H1xrl+/rq8bd5Uc4zNjE554scPwkKQEf75/k8KN5zqfAMaSOmvtdueXztopUnC6qX0uHvpHwlfOcUlu4at+ll+fT9jYFpcUxMKJwsIIgXnhwgWBE3AErFMNdzQlSpTQ3eAQXxjHaS/ENnYS+zHRB2t4w7E4JoHUr19f0E2ONbAxMQmTSiBo0dVu2xWPfHA+rER4YGPsKCyccF+EgO51OASHw2zjakcfSMAfCGhYSE2g0Ix0n3Tq5CmDJMlbtJdZajPJiSUxAUycwksKXlAwRtndITbhiZe5pLjj8tf7193t5435YULPvFHzBROE3BH6PTFQZn/umme5O8rvyTw4S91N9Ld91UVuX78sVftOcnqO104flZsXIiRb8cpOT9vVCbpjlnp8dYBlEf40kzKxAXlAsOLBmC9fvqgsb9y4oR/8WHMbx2ILsEihC952zCgsoviOyU5FihSJ7dQ490NkQ3BCaDqy4pA3z1KPE8SDg2hrjIfFuFizBKUj58UWB5NmHnvsMVmhxv7azmCPLb6r90P49uvXT48DtjfRydn5m1nqsaVrO3sdPQHg7uzgy/dvQlnhBdZXZ6nHxuLPH5fL2Le/k1lh02OL4rT9GN7QPMcz8t6cIT6xupC7Z6n7rYXz/P4tsu7dVtoyuKrPY9r5ur2rMuzPGYLjc1vmU/FbqxV9rion7p/Jlk9fj4qOtJZ3qSU3zp8Se/F3fttHDq2YIye3rpDjf/8id29ekx1je8uidiVl2esV5ejiyTot7P+zU3XZM+UDvV32ZlU5sfY3Wf9BG13OtYNaKFP+f51Z75n8vlxT/jgR7OWvD/BPrATgyiipYhOJY1yordjEPowRxdKIcYlNxINrHFuxCcsoXCDBepZYsYmHPSxLVh6jCYscnJ9D6DZQS1fGXJ4SbBBgQR45cqQWi5jwtXPnToHrIVh/4YTfBPi+RPetvfjo2sXwCQT460SAmIdVG5zh1P/y5ct6PyaUwVH54MGDdZ7Ie9GiRdrdFQTr8uXLdTz43sRYW6wg9f333+t6IK3YXEshD9QX5bCNhzpgSAbK/swzz+ixupiEBi7GWo7Z2ggYK4xhG7DUg9mIESN09zn8wqL+eMlJahe2zsgJf2wtnkguKVbO2Irjq/dvbPW1+v6Lpy/IR698Iq0LtpE2xV6Wn7+ca7fIe9fvkaHPfiBPZW+pt6ePRsiWZVvl9Yodo7qsr1+5IV0f7iHrf98g9uIvm/anjO41VvvHHD8gctjG9r92SLfaPeWZfM/JwKcGy+Vzkff0sDYfyrd9xslbDd/W5fpl9Hz5rt/3upz/K9NBju4Ns1vOxZOXyJtVOgvijO8/Qa+7XrxysKCeSBPlR11t63nqyGntxB5lQPn3b4ocqnVPeZ2fOGSydKjwhi7f+P7f283TV3f6peCET81NH78imYuWk4eHzJLUmbJr5+sxGxnrq28a1VOCW/eUaj1GyYkdq7RghL/NM//8HRV9z+Sh2jXRTSU47cXPX+cZ7Ri+XNtBkrNcbdny+Ztyfs8GKffah5KvVnNZ98mbcv1suFwI3SFnDuyUMztWSvAz3eWOsoiuGtJaMinn8nAgH7Z+kZzbsz4qX3yAH06slJQ6Sw69Hry9/KOdwC9eQaB0qdJaSGAMaGIDHvZWH6M5depUvS56x44ddVcw/Jva6wqG4MNylRBUEOCffvqpnrUPB+qoIwJEmxHq9uJj+UhMxsKKT8gPPjvh9gqCcejQodoZ+5gxY3RaGI8IbwYYbgHhj8lb8JeK8b94qYCIR4DnAIhCeBbA0pcQlPAwgDXDjUDUEdUfWEMhChcvXqzTgbBEvIMHD2pPCbBOIl+IUQhhiG8M+UCZsC68uRYmKrdef/zxhx7KMWTIED3uFx4NigcXl0yZMukxwGbYiMnb01tci7Bu+svENGfcv55us8TmP1ytynP9ynUZOLWfPNK6vkwbMeM/vh6vX74ug1u9L+Vql5F3Zw+SE4dOyJwvf5aMWTJqJ+tnT5zV2f8yZr5cUMKuTK3SduNjf/qM6aT5683kif89Lkf3HJUeDd6Simpt8/4T39bfx/UdrwXs0pl/yl9zVsmjLzZQvjzzyxfdvpbwA8el06dvyNkT55Sojf5sRQFWzV0to3p8I1UaVZLGrzwu00eqhWKCC6rlLNPLu899ICePnJIBk/vKk682ka97jVE+P0/JnVu3pecjb0ka5SsUZcicI7O8/8IwXZ/5Y36VDQs2So/RXaV1r1Yy7eMZEqH8e/pL8Es/nDfV2ualXx4s+eu0kOsRx/QKQmmyRM4mtm34o2rd8zTpMihBmlOyq4fSI/mKSdoceZTo2ygXwiMtihCAxzYskaZT9kjoL9/YjX/tdLhOtuCjL8pVZYlE/CcmbJc0WXNLvprN5J/pHysL5WElOLfrpTAfHj5fO3E/tOAHyVK0rJT+31C5dUndgGq1o5jO5y8f3avTzhr0kOyd/pHd/G3rxM/eQSAwKFDw39cDXFFBWEEM/vPPP7q6sODZBnxfuXKlXlEI7qqwuo8RmfiOoQgIsBxCaGGsrL34GCsL6x8EJoQkxjpCLBqrJyyX8ImKgDXTYXHEkATsg8UT8SGcIAaNJRT54z9EIdLPnSu3HnsLYRvTK8HevZH3Kpz9Y4hD9erVtSUSDv9xDFZ2DHtAtyjG/GLRAIzjRcCkGUwug1UXwhcLGaAOCKVLl9ZjfeFlASIXYtrWWq4j8Y9bCfjL/RsTKsZR1m9dV+o/W0+td35TYG28ffN2zGhycOchbZXMlD2TlFdrmA/+cYDyhXxXsqs1zhEiws9IxqwZZboSq91HdZEjSkhGHI+QmPFzF86jl6zs0aKb9rf5nhKBWDv9f++/gmSk0cuPytbl29T5R/T39+a8K0EVA+V46Ak5tOuwDJjytqROl0Z+GDxJPTvT6Di2f378cKa06tFS2g6OXFlsm0oLAhL1gkV0xqEp2gl9ZSVIJ74/WQnnk7L+jw2SNWdWGTCtn76XU6dLLd0f6aVF98KJiwRrxucqkEue61NWYCnN4kf+Pf3Swnnz4hk59tdPMrtxJlnWva4cXfOHZFXrnscMRZ5oL2kyZJKl3erJoldKyfn9myRt9vySMSBIR4UI3D1pqJRs0VHS5yksscW/eGCr5ChWRlKkTif7ZnykrZ2/tC4iGL84u0mkM9m0OfLKBdU1H1CtceSKQWqsyNmD/0iRJu11XhdUGgh6JST9KfIPypQ1oKha4ShbrPnbROdHErAMAYyHgsiE4IMVEeuLI0CE2gZMtDJucRAPVj0zdAHCDSILXeywEMICGVf83bt3aysnrJtYeQoWVnRZ4z+6qbFkJiYUQZiaZTRhRYUYhNhEgAsgiEzb8L///U9CQ0OlRcsWWihiklfMMZ2wwEIcoswIyAMBk8VQLohbiE3UZevWrdK8eXN9HH9QR5QNbr2QtxGbOIYVrTAxDXEw7tcZw0OQLgMJJJTAlQtXZOOiTfJc4Rfl6XzPyk9f/CzBFYP0dW2bVqkapaTyI5Vk+CsfScu8z8n0j2ZJoVKFJGO2jJIpSyZt9ftJdcXnVYKywQuPSGzxj+2L7AYvXkX15ihRuvynv+THT2cJxibi/w9DJ0mugFyyb9N+KVAsQItNlOPgjkPS6MWGWmzevHpDjoaESdFy0X93ICqxzObTnZ6KKvqVi1elRJXiMm3Yj9K43WNRKx5djLio42TLk02mfvijPq9Bysd0GSA2c+XPpRm06fe8HN59RJ4PfEk61+imVqtWvxN2hG5Uhj72we8EJ8ZAbni/jbIuKmfgM0Kl0TcblFjLIlmLV4zWtLevXlLLWd6ShuO2ymNj10r20tVl45fd1b4bahnJyAsT4yUj9m+Vki8OkLjin9+/WWCBRLgSFiKlVRf9M/Mj9P8nJu6UR7/6S6UZqC2c2UtVi4ynlsLE+uxZH0wEwjjR3CUqSbIU0Y3SFw9skyyBFeLMXyfIPyRgMQLolsaEJnSTo6sZVjxYBmPO5Ic4xDKiGNMIUQpH/bD2IUC8wUII6ybGc0K8xRbfCLKSJUrq7nOMr4XoNP9hpYRVc+++vXqJUrNkJayP6IZHwJhTLBKAcpqAdCHyMBzgq6++0nFQnpgB6diKabMUKjwbwJerSRNjbzGhCWu2I0CYghXWjEfdTLlwDIIdghNCHOnDqgoGDCTgCQLf9B4nGL846u8vZOmNhVKweAEpoax4MUPI5hD58Lf3Zeah6fKs6lr+/Yc/osZQFggKkMO7jsjsz36S10d00EIttvgQkvkK59WWz9DtB7VY/ePir2L+f/Hnp9JZDWEL2RIiJatG9gigLCHb1Evkg3IdUOchBClhbBsObA3VItWsMHTon8Pyz7pdUkKlc1hZTHPm//c+W6TGeT5Ut4JkyaHEsrLEfr3yi6gyjNswRj5b+rEW0chz1tHp8umij1TP6n1tWbXN09c/+53gPLtrre4OL9Gmn6RKn1mJzxcihV1QdAvnhQNb5M+3Guku8KzFKkhGJQjzlq2hrY8p0qTXXd+bx/SRUs90093cccW/eHBn1PKTWCbzouo6v6e6CS8d3SdrB7eQ05uX6IlEZw/uUsI0shwXQrZIxlz5JW22PPoahPUzpijGgfMhW/Xs9Ljy9/WLmPXzTgJYjQkupLDcKNaZh7URE6xiBnQzjx8/XjvXR3c4nOxDpCFAcEKswkIIwYkQW3xYKhFy5c6lJ3hByMGaiPDjjz/qrnpYJo0lUh9Qf4xVFN8xSQjBiEN8hnCEEEZ6FStW1OM6sY0ZkM6+ffv0BB/kizGZsGpCYCJgbCoCrLcQoOi6hxUYE4ACAwN12phcBksq3GXBswG61jH7G2NJITjLlSun0+AfEvAEgTW/rpUnOzSRAsEFZPyA72X3xj3/EXIo14CnBsnKn1dL7kK5pEzNUlooZlFd1Qj5g/Lp7unilYKlyuOV9b7Y4h9SXfMFggroOBC3ly9elt1rduvvsz6ZLYNavCspUqaQ/Vv+FZjnT57TotAI4f1KtBYpWfg/a6TnK5ZXd9dvXrxFzh4/K2OVmEYIVl3yGdQYzq0rtgvGoh4PPS4/fz1P2vR9XnW3Z9F1gZU3VeoUsmnJJnm9Wic5q/L8bdzvMvzlj+S6sqhWqFdB0mVKp8awltVp+suflP5SUVPPrEEVdRf0r22Ka8tmsQbPysl/1snBeWP0WEkTL3vJapI+Uxb5vV0ZLS4z5gyQyn3Gm8OSJX+gpE6TToJbddf74oqfJnMO2TZeTRgqr3w+vvC2rOj3lMxtkVefV7JlJ7Wvr+qu36K/Zy4aaUm5cGC7ZA+qEJXfhdBtUuL5t6O+6w/qYXRq1wYp1XawxJV/9JP4jQSsQQAr02ByD1wKoZsYa3Jjcg7GL9ou44nubswYhwURYhPLlEJ4ImC8JgJ8nppzYotvxGWfPn30LPVq1appiybOR/5ff/21HocJUWiEG0QdxJ/pwkZ3OmZFZ82aFafpAH+uP/zwg7YywsKIbnPMpLcNly5d0pZYWC3r1aunD0EoYoIRrLywoBpfqxDgcKOFCU2wwqIr3czexxhVTBiCtRMBeRuhjXIjbwYS8BSB6o2rysg3PtNuimo8UV1bCOep2eDoFrcNiPfByx/KmLe+VWMnU+tJNFlyZdFRMKEHAZN5TIgtfsZsmWTjMjXGeuRsad27lVRtWEV6N+mrTwssW0xG/DFMMmTNoC2THYa31/tDtoRqUWjWWA/ZekCJyP9aYSs2qChIw6RXoXZ5CS4fpLvAX+j7nHz4v49lW+HtWuS+1K+NVG0c+ZsEi+2EIT/I5GFTJXvu7NJ3fG8lMMtL2vRpZfLwadIsx9N6f3FlUX35ncgx2qaevr71Tz+cSqhdPrZfMirRiC7q21fOS/LUafUYS9sGR/f5pbB9kjZrbjV281/fineuXZYF7ctKle6j1aSfplGnxBYfETDe00z4wflXwg9I+ryF9Qz5qASS+CGu/JOYtMtOt4IfTpdVzgsTxiSa2Fz6uKI6cMSPbmqIOFjz4FPRXpcwuq3RdQwhZoQZygMrIbraYQG13R9bfMwUx9hK/Ed+4eHh2uII6yLGTyY2IF2kBddYsELGDOvXr5f+/fvrsmLGObrFY47xtD0HTNB9nj5desmdJ3e0smG2PiZN5c6dW9zha9O2XDE/x+eHM2Z8fnctASv44Txx8KRkVeIRFjxMHLp5/Zbu8o5Z8yNqLCPKi7GbtmFA03eUhTRAOn3e0Xa3xBYf7okyZc8syVMm1/f08ZBwPQEJ6SblnkbmmAR1dO9RyaPGkmJmum2AuyUMHwhQZU2XMa3tIT3r/fzJ81K4VMGocZ6IcOX8FT1hqWDJgv85J1oCbvqCca74HXRX8E/BmQS6oXNHCVb2SZenoEucuCehaF55KgWntZrN3YIzsbWH6yR0ZcMNEsRmzEk8iU3XVefBlRFmu48aNcpVWXgkXQpOj2CPNVMrCM5YCxfPgTXz18ryGStU93eIjN00xhKCLJ4ie/1hdwtOv+tST+oVcltZJ4NadpW8NZ5MalI8nwRIIJEEsFY9urWnTJkSNZ4zkUm55TSMwTTd8m7JkJmQgJcRgO/OMrXKSHflozKmxdDLqsLixkKAgjMWMLHtLvli/9gOcT8JkICbCGDSju3EHTdlm+hsMNaSgQRIIHYCDds0iP0gj/gEAb+bpe4TrcZKkAAJkAAJkAAJkIAXEaDg9KLGYlFJgARIgARIgARIwBsJUHB6Y6uxzCRAAiRAAiRAAiTgRQQoOL2osVhUEiABEiABEiABEvBGAhSc3thqLDMJkAAJkAAJkAAJeBEBCk4vaiwWlQRIgARIgARIgAS8kQAFpze2GstMAiRAAiRAAiRAAl5EgILTixqLRSUBEiABEiABEiABbyRAwemNrcYykwAJkAAJkAAJkIAXEaDg9KLGYlFJgARIgARIgARIwBsJUHB6Y6uxzCRAAiRAAiRAAiTgRQQoOL2osVhUEiABEiABEiABEvBGAhSc3thqLDMJkAAJkAAJkAAJeBEBCk4vaiwWlQRIgARIgARIgAS8kQAFpze2GstMAiRAAiRAAiRAAl5EgILTixqLRSUBEiABEiABEiABbyRAwemNrcYykwAJkAAJkAAJkIAXEXC64CxYsKBcOR7qRQhYVE8RwHWC64XBOgRy5MghZ86csU6BWBLLEsB1guuFwToE8Ht6PCTcOgViSSxLANeJu5+/ThecAQEBcvXEQctCZsGsQyBiyzLB9cJgHQIUnNZpC6uXZO/evRScFmsk/J6Gh56wWKlYHCsS2LRki9ufv04XnLVr15aIrcutyJdlshiBiB0r3f6GZTEElitOyZIlBUKCgQTiI7B//37JmTNnfNF43I0E8Pzd+uc2N+bIrLyVwPaVO9z+/HW64GzYsKGE//WTt7YBy+1GAuf3bJD27du7MUdmFR+BMmXKyIYNG+KLxuMkIAcOHJB69eqRhIUI4Pm7fNZfFioRi2JVArvX7XX789fpgjMwMFAyp04mpzYvsSpnlssCBHB94Dpp3LixBUrDIhgCuXLlkmTJktHKaYBwa5cArOC4TvCCwmAdAnj+plL/Ni7cZJ1CsSSWI4DrA9eJu5+/ThecwcHB0q9fP9k7dZjlILNA1iGA6wPXCYO1COTOnVtatGghv/32m7UKxtJYigCuD1wnDNYiYJ6/k96faq2CsTSWIoDrwxPPX6cLTlBt1KiR1C1dWP4ZP8BSkFkYaxA49Ns4KZopuXTq1MkaBWIpohEoXbq0QHjOmzcv2n5+IQEQWL16tST/f3vnHltVtefxBeIrOr51BBwQkGquo4LOKBURrgQFlRkUaB0nraZzRQOaQcVrsVFDFDS3XiVXQSSGIMU/SkfxXQ3WIHotcZw/NIpaRaCIjkREiY/4QIbvuvM77h5OT9vTc9qz9v4swtnPtc5vfX67e3/Pbz12375u3LhxAClCAnr+/u4ffueW/vHRIrQOk3qbwDOLn3V/t/dfbzx/CyI49Str/vz5bvdHzTSt9/bVVWTfr6b0//7LbHfnnXcWmWWYYwQkNqdNm+Y2btxI07pBYekJqCl95cqVburUqRApUgL2/P3wry00rRepj3rLLDWlP3DDX3rt+dtnz95UqMp/9NFHbnJ5hTtszL+5IZfOKNTXUG4gBCQ2X537r66xsbHH+44EgqiozNy+fbt7+OGH3TnnnOM0+pWUbAISmwsXLnRz586l72YAl4Kev1dUlrux/z7G/cvMyQFYjImFJCCx+cdL5vbq87egglPwTHTuN7zU/eMfFhSSJ2UXMQE1o//v6j+7pUuXIjaL2E/pppno1GCEKVOmpB9mOyEE1IyuH4ozZsxAbAbkcxOdJ48ucTP+9IeALMfUfBJQM/p//Wl1rz9/Cy44BU0XfWVlpXt/06duxOxF7u/PmpBPlpRVxAT0NqH/qf0Pd8Cuz11TU5NTcw8pLAISnUuWLPFvINLfsebqJCWDgN4mtHz5crdz505XU1Pj+/Ymo+bxqaU9fzdv2+xuWvKf7p8n/lN8KkdNshLQ24QWXF3rdm3bVRTP3x4RnCKii37NmjWurq7OC8+BY6e5Y0f+3h3Sf6g7dMCwrNA4GAYBe6Wp3jSlyf93vPeGF5rl5eWutrY2jEpgZUYCEp0bNmxw69at88Lz7LPP9sJTE38z+XdGZMHttFeaaqnmc82zKaE5evRoV1ZWFlx9MPg3AtHnr4Tn78vGupEXjHADh/V3A4bztrffSIW7Zq801ZumNPn/O3991wvNYnr+9pjgNDfqwldS06qaabZt2+a2bt1qh1kGTkDvZtXr1dTnT5MQ9/Q8X4HjK3rzJTyV1q5d60XJjh07nP6T4kFArzbVf0WxNccm82zGw69WC56/RiKey2J//va44Iynm8OpVWlpqTe2ubk5HKOxFAIQgAAEgiAgUVtSUuJfm9ja2hqEzRjZMwQKMi1Sz5jOt3SVwIsvvujWr1/v/2udBAEIQAACEMgnAXWdUxo1alQ+i6WsGBBAcMbAiZ2twrx581KnRtdTO1mBAAQgAAEIQAACBSCA4CwA1GIs0qKbZpsinUQ5jQZLCEAAAhDIB4FNmzb5YgYPHpyP4igjRgQQnDFyZraqZIpoZtqXrQyOQQACEIAABLIR2LJliz88ZMiQbKdxLIEEEJwJcHp6dNOqTJTTSLCEAAQgAIF8ELBZZ4YOHZqP4igjRgQQnDFyZntVyRbJzHasvfLYDwEIQAACEMhEQFMdKuntZCQIRAkgOKM0YrjeXnTTqkqU00iwhAAEIACB7hBYvHixn1db80HyVrnukIxnXgRnPP2aqlV6BFM3gvSUfk76cbYhAAEIQAACHRHQCyGUqqur/ZIPCEQJIDijNGK2Ho1uzpkzx7W0tPi3AKmaixYtctqnRJTTY+ADAhCAAAS6QaChocHnnjBhQjdKIWtcCSA44+rZvfVS5NKEpt5lriYOvXJSSVNXaJ9EqM4hyumx8AEBCEAAAjkQUHO60vTp02lOz4FfErL0S0Ilk1rHFStWtPuHb1NXSIRKeNo7dpPKinpDAAIQgEDuBOrq6nzmcePG5V4IOWNNgAhnjN2bqdP2+PHjfY1t6gqrfqZz7RhLCEAAAhCAQHsEot23Zs6c2d5p7E84AQRnwi4Am6rCpq5IWPWpLgQgAAEI5JnAsmXLfIlqTidBoD0CCM72yMR4/6hRo/zUFfpVSoIABCAAAQjkSkDPERssVFVVlWsx5EsAAQRnApwcraKazisqKvwuBgpFybAOAQhAAAJdJWDPEQ0+nThxYlezc36CCCA4E+Rsq6pNWaFmdaKcRoUlBCAAAQh0hUBZWZmfVk+tZhp8SoJANgIIzmx0YnpMUU71tdHAIet7E9OqUi0IQAACECgAgWhTumZEIUGgIwJ99uxNHZ3E8fgR0DRIJSUlTm8eam1tjV8FqREEIAABCBSMwKBBg3zQQi8RYWR6wTDHqmAinLFyZ+croyinDR665ZZbOp+RMyEAAQhAINEESktLvdjUMwSxmehLoUuVR3B2CVe8TrZmkPr6evpyxsu11AYCEIBAQQjojUJ6HbKSPUMK8kUUGjsCCM7YubTzFVKUUyML1ZdzxowZnc/ImRCAAAQgkDgCag2bNWuWr3djY2O7b7JLHBgq3CkC9OHsFKZ4n6SRhppHTc0jzc3N8a4stYMABCAAgS4TsOeEMkpsMgVSlxEmPgMRzsRfAs7Nnz/fDx5SMwn9ObkgIAABCEAgSgCxGaXBeq4EiHDmSi5m+WzUuqqlZnbmVIuZg6kOBCAAgRwIaICQghGa0WTp0qVENnNgSJa/ESDCyZXgCag/p6a3UGIQkcfABwQgAIFEE0BsJtr9ea88gjPvSMMtUNNbRAcR0bweri+xHAIQgECuBNTihdjMlR752iNAk3p7ZBK8X2+QmDRpkidA83qCLwSqDgEIJI6Apj2ykehqRm9qamI0euKugsJUGMFZGK7Bl6pfuOPHj/dTJnHTCd6dVAACEIBAVgK651dWVqbm2CTYkBUXB3MggODMAVpSsiA6k+Jp6gkBCCSZQHpUk8FBSb4aCld3+nAWjm3wJWsgkZpTrF+nIp706wzerVQAAhCAgCdgfTWtCV33+tbWVkaic30UhAARzoJgjV+hEpr33Xefr5gmiNcrzSRISRCAAAQgEB6BaF99pjwKz38hWozgDNFrvWRztI+PblDl5eXM19lLvuBrIQABCORCQEJTrzLWK42Vpk+f7latWpVLUeSBQJcI0KTeJVzJPlkRTb360ubrVMRz0KBBNLMn+7Kg9hCAQAAEJDR1v9YMJBKbaqlqaWlBbAbgu7iYSIQzLp7s4Xoo2qmO5dbMTpNMDzuAr4MABCDQCQLpEU3u1Z2AxikFIYDgLAjW5BQq4VlTU+MaGhp8pdU8U1VVRafz5FwC1BQCEChCAgjNInRKwk1CcCb8AshX9TWtRl1dXWoON/2Krq6udnp7EQkCEIAABHqGAEKzZzjzLV0ngODsOjNyZCGQHvFkcFEWWByCAAQgkAcC6V2cVCQ/+vMAliLySgDBmVecFGYE0m+AuvmpkzrN7UaIJQQgAIHcCdg9tr6+PjXiXKVpLk3NmTxx4sTcCycnBApAAMFZAKgU+RuBTDdFfnn/xoc1CEAAAl0hYPdUG7CpvLQkdYUg5/YWAQRnb5FP2PfqJrlmzZp9+nkq6jlu3Dj6eibseqC6EIBA5wlkE5maU5OXcHSeJWf2HgEEZ++xT+w3283z9ddfbzPICPGZ2EuCikMAAmkEMt0ndQrRzDRQbAZDAMEZjKviaWimm6puqAMHDnQVFRVEPuPpdmoFAQikEdC9cOPGja6pqSk1v7GdYiKTaKYRYRkiAQRniF6Lqc0dic+hQ4fSET6mvqdaEEgigUz3POOAyDQSLONCAMEZF0/GrB7t3Yh1E7amdwRozJxOdSCQAAKaJzNbFHPIkCG07CTgOkhiFRGcSfR6YHWW+NSAo7Vr16beaGRVQIAaCZYQgECxEdC9y5rJo33WzU6LYjKNkRFhGWcCCM44ezemdUOAxtSxVAsCgROwlhlVIzptkVVLAlP908877zxXW1tru1lCIBEEEJyJcHO8K2kCNPpqTaux3eC11PRLNMMbGZYQgEB3CHQUvVTZFsHUOgN+RIGUZAIIziR7P4Z110NAyZrg169f3+YtHDqmh4ASfUE9Bj4gAIEOCETFpU7tKHpJE3kHQDmcSAIIzkS6PVmVtofFJ5984vuBbt26NTX/Z5SEhKhE6ODBg/2r4YYNG8aEylFArEMg5gTsXqFBPUqZ+l0agvT7Ba+SNDIsIZCZAIIzMxf2xpyAPVg6I0KFQkJUyZrlEaMeBx8QCJKA/f13RliqgojLIN2M0UVGAMFZZA7BnN4jYA+hqAjdtm3bPk3yZmG0aV77EKNGhiUEep+A/p6V1L1m06ZNfj1bxFInRIWlpieaMGECrRyeHB8Q6D4BBGf3GVJCzAlEH1yqqqZnaq9Z3lBkEqM6pkFLREeNEksI5E4g+ncZFZQqUX23syX9fdpocQlLBhNmo8UxCOSHAIIzPxwpJaEE0qOiwtCRGDVUJkr14NO6+o7aw0/n0CfMSLFMIoH2BGW2Vocop6io1H772+LvKkqJdQj0HAEEZ8+x5psSRiAqRlV1RUaVJEi78tBUHhOlWjdhqnVFZpSImnoMHX58+eWX7phjjunwvHyfsPuX3a5P3z6ub9++bYr++eef3f77799mX1w3TEBqInR1W7GopOqrpm6lzv5d6FwTlOk/1hCUokOCQPERQHAWn0+wKEEE8iFKo7j08FWSQFWy7aSL1D179vg+th9//LEXNR5OD35ce+21/sfBrbfemvrWd955x02aNKlX7EkZkeOKiUdll4BUiorILVu2pPo+d0VE+oL2fth1az+07PqlS4oRYgmB8Aj0C89kLIZAfAgMHz68zaCEmTNn7lM5E6U6oIe6UjRaqm17qCt6qmTLjvqy+ZP3ftgDXtvpYlX79MBXUrOkJYuualsRViXVpxjT559/7tatW+d27txZNOZJBPdGSheLdk1FI44SjEp2Hen6im77jS5+2DUWFZEqwpq6tU50UhRIEIgnASKc8fQrtUowARMU1nQpFBIThRAR7WE2cRE9bkLW9mU6x4StnWMC98gjj3RPP/20++KLL1xLS4t/a0t1dbU78MADvZCcPXu2F91jx451S5Ys8U3XmjVAAuaVV17x56nZVq8UlPC87bbb3LJly9zRRx/tqqqq3M033+y++eYbHwW1PFq2tra69957z3311Vfu+uuvd88995x799133aWXXuoeffRR16dPH/fQQw+5Bx54wO3evdtdeeWV7u677/bmz50719XX17v+/fv77SlTprhohPPtt992slf/X331VTd16lR3xx13uA0bNrgFCxa41157zedbtWqVe/zxx11JSYlhSfnSdpgwtG0TiNpOP2bndGdpvjOf2rb5z0QkXT26Q5m8EIgXAQRnvPxJbSCQMwETqiog2kxqBVoELF246rgJnEKIG5UvQXfjjTe6l156yZ188sm+KVrC7vLLL3cnnniiPyaBedNNN7ljjz3Wi0AtJQwl4g466CB3+umne+H4wQcfuGnTpjm9CvWnn35y1113nXvsscfcqaee6vNankceecQ9++yz7qmnnvLLe+65x9tx/vnnu7POOsu9//77XsiOHDnSPfHEE+6XX35xajqX0JRNlZWVbsWKFe67777zYvLee+/dR3COGDHCSThfddVV3nZFjfU9hx12mGtubvbzv0r4ah7YefPmCUW3kglDFdKeWNQxE4xaV0I4/o0DnxCAQO4EaFLPnR05IRArAtHm8Oh6LpWMilfLbyLWtq0p17a1NFFr+0zcaltC78ILL/SHrr76avfkk0+6AQMG+GifoouaxFtCqbGx0bK7xYsX++4CJoQVKVU+Cc4LLrjAn1dRUeEjiIoqKlkeCc6LLrrIlZaWejGp/Tdcf4Pbr99+vovBp59+6t566y1fvqKVSvp+dXfQwCSJYeVXsu/yG2kfNTU17tBDD3Vz5sxxskUR0/LyctfQ0OBOOeUUL7IXPbTIC1fLqu+xFO3aoH3WvUHr3fWjyiBBAAIQyAcBBGc+KFIGBCDQhkAmoZNpX5tMWTYWLlzoo352yvfff+804lxC8vDDD/fN2Tqm6OcZZ5xhp7njjz8+tW4rErGnnXaabTqNFI+maB4Tb2o6P+KII7zYjJ6r71f0VIJX6eKLL3YnnXSSW7lypY+Y2rkSlJnScccd58Wmjh1wwAGpEesSnrNmzfJlnHvuuW7YScNcbW1tpiLYBwEIQCAIAm3n6AjCZIyEAASSSODNN9/0InPXrl3umWee8X0vL7nkEo9Czc6KEKqJ/OWXX86K57LLLvP5v/76a/fZZ5+5559/3lk5WTNmOFhWVub7fl5zzTVeIGqQlqK7+g7195QoViRUfTQzpe3bt/tjEr1q4jc7FMn94Ycf3O233+6b5jPlZR8EIACBkAgQ4QzJW9gKgQQT6Nevn4/4/fjjj74PpZrFNa/lXXfd5QcHqQ+l0gsvvJCi1LfPvr+pJ0+e7O6//37fz1IDhdTcrabvb7/91ueL5lFkU8mWfuP/P7RvzJgxvqlfkVXZpSiuBiPJLn2H+pEqAqtm7/QytK1j6r8p8XvIIYekxLLm5lSz+oMPPuiuuOKK6NeyDgEIQCBIAgwaCtJtGA2BZBFQk7pGbaupWlHD6OAXkVBk88MPP/R9HjszkbqmJNKcnGoOTy8rF7IaxS67oiPJf/31Vz+i/oQTTkg1m2cqW+dt3rzZDR40uE2TvQYfaTqn5cuXZ8rGPghAAAJBESDCGZS7MBYCySZw8MEHZxSI6v8Y7ZfZESVFF7vTpzS9/KOOOsrpfzQpyqlBPx0lnZc+8Ecj3NVt4I033ugoO8chAAEIBEGACGcQbsJICCSbgAb67Nixw5155pmJALF69Wo3evRop0FFJAhAAAJxIIDgjIMXqQMEIAABCEAAAhAoYgL79qgvYmMxDQIQgAAEIAABCEAgPAIIzvB8hsUQgAAEIAABCEAgKAIIzqDchbEQgAAEIAABCEAgPAIIzvB8hsUQgAAEIAABCEAgKAIIzqDchbEQgAAEIAABCEAgPAIIzvB8hsUQgAAEIAABCEAgKAIIzqDchbEQgAAEIAABCEAgPAIIzvB8hsUQgAAEIAABCEAgKAIIzqDchbEQgAAEIAABCEAgPAIIzvB8hsUQgAAEIAABCEAgKAIIzqDchbEQgAAEIAABCEAgPAIIzvB8hsUQgAAEIAABCEAgKAIIzqDchbEQgAAEIAABCEAgPAIIzvB8hsUQgAAEIAABCEAgKAIIzqDchbEQgAAEIAABCEAgPAIIzvB8hsUQgAAEIAABCEAgKAIIzqDchbEQgAAEIAABCEAgPAIIzvB8hsUQgAAEIAABCEAgKAIIzqDchbEQgAAEIAABCEAgPAIIzvB8hsUQgAAEIAABCEAgKAIIzqDchbEQgAAEIAABCEAgPAIIzvB8hsUQgAAEIAABCEAgKAIIzqDchbEQgAAEIAABCEAgPAIIzvB8hsUQgAAEIAABCEAgKAIIzqDchbEQgAAEIAABCEAgPAIIzvB8hsUQgAAEIAABCEAgKAIIzqDchbEQgAAEIAABCEAgPAIIzvB8hsUQgAAEIAABCEAgKAIIzqDchbEQgAAEIAABCEAgPAL/B0LKLW5N0ka6AAAAAElFTkSuQmCC;fontSize=14;fontFamily=Oswald;fontSource=https%3A%2F%2Ffonts.googleapis.com%2Fcss%3Ffamily%3DOswald;" vertex="1" parent="tOzdehcgxW7_LL5JkeHa-19">
          <mxGeometry x="13.889999999999986" y="29.83749999999997" width="212.21" height="127.72" as="geometry" />
        </mxCell>
        <mxCell id="tOzdehcgxW7_LL5JkeHa-22" value="detected by&lt;br&gt;monitoring" style="edgeStyle=orthogonalEdgeStyle;curved=1;rounded=0;orthogonalLoop=1;jettySize=auto;html=1;endArrow=none;endFill=0;strokeWidth=2;fontSize=14;startArrow=classic;startFill=1;exitX=1;exitY=0.5;exitDx=0;exitDy=0;fontFamily=Oswald;fontSource=https%3A%2F%2Ffonts.googleapis.com%2Fcss%3Ffamily%3DOswald;" edge="1" parent="tOzdehcgxW7_LL5JkeHa-0" source="waV62aWnwryCNmw-Fwzn-0">
          <mxGeometry x="-0.0254" y="-20" relative="1" as="geometry">
            <mxPoint x="680" y="315" as="sourcePoint" />
            <Array as="points">
              <mxPoint x="720" y="305" />
              <mxPoint x="720" y="460" />
            </Array>
            <mxPoint as="offset" />
            <mxPoint x="679" y="460" as="targetPoint" />
          </mxGeometry>
        </mxCell>
        <mxCell id="HMCL80if0SuUbATxmEuT-0" value="elicits" style="edgeStyle=orthogonalEdgeStyle;curved=1;rounded=0;orthogonalLoop=1;jettySize=auto;html=1;entryX=1;entryY=0.5;entryDx=0;entryDy=0;endArrow=none;endFill=0;strokeWidth=2;fontSize=14;startArrow=classic;startFill=1;fontFamily=Oswald;fontSource=https%3A%2F%2Ffonts.googleapis.com%2Fcss%3Ffamily%3DOswald;" edge="1" parent="tOzdehcgxW7_LL5JkeHa-0" target="tOzdehcgxW7_LL5JkeHa-15">
          <mxGeometry x="-0.3551" y="-57" relative="1" as="geometry">
            <mxPoint x="440" y="93" as="sourcePoint" />
            <Array as="points">
              <mxPoint x="750" y="93" />
              <mxPoint x="750" y="480" />
            </Array>
            <mxPoint as="offset" />
            <mxPoint x="688.75" y="475" as="targetPoint" />
          </mxGeometry>
        </mxCell>
        <mxCell id="Y-eh493m8s4oRVfJB8fK-1" value="MetaModel" style="" parent="Y-eh493m8s4oRVfJB8fK-0" />
        <mxCell id="2nXwfwdjoYSFGdO8NO12-3" value="verified by" style="edgeStyle=orthogonalEdgeStyle;curved=1;rounded=0;orthogonalLoop=1;jettySize=auto;html=1;strokeWidth=2;fontSize=14;fontFamily=Oswald;fontSource=https%3A%2F%2Ffonts.googleapis.com%2Fcss%3Ffamily%3DOswald;" edge="1" parent="Y-eh493m8s4oRVfJB8fK-1" source="As5LlfaY-s4t0mBRkN7G-0" target="6Ld4Xl5F0_719f5cLujk-1">
          <mxGeometry relative="1" as="geometry" />
        </mxCell>
        <mxCell id="As5LlfaY-s4t0mBRkN7G-0" value="&lt;b style=&quot;font-size: 14px;&quot;&gt;Structure&lt;br style=&quot;font-size: 14px;&quot;&gt;&lt;/b&gt;&lt;i style=&quot;font-size: 14px;&quot;&gt;a system is&lt;/i&gt;" style="rounded=1;whiteSpace=wrap;html=1;fillColor=#56C0fB;strokeColor=#000000;fontFamily=Oswald;fontColor=#000000;fontStyle=0;fontSize=14;fontSource=https%3A%2F%2Ffonts.googleapis.com%2Fcss%3Ffamily%3DOswald;" vertex="1" parent="Y-eh493m8s4oRVfJB8fK-1">
          <mxGeometry x="60" y="260" width="140" height="90" as="geometry" />
        </mxCell>
        <mxCell id="2nXwfwdjoYSFGdO8NO12-2" value="performed by" style="edgeStyle=orthogonalEdgeStyle;curved=1;rounded=0;orthogonalLoop=1;jettySize=auto;html=1;entryX=0.75;entryY=1;entryDx=0;entryDy=0;strokeWidth=2;exitX=0.25;exitY=1;exitDx=0;exitDy=0;fontSize=14;fontFamily=Oswald;fontSource=https%3A%2F%2Ffonts.googleapis.com%2Fcss%3Ffamily%3DOswald;" edge="1" parent="Y-eh493m8s4oRVfJB8fK-1" source="waV62aWnwryCNmw-Fwzn-0" target="As5LlfaY-s4t0mBRkN7G-0">
          <mxGeometry relative="1" as="geometry">
            <Array as="points">
              <mxPoint x="575" y="400" />
              <mxPoint x="165" y="400" />
            </Array>
          </mxGeometry>
        </mxCell>
        <mxCell id="2nXwfwdjoYSFGdO8NO12-4" value="verified by" style="edgeStyle=orthogonalEdgeStyle;curved=1;rounded=0;orthogonalLoop=1;jettySize=auto;html=1;strokeWidth=2;fontSize=14;fontFamily=Oswald;fontSource=https%3A%2F%2Ffonts.googleapis.com%2Fcss%3Ffamily%3DOswald;" edge="1" parent="Y-eh493m8s4oRVfJB8fK-1" source="waV62aWnwryCNmw-Fwzn-0" target="6Ld4Xl5F0_719f5cLujk-1">
          <mxGeometry relative="1" as="geometry" />
        </mxCell>
        <mxCell id="waV62aWnwryCNmw-Fwzn-0" value="&lt;b style=&quot;font-size: 14px;&quot;&gt;Behavior&lt;/b&gt;&lt;br style=&quot;font-size: 14px;&quot;&gt;&lt;i style=&quot;font-size: 14px;&quot;&gt;a system does&lt;/i&gt;" style="rounded=1;whiteSpace=wrap;html=1;fillColor=#c2ffbf;strokeColor=#000000;fontFamily=Oswald;fontStyle=0;fontSize=14;fontSource=https%3A%2F%2Ffonts.googleapis.com%2Fcss%3Ffamily%3DOswald;" vertex="1" parent="Y-eh493m8s4oRVfJB8fK-1">
          <mxGeometry x="540" y="260" width="140" height="90" as="geometry" />
        </mxCell>
        <mxCell id="6Ld4Xl5F0_719f5cLujk-1" value="&lt;b style=&quot;font-size: 14px;&quot;&gt;Verification&lt;/b&gt;&lt;br style=&quot;font-size: 14px;&quot;&gt;&lt;i style=&quot;font-size: 14px;&quot;&gt;a system&#39;s proof&lt;/i&gt;" style="rounded=1;whiteSpace=wrap;html=1;fillColor=#f5f5f5;strokeColor=#666666;fontFamily=Oswald;fontStyle=0;fontSize=14;fontColor=#333333;fontSource=https%3A%2F%2Ffonts.googleapis.com%2Fcss%3Ffamily%3DOswald;" vertex="1" parent="Y-eh493m8s4oRVfJB8fK-1">
          <mxGeometry x="300" y="260" width="140" height="90" as="geometry" />
        </mxCell>
        <mxCell id="xKQax62gQzR710XvzqlQ-1" value="specifies" style="edgeStyle=orthogonalEdgeStyle;rounded=0;orthogonalLoop=1;jettySize=auto;html=1;curved=1;strokeWidth=2;fontSize=14;fontFamily=Oswald;fontSource=https%3A%2F%2Ffonts.googleapis.com%2Fcss%3Ffamily%3DOswald;" edge="1" parent="Y-eh493m8s4oRVfJB8fK-1" source="xKQax62gQzR710XvzqlQ-0" target="As5LlfaY-s4t0mBRkN7G-0">
          <mxGeometry x="0.3016" y="30" relative="1" as="geometry">
            <mxPoint as="offset" />
          </mxGeometry>
        </mxCell>
        <mxCell id="2nXwfwdjoYSFGdO8NO12-0" value="basis of" style="edgeStyle=orthogonalEdgeStyle;curved=1;rounded=0;orthogonalLoop=1;jettySize=auto;html=1;strokeWidth=2;fontSize=14;fontFamily=Oswald;fontSource=https%3A%2F%2Ffonts.googleapis.com%2Fcss%3Ffamily%3DOswald;" edge="1" parent="Y-eh493m8s4oRVfJB8fK-1" source="xKQax62gQzR710XvzqlQ-0" target="waV62aWnwryCNmw-Fwzn-0">
          <mxGeometry x="-0.1746" y="-35" relative="1" as="geometry">
            <mxPoint as="offset" />
          </mxGeometry>
        </mxCell>
        <mxCell id="2nXwfwdjoYSFGdO8NO12-1" value="verified by" style="edgeStyle=orthogonalEdgeStyle;curved=1;rounded=0;orthogonalLoop=1;jettySize=auto;html=1;entryX=0.5;entryY=0;entryDx=0;entryDy=0;strokeWidth=2;fontSize=14;fontFamily=Oswald;fontSource=https%3A%2F%2Ffonts.googleapis.com%2Fcss%3Ffamily%3DOswald;" edge="1" parent="Y-eh493m8s4oRVfJB8fK-1" source="xKQax62gQzR710XvzqlQ-0" target="6Ld4Xl5F0_719f5cLujk-1">
          <mxGeometry relative="1" as="geometry" />
        </mxCell>
        <mxCell id="xKQax62gQzR710XvzqlQ-0" value="&lt;b style=&quot;font-size: 14px;&quot;&gt;Requirement&lt;/b&gt;&lt;br style=&quot;font-size: 14px;&quot;&gt;&lt;i style=&quot;font-size: 14px;&quot;&gt;a system&#39;s why&lt;/i&gt;" style="rounded=1;whiteSpace=wrap;html=1;fillColor=#FC9494;strokeColor=#000000;fontFamily=Oswald;fontStyle=0;fontSize=14;fontSource=https%3A%2F%2Ffonts.googleapis.com%2Fcss%3Ffamily%3DOswald;" vertex="1" parent="Y-eh493m8s4oRVfJB8fK-1">
          <mxGeometry x="300" y="70" width="140" height="90" as="geometry" />
        </mxCell>
      </root>
    </mxGraphModel>
  </diagram>
</mxfile>
